<?xml version="1.0" encoding="UTF-8" standalone="no"?>
<!-- Created with Inkscape (http://www.inkscape.org/) -->

<svg
   xmlns:dc="http://purl.org/dc/elements/1.1/"
   xmlns:cc="http://creativecommons.org/ns#"
   xmlns:rdf="http://www.w3.org/1999/02/22-rdf-syntax-ns#"
   xmlns:svg="http://www.w3.org/2000/svg"
   xmlns="http://www.w3.org/2000/svg"
   xmlns:sodipodi="http://sodipodi.sourceforge.net/DTD/sodipodi-0.dtd"
   xmlns:inkscape="http://www.inkscape.org/namespaces/inkscape"
   width="420.16"
   height="420.16"
   id="svg2"
   sodipodi:version="0.32"
   inkscape:version="0.48.3.1 r9886"
   sodipodi:docname="favicon.svg"
   inkscape:output_extension="org.inkscape.output.svg.inkscape"
   version="1.1">
  <defs
     id="defs4">
    <inkscape:perspective
       sodipodi:type="inkscape:persp3d"
       inkscape:vp_x="0 : 526.18109 : 1"
       inkscape:vp_y="0 : 1000 : 0"
       inkscape:vp_z="744.09448 : 526.18109 : 1"
       inkscape:persp3d-origin="372.04724 : 350.78739 : 1"
       id="perspective10" />
    <inkscape:perspective
       id="perspective2390"
       inkscape:persp3d-origin="372.04724 : 350.78739 : 1"
       inkscape:vp_z="744.09448 : 526.18109 : 1"
       inkscape:vp_y="0 : 1000 : 0"
       inkscape:vp_x="0 : 526.18109 : 1"
       sodipodi:type="inkscape:persp3d" />
  </defs>
  <sodipodi:namedview
     id="base"
     pagecolor="#ffffff"
     bordercolor="#666666"
     borderopacity="1.0"
     gridtolerance="10000"
     guidetolerance="10"
     objecttolerance="10"
     inkscape:pageopacity="0.0"
     inkscape:pageshadow="2"
     inkscape:zoom="1.1980738"
     inkscape:cx="172.61756"
     inkscape:cy="85.691779"
     inkscape:document-units="px"
     inkscape:current-layer="layer1"
     showgrid="false"
     inkscape:window-width="1071"
     inkscape:window-height="1058"
     inkscape:window-x="0"
     inkscape:window-y="18"
     inkscape:window-maximized="0"
     fit-margin-top="0"
     fit-margin-left="0"
     fit-margin-right="0"
     fit-margin-bottom="0" />
  <metadata
     id="metadata7">
    <rdf:RDF>
      <cc:Work
         rdf:about="">
        <dc:format>image/svg+xml</dc:format>
        <dc:type
           rdf:resource="http://purl.org/dc/dcmitype/StillImage" />
        <dc:title></dc:title>
      </cc:Work>
    </rdf:RDF>
  </metadata>
  <g
     inkscape:label="Layer 1"
     inkscape:groupmode="layer"
     id="layer1"
     transform="translate(-200.87642,-91.62251)">
    <path
       sodipodi:type="arc"
       style="fill:#4192b3;fill-opacity:1;stroke:#000000;stroke-width:18.73413849;stroke-miterlimit:4;stroke-opacity:1;stroke-dasharray:none"
       id="path3001"
       sodipodi:cx="361.20132"
       sodipodi:cy="227.1693"
       sodipodi:rx="237.164"
       sodipodi:ry="179.7393"
       d="m 598.36533,227.1693 c 0,99.26727 -106.18194,179.7393 -237.16401,179.7393 -130.98206,0 -237.164,-80.47203 -237.164,-179.7393 0,-99.26728 106.18194,-179.739307 237.164,-179.739307 130.98207,0 237.16401,80.472027 237.16401,179.739307 z"
       transform="matrix(0.7665077,0,0,0.95160348,133.80086,54.484164)" />
    <path
       style="fill:#ffffff;fill-opacity:1;fill-rule:evenodd;stroke:#000000;stroke-width:16.50361061;stroke-linecap:butt;stroke-linejoin:round;stroke-miterlimit:4;stroke-opacity:1;stroke-dasharray:none"
       d="m 363.39503,129.58268 c -33.18259,6.45888 -46.95392,33.25338 -47.15314,74.26625 4.27164,34.80557 6.84866,64.85417 35.95427,80.16039 18.79377,6.99942 33.54836,-2.1578 42.43787,-18.86126 10.24842,-35.99651 14.6102,-83.45671 4.50901,-110.89838 -18.9081,-28.7017 -19.02281,-23.93338 -35.74801,-24.667 z"
       id="path3212"
       sodipodi:nodetypes="cccccc"
       inkscape:connector-curvature="0" />
    <path
       sodipodi:type="arc"
       style="fill:#000000;fill-opacity:1;stroke:none"
       id="path3168"
       sodipodi:cx="337.14285"
       sodipodi:cy="238.07646"
       sodipodi:rx="11.428572"
       sodipodi:ry="19.285715"
       d="m 348.57142,238.07646 c 0,10.65121 -5.11674,19.28572 -11.42857,19.28572 -6.31182,0 -11.42857,-8.63451 -11.42857,-19.28572 0,-10.6512 5.11675,-19.28571 11.42857,-19.28571 6.31183,0 11.42857,8.63451 11.42857,19.28571 z"
       transform="matrix(2.3679439,0.12611005,0.15294159,1.8620252,-464.85673,-244.29739)" />
    <path
       style="fill:#ffffff;fill-opacity:1;fill-rule:evenodd;stroke:#000000;stroke-width:16.50361061;stroke-linecap:butt;stroke-linejoin:round;stroke-miterlimit:4;stroke-opacity:1;stroke-dasharray:none"
       d="m 458.12733,131.73591 c -37.53688,-0.9016 -42.7996,20.09523 -48.76317,38.34369 -6.44712,28.47048 -1.24603,58.88233 -1.66711,88.35717 1.50505,12.50757 7.75045,23.21541 28.34097,28.34098 33.98641,5.80631 48.21717,-31.85178 48.72146,-85.93986 -0.9383,-15.55647 10.60273,-59.63952 -26.63215,-69.10198 z"
       id="path3214"
       sodipodi:nodetypes="cccccc"
       inkscape:connector-curvature="0" />
    <path
       sodipodi:type="arc"
       style="fill:#000000;fill-opacity:1;stroke:none"
       id="path3170"
       sodipodi:cx="384.28571"
       sodipodi:cy="245.93361"
       sodipodi:rx="15.714286"
       sodipodi:ry="22.142857"
       d="m 399.99999,245.93361 c 0,12.22916 -7.03552,22.14286 -15.71428,22.14286 -8.67876,0 -15.71429,-9.9137 -15.71429,-22.14286 0,-12.22916 7.03553,-22.14286 15.71429,-22.14286 8.67876,0 15.71428,9.9137 15.71428,22.14286 z"
       transform="matrix(1.5578057,0.40490531,-0.34673735,1.81914,-74.152888,-355.42573)" />
    <path
       style="fill:none;stroke:#000000;stroke-width:16;stroke-linecap:butt;stroke-linejoin:round;stroke-miterlimit:4;stroke-opacity:1;stroke-dasharray:none"
       d="m 327.15215,338.51465 c 6.05991,10.84404 1.68862,11.25688 18.17971,32.5321 7.13269,7.30673 14.98546,12.45323 23.92067,14.35241 l 23.92066,1.91365 44.01404,-0.95684 c 11.55562,-1.20205 18.6778,-6.83756 25.8343,-12.43873 8.99546,-5.34521 16.55158,-10.9783 21.0502,-17.22289 5.68126,-7.73034 7.37218,-16.25875 8.61143,-24.87749"
       id="path3172"
       sodipodi:nodetypes="cccccccc"
       inkscape:connector-curvature="0" />
    <path
       style="fill:none;stroke:#000000;stroke-width:16;stroke-linecap:round;stroke-linejoin:round;stroke-miterlimit:4;stroke-opacity:1;stroke-dasharray:none"
       d="m 304.37766,342.74453 c 8.98434,-0.54849 19.0711,-3.9908 28.14045,-7.85656 8.33671,-3.5535 17.01898,-7.22375 21.98992,-9.57417 0.19685,-0.0931 0.38977,-0.1837 0.57866,-0.27177 0.0112,-0.006 0.0224,-0.0101 0.0336,-0.0156 0.0112,-0.006 0.0224,-0.0101 0.0335,-0.0156 0.0113,-0.006 0.0223,-0.0101 0.0334,-0.0155 0.0113,-0.006 0.0223,-0.0101 0.0334,-0.0155 0.0113,-0.006 0.0222,-0.0101 0.0333,-0.0154 0.0113,-0.006 0.0222,-0.0101 0.0332,-0.0154 0.0112,-0.006 0.022,-0.0101 0.0331,-0.0153 0.0112,-0.006 0.022,-0.0101 0.0331,-0.0153"
       id="path3174"
       sodipodi:nodetypes="cssssssssssc"
       inkscape:connector-curvature="0" />
    <path
       style="fill:none;stroke:#000000;stroke-width:16;stroke-linecap:round;stroke-linejoin:round;stroke-miterlimit:4;stroke-opacity:1;stroke-dasharray:none"
       d="m 475.46029,313.63715 c 6.61975,13.13176 25.03914,18.28143 53.34309,16.74447"
       id="path3176"
       sodipodi:nodetypes="cc"
       inkscape:connector-curvature="0" />
    <path
       style="fill:#4192b3;fill-opacity:1;fill-rule:evenodd;stroke:#000000;stroke-width:16;stroke-linecap:butt;stroke-linejoin:round;stroke-miterlimit:4;stroke-opacity:1;stroke-dasharray:none"
       d="m 332.2587,416.31157 -5.4681,29.20128 c -3.27142,8.40867 14.00333,3.6017 20.84389,6.30222 l -27.09705,-2.18154 c -24.87333,5.14701 -40.0287,19.34897 -40.4967,24.9665 0.19171,17.69981 5.05356,20.94173 18.7595,25.45128 l 245.95786,-1.69675 c 11.8373,-0.86227 10.3145,-11.50111 11.31525,-18.66428 -0.22369,-7.8203 -2.84811,-14.05548 -17.56842,-19.39145 -17.87471,-3.73366 -32.94027,-9.34671 -53.00302,-2.90872 L 481.9558,419.7838"
       id="path3234"
       sodipodi:nodetypes="ccccccccccc"
       inkscape:connector-curvature="0" />
    <path
       style="fill:none;stroke:#000000;stroke-width:16;stroke-linecap:butt;stroke-linejoin:miter;stroke-miterlimit:4;stroke-opacity:1;stroke-dasharray:none"
       d="m 410.43689,425.02351 c -2.45036,36.75045 -2.52624,43.26557 2.11142,80.80358"
       id="path3236"
       sodipodi:nodetypes="cc"
       inkscape:connector-curvature="0" />
  </g>
</svg>
