<?xml version="1.0" encoding="UTF-8"?>
<!DOCTYPE svg PUBLIC "-//W3C//DTD SVG 1.1//EN" "http://www.w3.org/Graphics/SVG/1.1/DTD/svg11.dtd">
<!-- Creator: CorelDRAW 2019 (64-Bit) -->
<svg xmlns="http://www.w3.org/2000/svg" xml:space="preserve" width="90.0354mm" height="90.473mm" version="1.1" style="shape-rendering:geometricPrecision; text-rendering:geometricPrecision; image-rendering:optimizeQuality; fill-rule:evenodd; clip-rule:evenodd"
viewBox="0 0 9413.62 9459.38"
 xmlns:xlink="http://www.w3.org/1999/xlink"
 xmlns:xodm="http://www.corel.com/coreldraw/odm/2003">
 <defs>
  <style type="text/css">
   <![CDATA[
    .fil0 {fill:black;fill-rule:nonzero}
   ]]>
  </style>
 </defs>
 <g id="Layer_x0020_1">
  <metadata id="CorelCorpID_0Corel-Layer"/>
  <path class="fil0" d="M164.67 9294.7l9084.28 0 0 -9130.03 -9084.28 0 0 9130.03zm8218.09 -738.46l-2958.27 0 0 -2958.27 2958.27 0 0 2958.27zm-2848.52 -2848.52l0 2738.77 2738.77 0 0 -2738.77 -2738.77 0zm-4045.61 444.96c-22.01,-88.05 31.53,-177.28 119.58,-199.29 88.05,-22.01 177.28,31.53 199.29,119.58 43.99,175.14 85.91,344.82 123.56,503.76 38.62,163.05 76.72,331.1 114.12,507.65 19.13,90.4 40.24,171.65 63.59,251.3 26.08,88.98 52.16,168.95 80.35,253.49 57.57,172.68 106.11,309.68 149.91,350.79 15.98,14.99 -9.9,-44.27 30.93,-100.42 30.21,-41.57 65.88,-81.34 101.53,-121.08 29.32,-32.67 58.64,-65.37 83.62,-100.77 47.56,-67.4 90.75,-138.4 133.92,-209.37 40.71,-66.92 81.44,-133.87 125.92,-199.05 112.84,-165.46 231.4,-346.76 350.37,-528.7 214.55,-328.09 430.5,-658.33 666.58,-972.84l-2691.29 0 0 2738.77 2738.76 0 0 -2243.22c-149.56,214.82 -294.55,436.55 -438.9,657.29 -115,175.86 -229.62,351.14 -354.22,533.85 -40.85,59.87 -78.9,122.41 -116.92,184.92 -46.69,76.76 -93.4,153.55 -145.49,227.35 -32.72,46.38 -70.41,88.38 -108.07,130.36 -27.28,30.4 -54.58,60.84 -79.66,95.36 -200.86,276.23 -364.37,294.73 -522.08,146.7 -97.92,-91.92 -163.31,-268.84 -236.06,-487.07 -32.07,-96.19 -60.73,-183.71 -84.2,-263.78 -26.2,-89.39 -49.53,-178.88 -70.03,-275.72 -34.17,-161.25 -72.21,-328.46 -112.82,-499.94 -41.59,-175.6 -82.1,-339.84 -122.29,-499.91zm2427.02 -554.71c33.36,-42.98 67.16,-85.63 101.43,-127.89l14.08 -17.39c147.78,-182.9 407.38,-503.82 697.56,-503.82 90.89,0 164.58,73.69 164.58,164.58 0,90.89 -73.69,164.58 -164.58,164.58 -134.19,0 -330.15,242.3 -441.77,380.32l-0.08 -0.07 -15.21 18.8c-96.77,119.32 -190.65,243.6 -282.52,371.12l0 2508.05 -2958.26 0 0 -2958.27 2884.78 0zm4531.83 -1501.92l-2958.27 0 0 -2958.27 2958.27 0 0 2958.27zm-2848.52 -109.75l2738.76 0 0 -2738.76 -2738.76 0 0 2738.76zm-4175.06 -2293.77c-22.01,-88.05 31.53,-177.28 119.58,-199.29 88.05,-22.01 177.28,31.53 199.29,119.58 43.99,175.13 85.91,344.79 123.56,503.74 38.62,163.06 76.72,331.11 114.12,507.67 19.14,90.39 40.25,171.64 63.6,251.3 26.08,88.97 52.15,168.94 80.34,253.48 57.57,172.68 106.11,309.68 149.91,350.79 15.98,14.99 -9.9,-44.28 30.93,-100.42 30.21,-41.58 65.87,-81.33 101.52,-121.06 29.31,-32.67 58.64,-65.37 83.63,-100.79 47.55,-67.38 90.73,-138.36 133.9,-209.32 40.71,-66.94 81.46,-133.9 125.95,-199.1 112.8,-165.42 231.36,-346.7 350.31,-528.62 214.55,-328.1 430.51,-658.37 666.62,-972.91l-2691.28 0 0 2738.76 2738.77 0 0 -2243.22c-149.6,214.85 -294.6,436.61 -438.96,657.38 -114.98,175.84 -229.58,351.08 -354.16,533.76 -40.87,59.9 -78.93,122.44 -116.95,184.97 -46.69,76.75 -93.4,153.52 -145.47,227.3 -32.73,46.38 -70.41,88.39 -108.08,130.38 -27.27,30.39 -54.58,60.82 -79.65,95.34 -200.86,276.22 -364.38,294.75 -522.08,146.7 -97.93,-91.92 -163.31,-268.84 -236.06,-487.07 -32.07,-96.2 -60.71,-183.7 -84.19,-263.77 -26.2,-89.4 -49.53,-178.88 -70.04,-275.72 -34.17,-161.27 -72.21,-328.47 -112.82,-499.95 -41.59,-175.59 -82.1,-339.84 -122.29,-499.9zm2427.01 -554.71c33.37,-42.99 67.17,-85.64 101.44,-127.9l14.11 -17.43c147.8,-182.9 407.35,-503.78 697.53,-503.78 90.89,0 164.58,73.69 164.58,164.58 0,90.89 -73.69,164.58 -164.58,164.58 -134.15,0 -330.1,242.25 -441.74,380.28l-0.08 -0.07 -15.24 18.84c-96.77,119.32 -190.65,243.6 -282.51,371.12l0 2508.05 -2958.27 0 0 -2958.26 2884.77 0zm5480.37 8321.56l-9248.95 0c-45.47,0 -82.34,-36.87 -82.34,-82.34l0 -9294.7c0,-45.47 36.87,-82.34 82.34,-82.34l9248.95 0c45.47,0 82.34,36.87 82.34,82.34l0 9294.7c0,45.47 -36.87,82.34 -82.34,82.34z"/>
 </g>
</svg>
