<?xml version="1.0" encoding="UTF-8" standalone="no"?>
<!DOCTYPE svg PUBLIC "-//W3C//DTD SVG 1.1//EN" "http://www.w3.org/Graphics/SVG/1.1/DTD/svg11.dtd">
<svg width="100%" height="100%" viewBox="0 0 400 400" version="1.1" xmlns="http://www.w3.org/2000/svg" xmlns:xlink="http://www.w3.org/1999/xlink" xml:space="preserve" style="fill-rule:evenodd;clip-rule:evenodd;stroke-linecap:round;stroke-linejoin:round;stroke-miterlimit:1.41421;">
    <g transform="matrix(1,0,0,1,-1.70103,-1.50201)">
        <rect x="33.205" y="32.173" width="336.992" height="338.659" style="fill:rgb(255,254,254);stroke-width:6px;stroke:black;"/>
    </g>
    <g transform="matrix(1,0,0,1,-6.29407,-15.2842)">
        <g transform="matrix(5.38933,1.7645e-31,1.68493e-31,5.38933,571.208,-944.95)">
            <rect x="-93" y="191" width="20" height="20" style="fill:rgb(255,254,254);"/>
            <path d="M-73,211L-93,211L-93,191L-73,191L-73,211ZM-92.258,210.258L-73.742,210.258L-73.742,191.742L-92.258,191.742L-92.258,210.258Z" style="fill:black;"/>
        </g>
        <g transform="matrix(2.27568,-1.66551e-32,-8.32755e-33,2.27568,820.599,-98.1262)">
            <path d="M-319.953,88.456C-318.605,93.823 -317.314,99.148 -316.168,104.557C-315.533,107.555 -314.746,110.023 -313.781,112.917C-311.694,119.176 -310.134,122.968 -306.264,117.646C-305.35,116.388 -304.175,115.333 -303.279,114.063C-301.782,111.942 -300.561,109.637 -299.098,107.493C-292.843,98.321 -286.961,88.424 -279.985,79.822C-277.956,77.32 -274.158,72.455 -270.629,72.455" style="fill:none;stroke-width:5.27px;stroke:black;"/>
        </g>
    </g>
    <g transform="matrix(5.38933,1.7645e-31,1.68493e-31,5.38933,729.715,-960.235)">
        <g>
            <g>
                <rect x="-93" y="191" width="20" height="20" style="fill:rgb(255,254,254);"/>
                <path d="M-73,211L-93,211L-93,191L-73,191L-73,211ZM-92.258,210.258L-73.742,210.258L-73.742,191.742L-92.258,191.742L-92.258,210.258Z" style="fill:black;"/>
            </g>
        </g>
    </g>
    <g transform="matrix(1,0,0,1,-3.93571,147.225)">
        <g transform="matrix(5.38933,1.7645e-31,1.68493e-31,5.38933,571.208,-944.95)">
            <rect x="-93" y="191" width="20" height="20" style="fill:rgb(255,254,254);"/>
            <path d="M-73,211L-93,211L-93,191L-73,191L-73,211ZM-92.258,191.742L-92.258,210.258L-73.742,210.258L-73.742,191.742L-92.258,191.742Z" style="fill:black;"/>
        </g>
        <g transform="matrix(2.27568,-1.66551e-32,-8.32755e-33,2.27568,820.599,-98.1262)">
            <path d="M-319.953,88.456C-318.605,93.823 -317.314,99.148 -316.168,104.557C-315.533,107.555 -314.746,110.023 -313.781,112.917C-311.694,119.176 -310.134,122.968 -306.264,117.646C-305.35,116.388 -304.175,115.333 -303.279,114.063C-301.782,111.942 -300.561,109.637 -299.098,107.493C-292.843,98.321 -286.961,88.424 -279.985,79.822C-277.956,77.32 -274.158,72.455 -270.629,72.455" style="fill:none;stroke-width:5.27px;stroke:black;"/>
        </g>
    </g>
    <g transform="matrix(5.38933,1.7645e-31,1.68493e-31,5.38933,727.357,-797.725)">
        <g>
            <g>
                <rect x="-93" y="191" width="20" height="20" style="fill:rgb(255,254,254);"/>
                <path d="M-73,211L-93,211L-93,191L-73,191L-73,211ZM-92.258,191.742L-92.258,210.258L-73.742,210.258L-73.742,191.742L-92.258,191.742Z" style="fill:black;"/>
            </g>
        </g>
    </g>
</svg>
