<?xml version="1.0" encoding="UTF-8" standalone="no"?>
<!-- Created with Inkscape (http://www.inkscape.org/) -->

<svg
   xmlns:dc="http://purl.org/dc/elements/1.1/"
   xmlns:cc="http://creativecommons.org/ns#"
   xmlns:rdf="http://www.w3.org/1999/02/22-rdf-syntax-ns#"
   xmlns:svg="http://www.w3.org/2000/svg"
   xmlns="http://www.w3.org/2000/svg"
   xmlns:sodipodi="http://sodipodi.sourceforge.net/DTD/sodipodi-0.dtd"
   xmlns:inkscape="http://www.inkscape.org/namespaces/inkscape"
   width="36.666668"
   height="40"
   id="svg6701"
   version="1.1"
   inkscape:version="0.48.3.1 r9886"
   sodipodi:docname="blog.svg"
   inkscape:export-filename="/home/henning/workspace/mafiasi/mafiasi/dashboard/static/img/services/blog.png"
   inkscape:export-xdpi="180"
   inkscape:export-ydpi="180">
  <defs
     id="defs6703" />
  <sodipodi:namedview
     id="base"
     pagecolor="#ffffff"
     bordercolor="#666666"
     borderopacity="1.0"
     inkscape:pageopacity="0.0"
     inkscape:pageshadow="2"
     inkscape:zoom="5.8546232"
     inkscape:cx="25.844588"
     inkscape:cy="38.842472"
     inkscape:document-units="px"
     inkscape:current-layer="layer1"
     showgrid="false"
     fit-margin-top="0"
     fit-margin-left="0"
     fit-margin-right="0"
     fit-margin-bottom="0"
     inkscape:window-width="898"
     inkscape:window-height="1058"
     inkscape:window-x="0"
     inkscape:window-y="18"
     inkscape:window-maximized="0" />
  <metadata
     id="metadata6706">
    <rdf:RDF>
      <cc:Work
         rdf:about="">
        <dc:format>image/svg+xml</dc:format>
        <dc:type
           rdf:resource="http://purl.org/dc/dcmitype/StillImage" />
        <dc:title></dc:title>
      </cc:Work>
    </rdf:RDF>
  </metadata>
  <g
     inkscape:label="Layer 1"
     inkscape:groupmode="layer"
     id="layer1"
     transform="translate(-183.60666,-501.90738)">
    <g
       transform="translate(132.5872,458.53929)"
       style="font-size:40px;font-style:normal;font-variant:normal;font-weight:normal;font-stretch:normal;line-height:125%;letter-spacing:0px;word-spacing:0px;fill:#333333;fill-opacity:1;stroke:none;font-family:GLYPHICONS Halflings;-inkscape-font-specification:GLYPHICONS Halflings"
       id="text3576">
      <path
         inkscape:connector-curvature="0"
         d="m 87.686123,43.368088 0,33.333333 -3.333333,3.333333 0,-33.333333 -25,0 -3.333334,3.333333 25,0 0,33.333334 -30,0 0,-34.166667 5.833334,-5.833333 30.833333,0"
         id="path3581"
         style="fill:#333333;fill-opacity:1" />
    </g>
    <g
       style="font-size:27.71138191px;font-style:normal;font-variant:normal;font-weight:bold;font-stretch:normal;line-height:125%;letter-spacing:0px;word-spacing:0px;fill:#ffffff;fill-opacity:1;stroke:none;font-family:Liberation Sans;-inkscape-font-specification:Liberation Sans Bold"
       id="text7238">
      <path
         d="m 207.26418,528.54567 c -2e-5,0.96521 -0.19396,1.79511 -0.58183,2.48969 -0.38791,0.68557 -0.92012,1.24936 -1.59665,1.69137 -0.66755,0.43299 -1.44783,0.75322 -2.34086,0.9607 -0.89305,0.19845 -1.84022,0.29768 -2.8415,0.29768 l -9.53932,0 0,-19.06511 8.72747,0 c 1.12756,2e-5 2.12885,0.0993 3.00387,0.29768 0.884,0.18945 1.62821,0.48262 2.2326,0.87951 0.60437,0.39693 1.05991,0.89757 1.36663,1.50194 0.3157,0.59538 0.47356,1.29899 0.47358,2.11083 -2e-5,1.08249 -0.30221,1.99808 -0.90657,2.74678 -0.59538,0.7397 -1.50646,1.24035 -2.73325,1.50193 1.54251,0.18043 2.71519,0.66754 3.51804,1.46135 0.81184,0.7848 1.21777,1.82668 1.21779,3.12565 m -5.1147,-8.29448 c -1e-5,-0.85694 -0.27514,-1.46583 -0.82539,-1.82667 -0.54125,-0.36081 -1.34859,-0.54122 -2.42204,-0.54124 l -4.5464,0 0,4.7223 4.57346,0 c 1.12757,10e-6 1.94394,-0.19393 2.44911,-0.58183 0.51416,-0.3969 0.77125,-0.98775 0.77126,-1.77256 m 1.10954,7.98326 c -2e-5,-0.50514 -0.0992,-0.92911 -0.29768,-1.2719 -0.19847,-0.34278 -0.4736,-0.61791 -0.82539,-0.82539 -0.3428,-0.20747 -0.74873,-0.35631 -1.21779,-0.44652 -0.46006,-0.0902 -0.9607,-0.1353 -1.50193,-0.13531 l -5.06058,0 0,5.4665 5.20942,0 c 0.52318,0 1.0103,-0.0406 1.46134,-0.12178 0.45102,-0.0902 0.83891,-0.23904 1.16366,-0.44652 0.33375,-0.21649 0.59535,-0.50515 0.7848,-0.86598 0.18942,-0.36082 0.28413,-0.81185 0.28415,-1.3531"
         id="path7246"
         inkscape:connector-curvature="0"
         style="fill:#ffffff;fill-opacity:1" />
    </g>
  </g>
</svg>
