<?xml version="1.0" encoding="UTF-8"?>
<!DOCTYPE svg PUBLIC "-//W3C//DTD SVG 1.1//EN" "http://www.w3.org/Graphics/SVG/1.1/DTD/svg11.dtd">
<!-- Creator: CorelDRAW 2019 (64-Bit) -->
<svg xmlns="http://www.w3.org/2000/svg" xml:space="preserve" width="23.2432mm" height="29.296mm" version="1.1" style="shape-rendering:geometricPrecision; text-rendering:geometricPrecision; image-rendering:optimizeQuality; fill-rule:evenodd; clip-rule:evenodd"
viewBox="0 0 577.69 728.13"
 xmlns:xlink="http://www.w3.org/1999/xlink"
 xmlns:xodm="http://www.corel.com/coreldraw/odm/2003">
 <defs>
  <style type="text/css">
   <![CDATA[
    .fil0 {fill:black;fill-rule:nonzero}
   ]]>
  </style>
 </defs>
 <g id="Layer_x0020_1">
  <metadata id="CorelCorpID_0Corel-Layer"/>
  <path class="fil0" d="M577.69 176.98l0 499.01c0,14.7 -6.43,27.91 -16.86,37.41 -10.01,9.11 -23.72,14.74 -38.8,14.74l-466.39 0c-15.07,0 -28.79,-5.63 -38.8,-14.74 -10.42,-9.49 -16.86,-22.7 -16.86,-37.4l0 -623.85c0,-14.7 6.43,-27.91 16.86,-37.41 10.01,-9.11 23.72,-14.74 38.8,-14.74l338.74 0 0 2.85 1.89 -1.97 178.3 171.91 -4.03 4.19 7.15 0zm-124.23 94.96c-16.46,0 -29.74,13.43 -29.74,29.89 0,16.46 13.28,29.74 29.74,29.74 16.46,0 29.89,-13.28 29.89,-29.74 0,-16.46 -13.43,-29.89 -29.89,-29.89zm-46.46 76.2c-15.43,0 -27.67,11.81 -27.67,26.34l0 120.59c0,18.43 26.63,18.43 26.63,0l0 -95.29 9.47 0 0 271.67c0,8.31 7.45,15.24 16.28,15.24 8.83,0 15.54,-6.93 15.54,-15.24l0 -149.59 12.43 0 0 149.59c0,8.31 6.86,15.24 15.69,15.24 8.83,0 16.28,-6.93 16.28,-15.24l0 -271.67 9.32 0 0 95.29c0,18.43 26.63,18.43 26.63,0l0 -120.59c0,-14.53 -12.24,-26.34 -27.67,-26.34l-92.92 0 -0 0zm-118.46 -182.72c-16.46,0 -29.74,13.43 -29.74,29.89 0,16.46 13.28,29.74 29.74,29.74 16.46,0 29.89,-13.28 29.89,-29.74 0,-16.46 -13.43,-29.89 -29.89,-29.89zm-46.46 76.2c-15.43,0 -27.67,11.81 -27.67,26.34l0 120.59c0,18.43 26.63,18.43 26.63,0l0 -95.29 9.47 0 0 271.67c0,8.31 7.45,15.24 16.28,15.24 8.83,0 15.54,-6.93 15.54,-15.24l0 -149.59 12.43 0 0 149.59c0,8.31 6.86,15.24 15.69,15.24 8.83,0 16.28,-6.93 16.28,-15.24l0 -271.67 9.32 0 0 95.29c0,18.43 26.63,18.43 26.63,0l0 -120.59c0,-14.53 -12.24,-26.34 -27.67,-26.34l-92.92 0 -0 0zm-118.46 -182.71c-16.46,0 -29.74,13.43 -29.74,29.89 0,16.46 13.28,29.74 29.74,29.74 16.46,0 29.89,-13.28 29.89,-29.74 0,-16.46 -13.43,-29.89 -29.89,-29.89zm-46.46 76.2c-15.43,0 -27.67,11.81 -27.67,26.34l0 120.59c0,18.43 26.63,18.43 26.63,0l0 -95.29 9.47 0 0 271.67c0,8.31 7.45,15.24 16.28,15.24 8.83,0 15.54,-6.93 15.54,-15.24l0 -149.59 12.43 0 0 149.59c0,8.31 6.86,15.24 15.69,15.24 8.83,0 16.28,-6.93 16.28,-15.24l0 -271.67 9.32 0 0 95.29c0,18.43 26.63,18.43 26.63,0l0 -120.59c0,-14.53 -12.24,-26.34 -27.67,-26.34l-92.92 0 -0 0zm329.54 -78.63l0 101.56c0,6.32 2.54,12.02 6.64,16.13 4.11,4.11 9.81,6.64 16.13,6.64l106.18 0 -128.95 -124.33zm-32.88 -23.59l-318.17 0c-6.65,0 -12.54,2.34 -16.7,6.13 -3.75,3.41 -6.06,8.06 -6.06,13.13l0 623.85c0,5.07 2.32,9.72 6.06,13.13 4.16,3.79 10.06,6.13 16.7,6.13l466.39 0c6.65,0 12.54,-2.34 16.7,-6.13 3.75,-3.41 6.06,-8.06 6.06,-13.13l0 -462.3 -115.34 0c-15.4,0 -29.31,-6.21 -39.38,-16.28 -10.06,-10.06 -16.27,-23.97 -16.27,-39.37l0 -125.15z"/>
 </g>
</svg>
