<?xml version="1.0" encoding="UTF-8"?>
<!DOCTYPE svg PUBLIC "-//W3C//DTD SVG 1.1//EN" "http://www.w3.org/Graphics/SVG/1.1/DTD/svg11.dtd">
<!-- Creator: CorelDRAW 2019 (64-Bit) -->
<svg xmlns="http://www.w3.org/2000/svg" xml:space="preserve" width="21.1108mm" height="21.4896mm" version="1.1" style="shape-rendering:geometricPrecision; text-rendering:geometricPrecision; image-rendering:optimizeQuality; fill-rule:evenodd; clip-rule:evenodd"
viewBox="0 0 1000.08 1018.03"
 xmlns:xlink="http://www.w3.org/1999/xlink"
 xmlns:xodm="http://www.corel.com/coreldraw/odm/2003">
 <defs>
  <style type="text/css">
   <![CDATA[
    .fil0 {fill:black}
   ]]>
  </style>
 </defs>
 <g id="Layer_x0020_1">
  <metadata id="CorelCorpID_0Corel-Layer"/>
  <path id="path7062-9-5" class="fil0" d="M98.07 0c-21.78,0 -39.35,17.77 -39.35,39.54 0,21.78 17.57,39.35 39.35,39.35 21.78,0 39.54,-17.57 39.54,-39.35 0,-21.78 -17.77,-39.54 -39.54,-39.54zm-61.47 100.81c-20.41,0 -36.61,15.62 -36.61,34.85l0 159.54c0,24.39 35.24,24.39 35.24,0l0 -126.07 12.53 0 0 359.41c0,11 9.86,20.16 21.54,20.16 11.68,0 20.56,-9.16 20.56,-20.16l0 -197.91 16.44 0 0 197.91c0,11 9.07,20.16 20.75,20.16 11.68,0 21.53,-9.16 21.53,-20.16l0 -359.41 12.33 0 0 126.07c0,24.39 35.24,24.39 35.24,0l0 -159.54c0,-19.22 -16.2,-34.85 -36.61,-34.85l-122.94 0zm865.4 368.51c-21.78,0 -39.35,17.77 -39.35,39.54 0,21.78 17.57,39.35 39.35,39.35 21.78,0 39.54,-17.57 39.54,-39.35 0,-21.77 -17.77,-39.54 -39.54,-39.54zm-61.47 100.81c-20.41,0 -36.61,15.62 -36.61,34.85l0 159.54c0,24.39 35.24,24.39 35.24,0l0 -126.07 12.53 0 0 359.42c0,11 9.86,20.16 21.54,20.16 11.68,0 20.56,-9.16 20.56,-20.16l0 -197.91 16.44 0 0 197.91c0,11 9.07,20.16 20.75,20.16 11.68,0 21.53,-9.16 21.53,-20.16l0 -359.42 12.33 0 0 126.07c0,24.39 35.24,24.39 35.24,0l0 -159.54c0,-19.22 -16.2,-34.85 -36.61,-34.85l-122.94 0zm-517.47 -469.89l350.61 0c18.82,0 35.95,6.96 48.41,18.19 12.84,11.57 20.78,27.66 20.78,45.51l0 311.3c0,17.84 -7.94,33.93 -20.78,45.5 -12.46,11.23 -29.59,18.19 -48.41,18.19l-350.61 0c-18.82,0 -35.94,-6.95 -48.4,-18.19 -12.84,-11.57 -20.78,-27.67 -20.78,-45.5l0.05 0 -0.01 -311.3c0,-17.87 7.94,-33.96 20.74,-45.51 12.45,-11.24 29.58,-18.19 48.4,-18.19zm350.61 26.55l-350.6 0c-12.06,0 -22.9,4.34 -30.67,11.35 -7.42,6.69 -12.03,15.84 -12.03,25.8l0.01 311.3 0.05 0c0,10 4.58,19.13 11.97,25.79 7.77,7.01 18.61,11.35 30.66,11.35l350.61 0c12.05,0 22.9,-4.34 30.67,-11.35 7.39,-6.67 11.97,-15.8 11.97,-25.79l0 -311.3c0,-10 -4.58,-19.13 -11.97,-25.8 -7.77,-7.01 -18.62,-11.35 -30.67,-11.35zm-319.87 53.38l289.14 0 0 26.32 -289.14 0 0 -26.32zm0 84.17l289.14 0 0 26.32 -289.14 0 0 -26.32zm0 84.18l289.14 0 0 26.32 -289.14 0 0 -26.32zm0 84.17l289.14 0 0 26.32 -289.14 0 0 -26.32zm-30.73 131.74l350.6 0c18.82,0 35.95,6.95 48.41,18.19 12.84,11.57 20.78,27.66 20.78,45.5l0 311.31c0,17.85 -7.94,33.93 -20.78,45.5 -12.45,11.24 -29.58,18.19 -48.41,18.19l0 -0.05 -350.61 0c-18.85,-0 -35.98,-6.94 -48.4,-18.14 -12.84,-11.57 -20.78,-27.66 -20.78,-45.51l0.05 0 -0.01 -311.29c0,-17.87 7.94,-33.97 20.74,-45.51 12.45,-11.24 29.58,-18.19 48.41,-18.19zm350.6 26.55l-350.61 0c-12.05,-0 -22.89,4.33 -30.66,11.35 -7.42,6.69 -12.03,15.84 -12.03,25.8l0.01 311.29 0.05 0c0,10 4.58,19.13 11.97,25.8 7.81,7.04 18.66,11.41 30.66,11.41l350.61 -0 0 -0.05c12.06,0 22.9,-4.34 30.67,-11.35 7.39,-6.67 11.97,-15.79 11.97,-25.79l0 -311.3c0,-10.01 -4.58,-19.13 -11.97,-25.8 -7.77,-7.01 -18.61,-11.35 -30.66,-11.35zm-319.88 53.38l289.14 0 0 26.32 -289.14 0 0 -26.32zm0 84.18l289.14 0 0 26.32 -289.14 0 0 -26.32zm0 84.17l289.14 0 0 26.32 -289.14 0 0 -26.32zm0 84.18l289.14 0 0 26.32 -289.14 0 0 -26.32z" inkscape:connector-curvature="0"/>
 </g>
</svg>
