<?xml version="1.0" encoding="UTF-8"?>
<!DOCTYPE svg PUBLIC "-//W3C//DTD SVG 1.1//EN" "http://www.w3.org/Graphics/SVG/1.1/DTD/svg11.dtd">
<!-- Creator: CorelDRAW 2019 (64-Bit) -->
<svg xmlns="http://www.w3.org/2000/svg" xml:space="preserve" width="21.111mm" height="21.4896mm" version="1.1" style="shape-rendering:geometricPrecision; text-rendering:geometricPrecision; image-rendering:optimizeQuality; fill-rule:evenodd; clip-rule:evenodd"
viewBox="0 0 4877.79 4965.27"
 xmlns:xlink="http://www.w3.org/1999/xlink"
 xmlns:xodm="http://www.corel.com/coreldraw/odm/2003">
 <defs>
  <style type="text/css">
   <![CDATA[
    .fil0 {fill:#4D4D4D}
   ]]>
  </style>
 </defs>
 <g id="Layer_x0020_1">
  <metadata id="CorelCorpID_0Corel-Layer"/>
  <path class="fil0" d="M778.19 491.68l-599.63 0c-99.54,0 -178.56,76.18 -178.56,169.96l0 778.12c0,118.95 171.88,118.95 171.88,0l0 -614.88 61.11 0 0 1752.97c0,53.65 48.08,98.34 105.06,98.34 56.98,0 100.28,-44.69 100.28,-98.34l0 -965.28 80.18 0 0 965.28c0,53.65 44.25,98.34 101.2,98.34 56.98,0 105.01,-44.69 105.01,-98.34l0 -1752.97 60.14 0 0 614.88c0,118.95 171.88,118.95 171.88,0l0 -778.12c0,-93.74 -79.02,-169.96 -178.56,-169.96zm-299.82 -106.93c106.24,0 192.84,-85.7 192.84,-191.91 0,-106.24 -86.67,-192.84 -192.84,-192.84 -106.24,0 -191.91,86.67 -191.91,192.84 0,106.24 85.7,191.91 191.91,191.91zm2807.38 104.16l-1710.04 0c-91.8,0 -175.32,33.9 -236.05,88.72 -62.43,56.33 -101.16,134.82 -101.16,221.97l-0.21 1518.31c0,86.97 38.72,165.5 101.34,221.93 60.77,54.83 144.27,88.72 236.07,88.72l1710.04 0c91.8,0 175.35,-33.94 236.11,-88.72 62.62,-56.45 101.34,-134.91 101.34,-221.93l0 -1518.31c0,-87.06 -38.72,-165.55 -101.34,-221.97 -60.77,-54.78 -144.32,-88.72 -236.11,-88.72zm-1709.97 129.48l1710.01 0c58.78,0 111.69,21.16 149.58,55.36 36.04,32.53 58.39,77.06 58.39,125.83l0 1518.31c0,48.73 -22.34,93.25 -58.39,125.79 -37.89,34.2 -90.8,55.36 -149.58,55.36l-1710.04 0c-58.78,0 -111.65,-21.16 -149.54,-55.36 -36.04,-32.49 -58.39,-77.01 -58.64,-125.79l-0.05 -1518.31c0,-48.57 22.48,-93.21 58.66,-125.83 37.89,-34.2 90.76,-55.36 149.58,-55.36zm1560.1 260.35l-1410.24 0 0 128.37 1410.24 0 0 -128.37zm0 410.54l-1410.24 0 0 128.37 1410.24 0 0 -128.37zm0 410.56l-1410.24 0 0 128.37 1410.24 0 0 -128.37zm0 410.54l-1410.24 0 0 128.37 1410.24 0 0 -128.37zm149.86 642.54l-1709.99 0c-91.84,0 -175.37,33.9 -236.09,88.72 -62.43,56.28 -101.16,134.82 -101.16,221.97l-0.21 1518.26c0,87.06 38.72,165.55 101.34,221.97 60.58,54.62 144.13,88.47 236.07,88.47l1710.04 0.25c91.84,0 175.39,-33.9 236.11,-88.72 62.62,-56.45 101.34,-134.87 101.34,-221.93l0 -1518.35c0,-87.02 -38.72,-165.5 -101.34,-221.93 -60.77,-54.83 -144.32,-88.72 -236.11,-88.72zm-1710.01 129.48l1710.1 0.05c58.78,0 111.65,21.16 149.54,55.36 36.04,32.53 58.39,77.01 58.39,125.83l0 1518.31c0,48.78 -22.34,93.25 -58.39,125.79 -37.89,34.2 -90.76,55.36 -149.58,55.61l-1710.04 0c-58.53,0 -111.44,-21.33 -149.54,-55.66 -36.04,-32.53 -58.39,-77.06 -58.64,-125.83l-0.05 -1518.26c0,-48.57 22.48,-93.21 58.66,-125.83 37.89,-34.24 90.76,-55.36 149.54,-55.36zm1560.1 260.35l-1410.24 0 0 128.37 1410.24 0 0 -128.37zm0 410.58l-1410.24 0 0 128.37 1410.24 0 0 -128.37zm0 410.51l-1410.24 0 0 128.37 1410.24 0 0 -128.37zm0 410.58l-1410.24 0 0 128.37 1410.24 0 0 -128.37zm1018.19 -1260.52l0 1753.01c0,53.65 48.08,98.34 105.06,98.34 56.98,0 100.28,-44.69 100.28,-98.34l0 -965.28 80.18 0 0 965.28c0,53.65 44.25,98.34 101.2,98.34 56.98,0 105.01,-44.69 105.01,-98.34l0 -1753.01 60.14 0 0 614.88c0,118.95 171.88,118.95 171.88,0l0 -778.12c0,-93.74 -79.02,-169.96 -178.56,-169.96l-599.63 0c-99.54,0 -178.56,76.18 -178.56,169.96l0 778.12c0,118.95 171.88,118.95 171.88,0l0 -614.88 61.11 0zm53.47 -632.05c0,106.24 85.7,191.91 191.91,191.91 106.24,0 192.84,-85.7 192.84,-191.91 0,-106.17 -86.67,-192.84 -192.84,-192.84 -106.24,0 -191.91,86.67 -191.91,192.84z"/>
 </g>
</svg>
