<?xml version="1.0" encoding="UTF-8"?>
<!DOCTYPE svg PUBLIC "-//W3C//DTD SVG 1.1//EN" "http://www.w3.org/Graphics/SVG/1.1/DTD/svg11.dtd">
<!-- Creator: CorelDRAW 2019 (64-Bit) -->
<svg xmlns="http://www.w3.org/2000/svg" xml:space="preserve" width="95.6234mm" height="71.0744mm" version="1.1" style="shape-rendering:geometricPrecision; text-rendering:geometricPrecision; image-rendering:optimizeQuality; fill-rule:evenodd; clip-rule:evenodd"
viewBox="0 0 9546.77 7095.86"
 xmlns:xlink="http://www.w3.org/1999/xlink"
 xmlns:xodm="http://www.corel.com/coreldraw/odm/2003">
 <defs>
  <style type="text/css">
   <![CDATA[
    .fil0 {fill:black;fill-rule:nonzero}
   ]]>
  </style>
 </defs>
 <g id="Layer_x0020_1">
  <metadata id="CorelCorpID_0Corel-Layer"/>
  <path class="fil0" d="M873.23 4843.09c0,122.3 -42.8,226.25 -128.41,311.86 -85.61,85.62 -189.57,128.42 -311.87,128.42 -122.3,0 -225.03,-42.8 -308.2,-128.42 -83.16,-85.61 -124.75,-189.56 -124.75,-311.86 0,-122.3 41.58,-226.26 124.75,-311.87 83.16,-85.61 185.9,-128.41 308.2,-128.41 122.3,0 226.26,42.8 311.87,128.41 85.61,85.61 128.41,189.57 128.41,311.87zm3463.54 975.96c0,-122.3 -28.12,-228.7 -84.38,-319.2 -57.49,-90.5 -149.21,-162.66 -277.63,-216.48 -128.41,-53.81 -295.97,-83.16 -502.64,-88.06 -201.8,-9.78 -406.04,-17.12 -612.73,-22.01 -89.27,0 -155.32,-2.45 -199.34,-7.34 -157.77,102.73 -280.07,218.92 -365.68,348.56 -86.83,129.64 -129.64,262.94 -129.64,399.92 0,225.03 91.73,397.48 273.95,517.34 182.23,119.85 428.05,179.78 738.69,179.78 374.23,0 660.41,-72.15 859.77,-216.47 199.34,-144.31 299.63,-336.33 299.63,-576.04zm-366.9 -3015.92c0,-244.6 -74.6,-443.96 -223.8,-598.05 -149.21,-154.1 -353.44,-231.14 -612.72,-231.14 -254.38,0 -456.18,77.04 -605.38,231.14 -149.21,154.1 -223.81,353.45 -223.81,598.05 0,244.6 74.61,443.95 223.81,598.04 149.21,154.09 351,231.14 605.38,231.14 259.28,0 463.51,-77.05 612.72,-231.14 149.21,-154.1 223.8,-353.44 223.8,-598.04zm997.97 2935.2c0,195.68 -44.03,376.69 -132.08,543.01 -88.06,166.33 -215.25,310.64 -381.58,432.94 -166.33,122.3 -365.67,216.48 -598.04,282.52 -232.37,66.04 -490.42,99.06 -774.16,99.06 -484.31,0 -863.44,-94.17 -1137.39,-282.51 -273.95,-188.34 -410.93,-453.74 -410.93,-796.18 0,-200.57 56.26,-387.69 170,-561.35 113.73,-173.67 262.94,-319.21 446.39,-436.62 -105.18,-58.7 -183.45,-132.08 -236.03,-220.14 -52.59,-88.06 -79.5,-188.34 -79.5,-300.86 0,-122.3 35.47,-236.04 106.41,-341.22 70.93,-105.18 169.99,-196.9 297.19,-275.17 -181,-112.52 -316.75,-256.83 -407.26,-432.93 -90.5,-176.11 -135.76,-371.79 -135.76,-587.04 0,-190.79 31.8,-368.13 95.39,-532.01 63.6,-163.88 158.99,-308.2 286.18,-432.94 127.19,-124.75 283.74,-221.36 469.63,-289.85 185.9,-68.49 396.25,-102.73 631.07,-102.73 92.95,0 183.45,6.11 271.51,18.34 88.05,12.23 171.21,28.13 249.48,47.7l1225.45 0 0 484.31 -565.03 0c73.38,97.84 128.42,204.24 165.11,319.2 36.69,114.96 55.03,236.04 55.03,363.24 0,190.79 -31.8,368.12 -95.39,532 -63.6,163.88 -160.21,308.19 -287.4,432.93 -127.19,124.75 -284.97,221.37 -470.86,289.86 -187.11,68.49 -401.14,102.73 -640.84,102.73 -167.55,0 -302.08,-12.23 -404.81,-36.69 -69.72,53.81 -122.3,106.4 -158.99,157.76 -36.69,51.37 -55.04,101.51 -55.04,150.43 0,83.16 44.03,149.21 132.08,198.13 89.28,48.92 238.49,75.83 448.85,80.72l589.48 22.01c441.5,14.68 774.16,113.73 996.74,297.19 223.81,183.45 335.1,441.51 335.1,774.17zm836.54 -521l0 -3646.99 631.07 0 0 3646.99 -631.07 0zm733.8 -4806.4c0,112.52 -41.58,209.13 -124.75,289.85 -83.16,80.72 -181,121.08 -293.52,121.08 -117.41,0 -216.47,-39.14 -297.19,-117.41 -80.72,-78.27 -121.08,-176.11 -121.08,-293.52 0,-112.52 40.36,-209.14 121.08,-289.86 80.72,-80.72 179.78,-121.07 297.19,-121.07 117.41,0 216.48,39.14 297.2,117.41 80.72,78.27 121.07,176.11 121.07,293.52zm3008.59 4784.38c-112.52,24.46 -232.37,44.03 -359.56,58.7 -127.19,14.68 -242.15,22.01 -344.89,22.01 -185.9,0 -341.21,-20.79 -465.96,-62.38 -124.75,-41.58 -223.81,-106.4 -297.2,-194.45 -73.38,-88.06 -127.19,-200.57 -161.44,-337.55 -34.24,-136.98 -51.37,-305.75 -51.37,-506.32l0 -2120.68 -748.48 0 0 -484.31 748.48 0 0 -1196.1 623.73 -168.77 0 1364.87 1027.32 0 0 484.31 -1027.32 0 0 1966.58c0,141.87 8.57,259.28 25.69,352.23 17.12,92.95 44.03,166.33 80.72,220.14 36.69,53.81 88.06,91.72 154.1,113.73 66.04,22.01 150.42,33.03 253.16,33.03 181,0 344.89,-19.57 491.65,-58.7l51.37 513.66z"/>
 </g>
</svg>
