<?xml version="1.0" encoding="UTF-8"?>
<!DOCTYPE svg PUBLIC "-//W3C//DTD SVG 1.1//EN" "http://www.w3.org/Graphics/SVG/1.1/DTD/svg11.dtd">
<!-- Creator: CorelDRAW 2019 (64-Bit) -->
<svg xmlns="http://www.w3.org/2000/svg" xml:space="preserve" width="49.5634mm" height="44.8861mm" version="1.1" style="shape-rendering:geometricPrecision; text-rendering:geometricPrecision; image-rendering:optimizeQuality; fill-rule:evenodd; clip-rule:evenodd"
viewBox="0 0 2868.74 2598.02"
 xmlns:xlink="http://www.w3.org/1999/xlink"
 xmlns:xodm="http://www.corel.com/coreldraw/odm/2003">
 <defs>
  <style type="text/css">
   <![CDATA[
    .fil0 {fill:black}
   ]]>
  </style>
 </defs>
 <g id="Layer_x0020_1">
  <metadata id="CorelCorpID_0Corel-Layer"/>
  <path class="fil0" d="M303.77 494.02c44.31,-39.54 82.66,-73.77 158.6,-119.13l1.44 -0.85 0.89 -0.66c73.2,-53.77 196.47,-108.37 323.94,-144.87 115.22,-32.99 232.65,-50.89 317.73,-39.54l7.3 0.98 6.75 -2.49c99.89,-36.7 177.41,-55.4 237.09,-63.41 82.16,-11.02 128.22,-1.86 151.94,7.88l6.7 2.76 6.88 -0.55c31.49,-2.51 66.31,-4.7 99.04,-0.82 30.42,3.6 59.56,12.48 83,31.6l1.5 1.16c86.44,61.26 176.25,84.86 268.37,109.07 20.09,5.28 40.3,10.59 60.39,16.26 -27.55,1.56 -55.11,4.23 -82.57,6.89 -31.68,3.07 -63.23,6.12 -93.78,7.3l-4.91 0.19 -4.02 1.44c-28.33,10.1 -54.03,-9.61 -80,-29.55 -13.75,-10.55 -27.57,-21.16 -43.67,-29.86 -85.73,-71.04 -171.05,-46.88 -257.74,-22.32 -41.81,11.84 -83.99,23.79 -123.69,22.42 -80.52,-22.41 -167.41,-29.17 -251.22,-17.32 -76.9,10.88 -151.3,37.38 -216.04,81.77 -100.18,8.88 -196.97,37.76 -287.92,80.31 -104.06,48.69 -200.39,115.31 -285.31,190.3l-9.97 8.81 -0.13 195.71 1.51 4.41c10.35,30.18 -9.03,48.99 -29.64,68.98 -21.87,21.2 -44.64,43.29 -54.01,79.24l-1.59 6.1 1.01 6.09c2.4,14.5 22.28,16.61 15.11,17.8 -1.69,0.28 -23.29,-17.94 -43.13,-34.66 -8.31,-7.01 -16.39,-13.82 -23.96,-19.67 -22.3,-72.69 -0.02,-164.89 20.51,-249.76 7.04,-29.15 13.9,-57.5 18.85,-84.13 44.21,-33.86 75.71,-61.96 104.76,-87.89zm104.5 158.2c58.63,-53.83 125.46,-100.73 197.3,-136.7 67.48,-33.78 139.62,-58.01 213.77,-69.39l1.55 -0.24 2.05 -0.57c51.24,-14.36 85.12,24.91 118.91,64.07 26.23,30.4 52.43,60.77 86.97,76.54 -27.38,28.88 -53.31,59.25 -77.48,91.09 -31.71,41.76 -60.17,85.71 -84.63,131.68 -27.35,5 -68.45,-11.04 -108.92,-26.85 -27.9,-10.89 -55.55,-21.69 -82.7,-27.15 -62.72,-12.6 -113.47,1.61 -131.79,92.72l-6.23 31.02 31.43 4.16c37.16,4.91 76.96,6.63 117.94,8.38 50.36,2.16 102.6,4.4 152.02,13.05 -8.89,48.38 -2.94,94.88 14.39,137.33 21.19,51.89 59.37,97.17 108.06,131.86 13.35,50.35 11.7,107.52 -2.38,161.86 -14.52,55.99 -42.13,108.52 -80.05,147.07 -51.76,19.84 -106.02,16.77 -159.14,2.49 -57.84,-15.55 -114.63,-44.31 -165.94,-72.17l-4.26 -2.32 -4.21 -0.82c-101.33,-19.79 -121.15,-102.77 -141.57,-188.26 -7.71,-32.28 -15.51,-64.89 -27.08,-95.65l-1.86 -4.95 -3.6 -4.1c-15.72,-17.94 -27.62,-38.13 -35.2,-58.93 -9.07,-24.91 -11.91,-50.49 -7.63,-73.84 3.77,-20.57 13.2,-39.58 28.89,-54.86 -0.79,41.91 5.26,83.68 20.68,121.35 19.94,48.71 55.02,90.11 110.3,115.92l4.64 2.17 5 0.5c29.95,3.02 65.41,37.61 99.46,70.84 13.76,13.42 27.31,26.65 40.96,38.29 51.11,43.62 100.68,65.27 150.78,6.57l8.14 -9.54 -1.06 -12.29c-10.22,-118.26 -101.15,-148.3 -193.79,-178.91 -55.5,-18.33 -111.74,-36.93 -141.02,-76.62 -14.97,-57.04 -13.03,-123.68 6.35,-183.51 17.5,-54.01 49.23,-102.02 95.5,-131.24 60.36,-29.74 131.23,-24.48 202.33,-19.19 52.38,3.9 104.9,7.8 157.25,-0.98l16.25 -2.73 6.28 -15.15c28.74,-69.35 12.99,-105.53 -26.31,-121.82 -48.6,-20.14 -135.95,7.88 -201.41,28.87 -17.98,5.77 -34.16,10.96 -46.19,14.1 -63.09,-1.22 -124.19,17.19 -174.25,51.35 -49.06,33.47 -87.6,82.01 -107.26,142 -4.59,7.83 -8.37,13.79 -11.44,18.11 -1.21,-5.74 -2.04,-12.59 -2.49,-20.18 -2.47,-42.16 6.73,-97.81 28.16,-111.05l2.63 -1.63 1.89 -1.74zm657.32 599.97c5.1,-71.67 -27.03,-127.13 -59,-182.31 -30.18,-52.1 -60.21,-103.93 -47.79,-164.57l0.35 -2.09c10.02,-75.42 52.27,-137.66 107.96,-189.37 56.67,-52.63 127.18,-94.51 192.88,-128.48 75.68,-12.37 134.21,-52.83 192.23,-92.93 54.77,-37.85 109.05,-75.37 173.35,-82.2 85.69,-1.73 172.04,-2.81 258.02,-2.49 84.61,0.3 169.44,1.96 253.77,5.66 45.87,16.01 70.38,44.91 82.68,79.74l-7.48 -6.78c-11.21,-10.16 -30.04,-20.39 -52.53,-28.47 -29.68,-10.66 -67.47,-18.35 -103.21,-17.6 -39.4,0.84 -77.1,11.82 -102.26,39.56l-2.66 3.06c-33.24,-20.16 -73.95,-40.76 -117.5,-53.55 -58.93,-17.32 -122.86,-20.51 -181.45,9.39l-0.93 0.47 -18.23 12.38c-109.34,74.31 -219,148.83 -336.87,208.33l-5.52 2.8 -3.88 4.64c-114.8,137.37 -31.9,311.51 30.44,442.48l0.04 -0.02 0.71 1.49 1.16 2.09c31.83,55.25 36.55,112.63 24.43,167.92 -15.43,70.38 -57.98,138.02 -107.4,194.41l-0.96 0.95 -49.28 69.16c-42.15,10 -95.57,-13.48 -143.22,-34.43 -7.62,-3.35 -15.11,-6.64 -24.94,-10.75 -11.5,-13.32 3.59,-49.79 20.01,-89.45 21.5,-51.94 44.61,-107.78 27.08,-159.04zm277.98 292.69c21.65,-18.15 43.5,-36.48 52.84,-59.11 100.83,-115.8 49.81,-265.84 8.02,-388.71l-5.83 -17.18 -0.75 -1.59c-26.79,-56.61 -48.72,-118.26 -54.89,-179.23 -5.63,-55.7 1.93,-111.27 31.32,-162.27 47.32,-17.28 93.23,-38.75 137.44,-63.6 49.82,-28 97.97,-60.59 143.95,-96.53l2.36 -1.83 1.48 -1.64c27.14,-30.17 64.27,-43.8 101.14,-43.61 17.86,0.09 35.71,3.41 52.38,9.67 16.31,6.12 31.49,15.15 44.43,26.79 24.23,21.8 40.15,53.01 39.94,91.54l-0.05 9.83 5.86 7.93c23.25,31.49 21,46.87 7.9,56.54 -13.41,9.9 -35.45,18.71 -58.82,28.06 -57.35,22.94 -121.43,48.59 -141.08,115.33 -25.03,68.63 -37.47,148.73 -30.76,226.16 6.02,69.51 27.49,137.26 69.07,193.43l2.37 3.21 2.97 2.37c69.14,55.2 153.87,63.99 239.22,72.85 54.66,5.66 109.62,11.37 157.36,30.18l3.55 1.41 3.65 0.45c22.68,2.84 42.08,9.82 58.3,19.92 26.23,16.32 44.77,41.2 55.84,70.1 11.54,30.13 15.04,64.61 10.78,98.68 -3.84,30.69 -13.98,60.8 -30.19,86.86l-1.42 2.27 -1.14 3.07c-17.36,46.71 -55.23,88.73 -100.57,116.22 -24.67,14.96 -51.43,25.47 -78.09,29.9 -25.6,4.25 -50.95,2.85 -73.95,-5.69 -24.29,-9.02 -46.59,-26.3 -64.58,-53.67 -7.47,-52.27 -63.87,-94.21 -119.58,-112.37 -22.73,-7.41 -45.84,-11.13 -65.71,-10.18 -25.15,1.22 -46.31,9.88 -58.93,27.61 -13.71,19.24 -15.46,45.69 1.33,79.97l2.11 4.3 3.12 3.25c16.33,17 33.07,36.72 50.15,56.86 74.09,87.32 154.2,181.73 285.14,164.53l1.79 -0.24 0.99 -0.23c70.16,-16.28 132.62,-52.73 186.02,-100.36 60.32,-53.79 109.29,-122.09 144.74,-191.47 2.29,-3.18 3.99,-5.61 5.12,-7.34 35.39,-54.12 45.55,-118.3 33.88,-178.28 -11.66,-59.91 -45.1,-115.82 -96.9,-153.5 -3.29,-2.39 -6.57,-4.66 -9.81,-6.78l-0.93 -0.58c-88.79,-53.46 -189.62,-73.43 -289.35,-93.18 -34.7,-6.87 -69.29,-13.73 -100.44,-21.29l-2.29 -0.56 -1.19 -0.14c-19.94,-2.36 -36.4,-8.89 -49.73,-18.53 -22.76,-16.47 -37.65,-42.61 -46.03,-73.11 -9.02,-32.85 -10.52,-70.64 -6.15,-107.61 5.74,-48.67 21.5,-94.72 43.47,-125.08l-0.06 -0.03c34.46,-45.68 83.95,-65.65 137.51,-71.41 57.27,-6.16 119.66,3.54 174.76,16.17l2.44 0.56 2.79 0.13c101.93,5.02 122.65,88.94 143.47,173.31 8.17,33.13 16.37,66.34 29.13,97.41l0.35 0.7c49.35,111.19 150.42,155.82 250.31,199.91 39,17.21 77.82,34.35 111.43,54.86l0.04 -0.06c21.76,13.72 36.06,32.78 42.8,54.08 7.13,22.5 5.94,47.77 -3.62,72.26l-1 2.56 -0.51 2.66c-3.13,16.32 -6.11,35.57 -9.12,54.89 -13.15,84.78 -26.65,171.77 -104.87,214.12l-1.51 0.93c-55.92,34.61 -97.27,83.03 -138.28,131.05 -45.63,53.43 -90.81,106.33 -151.89,131.98 -80.45,11.51 -162.05,9.93 -243.1,0.16 -83.24,-10.05 -165.51,-28.62 -245.27,-50.59l-0.7 -0.23c-85.52,-21.23 -125.11,-98.08 -164.55,-174.66 -19.41,-37.69 -38.8,-75.33 -63.96,-108.65 30.98,-41.15 49.49,-88.57 60.94,-137.56 7.17,-30.7 11.55,-61.93 14.5,-92.52 56.27,54.39 123.11,93.85 189.89,133.27 43.23,25.52 86.45,51.03 125.18,79.78l2.01 1.49 2.05 1.06c38.04,19.62 66.93,19.52 86.98,7.98 18.19,-10.47 27.57,-28.36 29.42,-49.55 1.42,-16.37 -1.99,-35.17 -9.47,-53.2 -16.06,-38.67 -52.05,-76.04 -100.32,-80.14 -97.39,-44.03 -181.69,-111.12 -265.8,-178.05 -23.19,-18.45 -46.37,-36.9 -73.64,-57.69 -32.03,-55.24 -56.11,-116.47 -71.55,-179.93 -16.06,-66.02 -22.83,-134.51 -19.51,-201.26l0.24 -5 -1.52 -4.99c-16.41,-53.62 49.79,-83.28 110.56,-110.49 21.92,-9.82 43.28,-19.38 61.09,-29.61 53.33,-30.62 83.78,-67.58 48.66,-128.75l-8.02 -13.96 -16.13 -0.9c-69.03,-3.83 -154.34,28.07 -220.91,77.98 -62.72,47.02 -110.09,110.89 -114.5,177.82l-0.19 2.83 0.3 2.51c11.45,95.16 35.96,187.01 60.43,278.75 20.59,77.21 41.18,154.36 53.35,231.39l0 0.11c7.03,43.52 6.98,86.92 0.64,129.49 -6.12,41.14 -18.22,81.52 -35.54,120.53 -31.05,15.95 -69.56,19.71 -106.29,12.02 -38.22,-8.02 -73.98,-28.49 -96.68,-60.6l-2.62 -3.72 -3.88 -2.9c-0.37,-0.28 0.01,-1.02 0.71,-1.96 6.41,-8.57 19.23,-19.31 32.12,-30.12zm529.16 599.36c33.91,7.25 67.49,14.45 97.11,25.14 6.1,92.5 65.38,144.79 125.45,197.75 44.81,39.52 90.14,79.49 105.39,137.27l-3.05 0.76 8.6 29.58c8.51,29.26 18.54,46.12 28.96,53.85 22.63,16.78 40.99,10.17 55.16,-12.3 5.45,-8.65 9.71,-21.22 12.67,-35.6l38.04 -0.35c154.77,-1.41 217.62,-112.67 279.07,-221.45 11.87,-21.02 23.7,-41.95 36.22,-61.85 41.18,-39.57 96.21,-101.23 127.61,-165.29 15.48,-31.57 25.37,-64.06 25.61,-95.53 0.26,-34 -10.43,-66.01 -36.67,-93.56 -8.93,-9.37 -19.66,-18.13 -32.38,-26.16 5.86,-7.14 13.53,-15.49 21.86,-24.55 42.4,-46.16 99.1,-107.89 80.92,-175.09 43.15,-112.57 21.87,-239.72 5.46,-337.81l-2.95 -17.6c-3.65,-70.89 -11.8,-139.73 -19.95,-208.62 -9.78,-82.71 -19.59,-165.5 -21.33,-246.9 0.72,-5.65 1.27,-10.95 1.63,-15.89 5.25,-72.06 -16.58,-138.93 -57.9,-190.33 -41.33,-51.43 -102.04,-87.16 -174.48,-96.89l-5.9 -0.74c-25.59,-27.35 -51.96,-50.81 -77.53,-73.57 -60.92,-54.2 -116.96,-104.06 -134.97,-187.81l-1.3 -6.01 -3.58 -5.02c-84.48,-118.32 -219.11,-122.47 -346.27,-126.38 -23.68,-0.72 -47.09,-1.45 -71.64,-3.15l-2.17 -0.15 -2.7 0.27c-39.96,3.94 -71.27,-25.93 -103.4,-56.58 -30.25,-28.86 -61.09,-58.27 -104.12,-71.54 -140.05,-62.81 -314.53,-19.93 -449.94,13.38l-15.15 3.72c-72.4,-0.9 -144.42,7.97 -215.49,23.6 -70.74,15.55 -140.87,37.84 -209.69,63.86 -89.67,10.95 -129.73,18.79 -184.2,29.44 -28.64,5.6 -61.31,11.99 -106.18,19.83 -66.47,2.68 -140.2,38.16 -210.85,87.18 -97.55,67.69 -190.65,161.86 -248.28,228.46l-3.76 4.35 -1.81 5.05c-29.47,82.46 -40.79,171.21 -52.06,259.66 -5.77,45.29 -11.54,90.5 -19.99,135.16l-2.79 14.75 10.34 11.02c35.97,38.33 36.13,93.45 36.31,152.22 0.08,28.32 0.17,57.38 3.56,86.1l0.2 1.68 0.27 1.22c15.71,71.92 53.51,149.33 110.19,200.56 46.11,41.69 104.21,66.36 172.77,58.31 25.3,13.45 49.56,26.93 73.98,40.49 126.97,70.56 258.02,143.38 409.35,151.6l7.37 0.4 6.91 -3.3c67.38,-32.19 130.5,-4.45 194.7,23.78 52.46,23.06 105.56,46.4 167.08,44.92l14.36 -0.35 8.62 -11.5c19.97,-26.61 33.04,-25.89 45.23,-16.74 7.9,5.93 16.98,14.79 26.45,24.03 34.28,33.44 72.69,70.9 134.17,60.72 111.58,-18.55 137.03,64.85 163.23,150.74 11.94,39.15 24.02,78.75 43.25,113.4l0.35 0.7c55.38,93.22 150.82,113.67 244.03,133.62zm849.75 -277.95c-0.44,-0.35 -0.39,-0.31 0,0zm-415.08 638.1c2.03,-39.1 -3.28,-82.79 -17.75,-98.6l-0.46 -0.58c-19.58,-20.33 -24.77,-28.3 -22.6,-29.84 12.77,-9.13 45.5,-12.87 78.69,-15.72 35.64,0.3 59.93,-7.06 73.14,-17.73 11.13,-9.01 16.65,-20.34 16.86,-33.1l0 -0.12c0.17,-11.41 -4.26,-22.28 -13.06,-31.89 -13.28,-14.49 -40.41,-27.8 -78.3,-33.22l-3.16 -0.45 -3.69 0.34c-14.13,1.28 -24.62,2.42 -35.41,3.58 -92.16,9.95 -207.56,22.4 -235.25,-72.19 44.42,-5.71 91.54,-3.25 138.82,-0.76 76.41,4.01 153.18,8.04 228.42,-19.88 58.08,-18.94 94.52,-65.04 130.6,-110.68 30.68,-38.8 61.05,-77.23 101.89,-88.88 39.24,59.98 -21.05,125.81 -75.23,184.96 -23.42,25.55 -45.89,50.08 -61.41,73.75l-2.72 4.14 -1.23 4.91c-20.39,81.58 -84.33,144.47 -142.42,201.6 -22.96,22.58 -45.07,44.33 -64.83,67.55l-10.9 12.81zm-1289.87 -2094.27c-19.17,-20.75 -36.74,-39.78 -37.29,-47.04 -0.03,-0.42 12,-0.2 46.87,-2.84l3.07 -0.23 2.85 -0.81c80.76,-22.96 164.55,-14.04 248.34,-5.11 47.18,5.02 94.38,10.05 142.95,9.76l1.16 0c10.78,-0.49 25.67,-1.51 43.67,-2.74 2.58,-0.17 5.22,-0.43 7.89,-0.75 -38.21,14.58 -77.11,27.73 -115.99,40.87 -70.45,23.81 -140.83,47.61 -208.71,80.19l-14.82 7.12c-9.45,1.07 -22.04,-3.23 -35.03,-9.74 -23.41,-11.71 -47.12,-30.82 -63.32,-44.71 -7.61,-8.77 -14.72,-16.47 -21.65,-23.97zm1184.35 126.28l26.54 -8.8c6.28,40.57 2.91,86.42 -1.21,129.49l-1.58 16.51 13.31 9.96c57.05,42.73 127.77,104.21 176.51,173.32 33.75,47.86 56.68,98.99 55.88,148.86l-0.54 33.47 33.17 -3.51c26,-2.76 44.64,-14.98 56.94,-34.05 13.46,-20.88 17.61,-49.27 14.41,-81.06 -2.83,-28.12 -11.48,-59.78 -24.34,-91.23 -32.52,-79.51 -93.78,-159.69 -158.08,-180.21 -46.88,-23.49 -49.29,-76.91 -51.74,-131.58 -0.94,-21 -1.9,-42.15 -4.64,-62.65 19.57,31.79 36.63,65.8 52.67,98.49l-0.06 0.02c31.46,72.89 90.5,105.67 147.47,137.3 52.85,29.35 103.54,57.49 114.24,120.22 -6.13,86 23.13,161.19 52.03,235.46 20.03,51.46 39.88,102.45 45.51,153.66 -5.98,37.37 -18.16,47.16 -33.03,45.01 -19.09,-2.76 -44.79,-16.11 -70.56,-29.48 -22.62,-11.74 -45.3,-23.52 -67.56,-30.52l-1.27 -0.35c-62.35,-16.44 -101.89,-57.78 -129.08,-108.84 -28.72,-53.93 -44.63,-120.17 -58.51,-180.77 -20.88,-120.62 -120.01,-142.59 -213.6,-163.33 -52.54,-11.64 -102.92,-22.8 -124.44,-52.07l0.05 -0.04c-33.56,-48.21 -27.75,-73.79 -5.65,-89.17 24.25,-16.88 65.18,-27.99 104.38,-38.62 17.2,-4.67 34.07,-9.26 52.8,-15.47zm-1907.34 738.84c2.38,10.07 4.73,20.03 7.13,29.86 -21.1,-12.75 -43.2,-32.45 -62.6,-55.97 -30.91,-37.49 -53.45,-83.64 -52.57,-125.87l0 -0.7c-0.14,-25.67 -9.84,-55.45 -18.63,-81.95 79.38,34.38 104.21,139.54 126.67,234.63zm-141.82 -265.37c3.1,-4.29 1.9,-0.06 1.55,6.49 -1.93,-2.74 -2.82,-4.72 -1.55,-6.49zm1455.8 -675.16c1.59,6.85 -0.93,2.38 -5.72,-3.92 3.19,0.4 5.19,1.63 5.72,3.92zm-495 647.86c25.58,83.85 17.97,173.21 10.52,260.8 -3.44,40.4 -6.85,80.44 -7.07,122.27l-0.08 14.25 11.22 8.97c19.8,15.82 38.83,22.06 56.69,21.05 21.63,-1.23 39.24,-12.48 53.12,-30.05 11.17,-14.15 19.8,-32.54 25.95,-52.5 14.74,-47.84 15.96,-109.3 3.99,-141.12 -8.06,-41.09 -20.3,-79.98 -32.52,-118.79 -22.13,-70.28 -44.17,-140.27 -36.93,-213.34l0.29 -2.91 -0.29 -2.89c-3.86,-38.79 -9.1,-61.56 -14.81,-72.44 -20.51,-39.11 -41.33,-35.54 -60.97,-1.33 -4.49,7.83 -8.3,20.6 -11.2,36.15 -8.86,47.51 -11.65,134.59 2.11,171.88zm1115.28 248.76c54.25,52.21 108.61,104.53 174.26,143.13l1.51 0.89 1.39 0.62c48.17,21.58 83.51,57.64 109.91,100.58 27.48,44.7 45.44,96.86 58.08,148.36l2.85 11.62 25.64 16.29 32.27 6.31 9.27 -4.93c12.46,-6.63 22.65,-14.28 30.78,-22.76 26.27,-27.4 29.67,-59.74 18.64,-93.67 -9.08,-27.96 -28.64,-56.51 -52.47,-83.29 -40.4,-45.42 -94.54,-87.29 -127.01,-110.07l-1.97 -1.38 -2.21 -1.05c-63.24,-30.25 -113.29,-75.75 -156.15,-128.55 -43.45,-53.53 -79.76,-114.79 -114.81,-175.57 -19.86,-56.68 -99.25,-106.22 -167.57,-121.19 -21.58,-4.72 -42.68,-6.24 -61.24,-3.74 -22.22,3 -41.06,11.71 -53.98,27.3 -18.44,22.24 -22.75,55.14 -4.31,100.62l5.69 14.05 14.86 3.59c102.89,24.94 179.6,98.77 256.56,172.83z"/>
 </g>
</svg>
