<?xml version="1.0" encoding="UTF-8" standalone="no"?>
<!-- Created with Inkscape (http://www.inkscape.org/) -->

<svg
   xmlns:dc="http://purl.org/dc/elements/1.1/"
   xmlns:cc="http://creativecommons.org/ns#"
   xmlns:rdf="http://www.w3.org/1999/02/22-rdf-syntax-ns#"
   xmlns:svg="http://www.w3.org/2000/svg"
   xmlns="http://www.w3.org/2000/svg"
   xmlns:sodipodi="http://sodipodi.sourceforge.net/DTD/sodipodi-0.dtd"
   xmlns:inkscape="http://www.inkscape.org/namespaces/inkscape"
   height="305.72571"
   id="svg4829"
   inkscape:version="0.48.3.1 r9886"
   sodipodi:docname="gprot.svg"
   sodipodi:version="0.32"
   width="337.55515"
   inkscape:output_extension="org.inkscape.output.svg.inkscape"
   version="1.0"
   inkscape:export-filename="/home/henning/workspace/mafiasi/mafiasi/dashboard/static/img/services/gprot.png"
   inkscape:export-xdpi="21.312359"
   inkscape:export-ydpi="21.312359">
  <defs
     id="defs4831">
    <inkscape:perspective
       sodipodi:type="inkscape:persp3d"
       inkscape:vp_x="0 : 526.18109 : 1"
       inkscape:vp_y="0 : 1000 : 0"
       inkscape:vp_z="744.09448 : 526.18109 : 1"
       inkscape:persp3d-origin="372.04724 : 350.78739 : 1"
       id="perspective9" />
  </defs>
  <sodipodi:namedview
     bordercolor="#666666"
     borderopacity="1.0"
     id="base"
     inkscape:current-layer="layer1"
     inkscape:cx="169.96844"
     inkscape:cy="135.61589"
     inkscape:document-units="px"
     inkscape:pageopacity="0.0"
     inkscape:pageshadow="2"
     inkscape:window-height="1058"
     inkscape:window-width="1916"
     inkscape:window-x="0"
     inkscape:window-y="18"
     inkscape:zoom="1.7397445"
     pagecolor="#ffffff"
     showgrid="false"
     inkscape:window-maximized="0"
     fit-margin-top="0"
     fit-margin-left="0"
     fit-margin-right="0"
     fit-margin-bottom="0" />
  <g
     id="layer1"
     inkscape:groupmode="layer"
     inkscape:label="Layer 1"
     transform="translate(-190.11996,-213.47455)">
    <path
       style="fill:#ffffff;stroke:none;stroke-width:1px;stroke-linecap:butt;stroke-linejoin:miter;stroke-opacity:1;fill-opacity:1"
       d="m 52.593931,169.21141 37.936606,14.94472 22.991883,-1.72439 21.26749,7.47236 13.50773,-1.14959 13.22033,9.77155 19.5431,2.29918 24.14148,39.0862 31.32644,9.19676 5.46057,18.3935 18.39351,16.09432 7.18496,13.79513 13.22033,-2.29919 42.53499,-55.18052 -9.77155,-20.69269 18.1061,-40.52319 L 321.59895,87.302825 291.13471,66.610131 267.85543,35.57109 213.53711,21.201164 182.78546,6.5438386 118.1208,15.453193 47.133359,34.134097 15.232122,65.173139 9.77155,110.58211 l 8.909354,42.82238 z"
       id="path2984"
       inkscape:connector-curvature="0"
       transform="translate(190.11996,213.47455)" />
    <path
       style="fill:#333333;fill-opacity:1;stroke:#333333;stroke-width:7;stroke-miterlimit:4;stroke-opacity:1;stroke-dasharray:none"
       d="m 453.00826,510.99298 c -2.05712,-20.35787 -28.16873,-23.51209 -27.75781,-44.44325 -13.10177,-5.74644 -32.07443,-3.74168 -40.59427,-18.08286 -7.57298,-13.64634 -5.62471,-36.56353 -27.92413,-32.85507 -12.50228,2.06973 -16.49247,-19.94461 -26.46811,-6.65505 -15.6283,0.37838 -28.03223,-15.38783 -44.02421,-7.74808 -20.82339,-1.13213 -38.74076,-13.4279 -56.45241,-22.74538 -16.54909,2.67937 -27.43512,-13.38632 -30.54313,-27.61157 -1.31018,-11.10645 1.71304,-22.2404 -5.62423,-30.05913 2.87552,-15.19698 3.19585,-31.54981 8.34792,-45.95967 11.36545,-13.13596 34.6379,-35.52772 51.84619,-35.97822 15.89461,-2.77048 18.22734,-3.86886 34.59812,-5.85438 16.15165,-6.13959 32.91856,-10.51583 49.64711,-10.22823 15.79751,-3.85704 37.02702,-9.62568 53.20443,-2.20615 10.12288,3.02113 14.88103,16.34803 25.93975,15.25918 16.27689,1.12896 35.81346,-1.31573 46.59979,13.79043 3.37453,15.69104 16.20371,21.68305 26.77346,33.40445 16.89922,1.23216 28.27469,15.61096 26.04292,32.21812 0.35602,18.1846 3.96852,36.13981 4.87875,54.23696 1.92647,11.72402 5.16574,27.8922 -0.53389,41.35495 4.29509,10.64752 -15.93763,22.56863 -12.39574,25.3757 19.43452,9.52576 1.46172,31.22185 -8.61127,40.81377 -8.72554,13.70656 -14.62083,31.93697 -34.44985,32.11791 7.96705,-9.36206 21.52055,-18.60686 25.14349,-33.1022 6.81111,-10.37994 26.50636,-23.11098 14.60073,-36.20461 -13.50906,1.47992 -17.36515,20.03087 -30.00909,24.05195 -14.79009,5.49613 -31.25742,-0.43674 -46.1285,2.87874 2.04894,19.99828 22.61893,15.62146 36.26579,14.37815 9.58226,1.37197 10.94539,6.90857 0.40825,6.71637 -8.8265,0.7564 -17.67229,2.14467 -8.87715,11.27504 3.09486,3.38312 0.27991,26.24921 -3.90291,11.86213 z m 11.95015,-53.32385 c 14.8691,-5.93823 21.47101,-22.96555 35.11673,-31.41072 12.85514,-6.96046 12.78953,-21.52129 15.19994,-34.09651 2.78929,-7.14678 0.73875,-14.86598 -6.05484,-19.1225 -14.13926,-8.62833 -33.76677,-11.61203 -41.23054,-28.43012 -5.52743,-13.45975 -3.84304,-33.07663 -23.38816,-34.03945 -13.58282,-3.11451 -30.8994,-4.7672 -40.37537,7.86306 -8.70226,12.0267 -9.96802,41.44026 9.30069,43.71509 15.06293,3.6573 31.48682,4.99818 44.91658,13.08315 11.86859,7.76251 15.28789,24.46083 6.87933,36.01983 -7.44241,14.66769 -20.22493,28.91905 -36.72091,32.74731 -16.92548,2.22345 -26.43677,-14.54422 -36.51623,-25.0312 -6.83749,-13.96257 21.67706,-6.64394 22.07847,4.44431 11.48362,18.93502 37.69799,6.83327 44.01212,-10.15192 8.53938,-13.71998 4.5223,-35.48508 -13.69846,-37.76524 -14.68161,-5.78608 -33.29697,-1.63123 -45.79816,-11.61354 -9.56391,-12.91942 -9.26735,-31.83682 -4.00412,-46.20801 4.10033,-14.55738 34.49456,-9.95634 22.10119,-26.74451 0.092,-17.59427 -22.85793,-24.78224 -34.09845,-12.28834 -10.21797,7.98648 -21.45666,14.57082 -33.3358,18.73817 -8.85821,14.0276 -4.63618,30.62687 1.96256,44.5699 4.76512,14.10447 11.55846,31.96718 -0.069,44.6927 -1.42703,5.19573 -15.42891,10.60761 -9.12288,15.32854 6.54432,9.25607 20.50058,11.62801 29.47941,6.18009 4.748,-10.19639 6.64592,-21.25178 4.83387,-32.45682 -3.1881,-20.17988 -10.91517,-39.5463 -13.37013,-59.94942 0.93407,-14.14977 21.76133,-27.63478 35.82025,-26.85429 8.17582,14.23928 -31.72835,13.01223 -26.24258,30.93556 -0.80992,16.30603 3.28554,33.45868 11.53099,47.39083 13.47779,10.23495 26.07943,21.91222 41.7901,28.86637 10.99864,0.21652 15.59489,21.2253 1.6815,14.04812 -13.92565,-10.33347 -31.34839,-16.52704 -42.0699,-30.77879 -0.65849,11.81051 -1.76985,25.91763 -10.49818,35.5745 10.46233,11.84558 12.80334,32.35133 30.57875,36.76466 19.15199,5.27599 39.44808,8.90807 59.31123,5.97919 z m 31.38875,-53.67615 c -3.13225,-12.76319 -8.94907,-25.93233 -21.75077,-31.66712 -18.42885,-10.83662 -29.97214,-32.32844 -51.67527,-37.58905 -7.42868,-18.3239 23.86019,-9.13847 27.37111,2.39129 8.52098,14.78946 17.63902,29.88923 33.60074,37.52547 8.39944,5.89073 29.63868,23.10175 15.66991,30.53316 l -1.9308,-0.37771 z M 338.04217,389.68005 c 11.23632,-12.77381 19.71898,-30.41192 10.26189,-46.82247 -6.93828,-14.57591 -16.28167,-34.03244 -4.15228,-48.54559 14.71933,-7.43099 28.32341,-16.80045 41.93882,-26.047 11.95542,-6.10099 26.57412,1.44837 34.78666,6.96919 3.79582,-10.56314 22.87254,-5.79655 27.17309,-1.89628 -11.75963,3.90226 -31.27149,5.43662 -19.61978,22.17376 8.04572,11.13949 35.77868,3.78759 39.23631,24.02117 3.37953,14.76217 7.73514,32.37652 24.63509,36.83459 9.50415,2.98874 22.24828,15.57571 24.71112,-1.46312 -1.49132,-15.46454 -12.86594,-29.32849 -11.48474,-46.06175 -2.56849,-17.51106 -24.17841,-15.4778 -31.12373,-31.57191 -7.15936,-14.59597 -15.98325,-31.4657 -36.633,-30.56559 -15.5631,-5.37374 -30.90199,-6.56964 -44.92888,-16.51055 -6.71374,-5.47457 -16.15505,-5.02317 -23.91081,-4.40419 -5.41215,-2.22333 -19.07089,-4.26987 -48.34052,6.48363 -22.11908,-2.95316 -61.01254,9.82266 -78.07655,22.35818 -15.3404,9.16259 -17.99958,14.54851 -32.4221,25.41503 -2.20973,13.25073 -9.14053,30.31276 -4.39399,43.42972 5.09746,3.57843 14.65969,14.47102 12.52589,1.58706 2.1008,-8.05081 13.05136,-9.93083 9.78259,-19.46388 0.005,-6.95235 0.01,-13.90471 0.0144,-20.85707 18.46106,-16.29967 41.55128,-29.14087 66.41062,-31.07132 15.22167,-10.852 35.60439,-12.53594 53.23868,-7.52661 14.83686,0.79317 29.75925,-12.25295 43.50167,-0.58669 5.85299,3.00587 10.41629,10.00067 17.71898,7.39493 13.98733,-0.53862 28.81836,-4.23803 42.23797,0.74755 19.41737,7.52064 3.15029,31.97487 19.29329,39.5085 13.80337,4.17563 27.05587,37.37021 13.93709,38.75813 0.25515,-15.93 -16.75507,-31.79216 -28.75924,-40.78258 1.21734,-12.73006 1.88612,-27.49506 -13.39019,-32.48618 -20.18102,-0.90337 -40.87506,-0.80587 -61.19941,-0.39165 -16.74432,1.71561 -26.82834,18.25228 -43.85038,20.73636 -16.249,8.34348 -35.2036,20.71678 -37.8144,40.34598 -3.33441,16.27936 14.12759,25.97424 12.44614,42.03808 4.33951,10.22142 -11.40488,26.00222 -3.88679,31.76016 7.32809,3.03046 16.29459,8.04632 23.8463,5.31858 2.09675,-2.94205 4.19341,-5.88419 6.29021,-8.82617 z m -13.16894,-15.37133 c 0.0797,-15.03195 4.13403,-31.01008 -0.60624,-46.31538 -2.75211,-7.42655 1.13258,-35.4122 3.23697,-14.27682 -1.41875,14.31215 5.69947,26.85139 8.29152,40.46921 2.71903,6.30164 -0.99082,28.06079 -10.92225,20.12299 z m -29.61712,16.68848 c 10.34936,-10.05276 14.99112,-27.86753 10.76632,-41.52251 -10.91466,-7.29354 -17.25878,-19.2416 -13.1636,-32.23171 -11.6585,-2.78256 -24.86765,-1.86847 -35.60347,-3.28908 4.05651,-20.18296 25.76648,2.46674 37.08494,-2.33891 6.03478,-11.72665 14.26249,-22.23772 23.82188,-31.37205 -13.83226,1.13353 -16.97516,-21.99349 -32.34034,-17.68648 -18.70797,2.87005 -36.40178,12.43686 -50.25205,25.15684 -7.66987,4.73764 -6.53958,34.86295 3.36882,17.70739 4.12182,-13.11829 16.82714,-21.13731 30.32665,-20.68806 9.14995,-2.21702 36.45169,-14.40057 28.63836,4.44586 -14.3219,2.40395 -30.11423,-3.95053 -43.50213,2.78253 -13.16091,8.20199 -17.4842,27.35322 -13.4749,41.59585 9.42613,14.04363 37.4004,8.60985 39.15421,28.89869 -9.20536,10.78619 -19.8673,-13.67561 -31.29765,-14.82761 -12.34566,-5.7648 -14.79603,-19.12919 -12.80026,-31.26486 -13.9244,5.07356 -14.01176,20.68707 -5.08438,30.87441 5.27739,14.02778 3.69342,31.96826 22.45708,35.63465 12.48898,6.77942 27.69511,14.01217 41.90052,8.12505 z M 230.4418,372.49298 c -4.19773,-13.52519 -5.38725,-33.72018 -19.54995,-39.73228 -12.00119,-8.68772 -2.60018,5.4754 -2.55824,12.92263 -0.259,12.41475 13.41428,26.50062 22.10819,26.80965 z m 96.61633,-99.17702 c 15.99019,-7.67666 33.7248,-11.27421 49.6902,-19.19811 19.01286,-4.40886 -13.24618,-1.54603 -19.1807,-1.27635 -15.67044,0.0922 -31.41431,-4.86236 -47.02044,-0.42543 -15.51905,1.17321 -6.89711,7.56844 -0.78967,14.66044 4.09493,3.52983 12.45322,10.1359 17.30061,6.23945 z"
       id="path4757"
       inkscape:connector-curvature="0"
       sodipodi:nodetypes="ccccccccccccccccccccccccccccccccccccccccccccccccccccccccccccccccccccccccccccccccccccccccccccccccccccccccccccccccccccccccccccccccccccccccccccccccccc" />
  </g>
  <metadata
     id="metadata5083">
    <rdf:RDF>
      <cc:Work>
        <dc:format>image/svg+xml</dc:format>
        <dc:type
           rdf:resource="http://purl.org/dc/dcmitype/StillImage" />
        <cc:license
           rdf:resource="http://creativecommons.org/licenses/publicdomain/" />
        <dc:publisher>
          <cc:Agent
             rdf:about="http://openclipart.org/">
            <dc:title>Open Clip Art Library</dc:title>
          </cc:Agent>
        </dc:publisher>
        <dc:title>brain 02</dc:title>
        <dc:date>2010-04-02T12:58:47</dc:date>
        <dc:description>Graphics by Jon Philips. From OCAL 0.18 release.</dc:description>
        <dc:source>http://openclipart.org/detail/35797/brain-02-by-anonymous</dc:source>
        <dc:creator>
          <cc:Agent>
            <dc:title>Anonymous</dc:title>
          </cc:Agent>
        </dc:creator>
        <dc:subject>
          <rdf:Bag>
            <rdf:li>anatomy</rdf:li>
            <rdf:li>black and white</rdf:li>
            <rdf:li>brain</rdf:li>
            <rdf:li>clip art</rdf:li>
            <rdf:li>clipart</rdf:li>
          </rdf:Bag>
        </dc:subject>
      </cc:Work>
      <cc:License
         rdf:about="http://creativecommons.org/licenses/publicdomain/">
        <cc:permits
           rdf:resource="http://creativecommons.org/ns#Reproduction" />
        <cc:permits
           rdf:resource="http://creativecommons.org/ns#Distribution" />
        <cc:permits
           rdf:resource="http://creativecommons.org/ns#DerivativeWorks" />
      </cc:License>
    </rdf:RDF>
  </metadata>
</svg>
