<?xml version="1.0" encoding="UTF-8"?>
<!DOCTYPE svg PUBLIC "-//W3C//DTD SVG 1.1//EN" "http://www.w3.org/Graphics/SVG/1.1/DTD/svg11.dtd">
<!-- Creator: CorelDRAW 2019 (64-Bit) -->
<svg xmlns="http://www.w3.org/2000/svg" xml:space="preserve" width="75.848mm" height="54.459mm" version="1.1" style="shape-rendering:geometricPrecision; text-rendering:geometricPrecision; image-rendering:optimizeQuality; fill-rule:evenodd; clip-rule:evenodd"
viewBox="0 0 7603.22 5459.13"
 xmlns:xlink="http://www.w3.org/1999/xlink"
 xmlns:xodm="http://www.corel.com/coreldraw/odm/2003">
 <defs>
  <style type="text/css">
   <![CDATA[
    .fil0 {fill:black;fill-rule:nonzero}
   ]]>
  </style>
 </defs>
 <g id="Layer_x0020_1">
  <metadata id="CorelCorpID_0Corel-Layer"/>
  <path class="fil0" d="M200.49 5245.25l2057.47 0 0 -5044.76 -2057.47 0 0 5044.76zm6778.93 -2524.19l-273.47 0c-28.61,0 -51.82,-23.21 -51.82,-51.82l0 -2.04c0,-28.61 23.21,-51.82 51.82,-51.82l273.47 0c28.61,0 51.82,23.21 51.82,51.82l0 2.04c0,28.61 -23.21,51.82 -51.82,51.82zm-481.65 5.44l-233.81 0c-27.65,0 -50.06,-22.41 -50.06,-50.06l0 -2.24c0,-27.65 22.41,-50.06 50.06,-50.06l233.81 0c27.65,0 50.06,22.41 50.06,50.06l0 2.24c0,27.65 -22.41,50.06 -50.06,50.06zm-430.33 0l-347.77 0c-27.84,0 -50.41,-22.57 -50.41,-50.41l0 -1.52c0,-27.84 22.57,-50.41 50.41,-50.41l347.77 0c27.84,0 50.41,22.57 50.41,50.41l0 1.52c0,27.84 -22.57,50.41 -50.41,50.41zm867.01 -228.55l-248.89 0c-27.68,0 -50.12,-22.44 -50.12,-50.12l0 -2.11c0,-27.68 22.44,-50.12 50.12,-50.12l248.89 0c27.68,0 50.12,22.44 50.12,50.12l0 2.11c0,27.68 -22.44,50.12 -50.12,50.12zm-441.7 0l-342.11 0c-27.83,0 -50.4,-22.57 -50.4,-50.4l0 -1.55c0,-27.83 22.57,-50.4 50.4,-50.4l342.11 0c27.83,0 50.4,22.57 50.4,50.4l0 1.55c0,27.83 -22.57,50.4 -50.4,50.4zm-510.27 0l-248.89 0c-27.68,0 -50.12,-22.44 -50.12,-50.12l0 -2.11c0,-27.68 22.44,-50.12 50.12,-50.12l248.89 0c27.68,0 50.12,22.44 50.12,50.12l0 2.11c0,27.68 -22.44,50.12 -50.12,50.12zm310.37 -239.01l-557.07 0c-27.68,0 -50.12,-22.44 -50.12,-50.12l0 -80.52c0,-27.68 22.44,-50.12 50.12,-50.12l557.07 0c27.68,0 50.12,22.44 50.12,50.12l0 80.52c0,27.68 -22.44,50.12 -50.12,50.12zm-730.29 570.49l1605.05 0 0 -822.5 -1605.05 0 0 822.5zm1655.85 101.61l-1706.66 0c-28.05,0 -50.8,-22.76 -50.8,-50.8l0 -924.11c0,-28.05 22.76,-50.8 50.8,-50.8l1706.66 0c28.05,0 50.8,22.76 50.8,50.8l0 924.11c0,28.05 -22.76,50.8 -50.8,50.8zm-245.76 -1460.49l-187.98 0c-27.5,0 -49.8,-22.3 -49.8,-49.8l0 -2.76c0,-27.5 22.3,-49.8 49.8,-49.8l187.98 0c27.5,0 49.8,22.3 49.8,49.8l0 2.76c0,27.5 -22.3,49.8 -49.8,49.8zm-374.74 0l-333.63 0c-27.82,0 -50.38,-22.56 -50.38,-50.38l0 -1.58c0,-27.82 22.56,-50.38 50.38,-50.38l333.63 0c27.82,0 50.38,22.56 50.38,50.38l0 1.58c0,27.82 -22.56,50.38 -50.38,50.38zm-530.49 0l-347.77 0c-27.84,0 -50.41,-22.57 -50.41,-50.41l0 -1.52c0,-27.84 22.57,-50.41 50.41,-50.41l347.77 0c27.84,0 50.41,22.57 50.41,50.41l0 1.52c0,27.84 -22.57,50.41 -50.41,50.41zm867.01 -228.55l-248.89 0c-27.68,0 -50.12,-22.44 -50.12,-50.12l0 -2.11c0,-27.68 22.44,-50.12 50.12,-50.12l248.89 0c27.68,0 50.12,22.44 50.12,50.12l0 2.11c0,27.68 -22.44,50.12 -50.12,50.12zm-535.19 0l-248.89 0c-27.68,0 -50.12,-22.44 -50.12,-50.12l0 -2.11c0,-27.68 22.44,-50.12 50.12,-50.12l248.89 0c27.68,0 50.12,22.44 50.12,50.12l0 2.11c0,27.68 -22.44,50.12 -50.12,50.12zm-416.78 0l-248.89 0c-27.68,0 -50.12,-22.44 -50.12,-50.12l0 -2.11c0,-27.68 22.44,-50.12 50.12,-50.12l248.89 0c27.68,0 50.12,22.44 50.12,50.12l0 2.11c0,27.68 -22.44,50.12 -50.12,50.12zm310.37 -239.01l-557.07 0c-27.68,0 -50.12,-22.44 -50.12,-50.12l0 -80.52c0,-27.68 22.44,-50.12 50.12,-50.12l557.07 0c27.68,0 50.12,22.44 50.12,50.12l0 80.52c0,27.68 -22.44,50.12 -50.12,50.12zm-730.29 570.49l1605.05 0 0 -822.5 -1605.05 0 0 822.5zm1655.85 101.61l-1706.66 0c-28.05,0 -50.8,-22.76 -50.8,-50.8l0 -924.11c0,-28.05 22.76,-50.8 50.8,-50.8l1706.66 0c28.05,0 50.8,22.76 50.8,50.8l0 924.11c0,28.05 -22.76,50.8 -50.8,50.8zm-877.03 -1213.47l-830.3 0c-27.68,0 -50.12,-22.44 -50.12,-50.12l0 -86.78c0,-27.68 22.44,-50.12 50.12,-50.12l830.3 0c27.68,0 50.12,22.44 50.12,50.12l0 86.78c0,27.68 -22.44,50.12 -50.12,50.12zm-2680.05 30.07l-733.59 0c-27.68,0 -50.12,-22.44 -50.12,-50.12l0 -90.54c0,-27.68 22.44,-50.12 50.12,-50.12l733.59 0c27.68,0 50.12,22.44 50.12,50.12l0 90.54c0,27.68 -22.44,50.12 -50.12,50.12zm733 978.86l-187.98 0c-27.5,0 -49.8,-22.3 -49.8,-49.8l0 -2.76c0,-27.5 22.3,-49.8 49.8,-49.8l187.98 0c27.5,0 49.8,22.3 49.8,49.8l0 2.76c0,27.5 -22.3,49.8 -49.8,49.8zm-374.74 0l-333.63 0c-27.82,0 -50.38,-22.56 -50.38,-50.38l0 -1.58c0,-27.82 22.56,-50.38 50.38,-50.38l333.63 0c27.82,0 50.38,22.56 50.38,50.38l0 1.58c0,27.82 -22.56,50.38 -50.38,50.38zm-530.49 0l-347.77 0c-27.84,0 -50.41,-22.57 -50.41,-50.41l0 -1.52c0,-27.84 22.57,-50.41 50.41,-50.41l347.77 0c27.84,0 50.41,22.57 50.41,50.41l0 1.52c0,27.84 -22.57,50.41 -50.41,50.41zm867.01 -228.55l-248.89 0c-27.68,0 -50.12,-22.44 -50.12,-50.12l0 -2.11c0,-27.68 22.44,-50.12 50.12,-50.12l248.89 0c27.68,0 50.12,22.44 50.12,50.12l0 2.11c0,27.68 -22.44,50.12 -50.12,50.12zm-535.19 0l-248.89 0c-27.68,0 -50.12,-22.44 -50.12,-50.12l0 -2.11c0,-27.68 22.44,-50.12 50.12,-50.12l248.89 0c27.68,0 50.12,22.44 50.12,50.12l0 2.11c0,27.68 -22.44,50.12 -50.12,50.12zm-416.78 0l-248.89 0c-27.68,0 -50.12,-22.44 -50.12,-50.12l0 -2.11c0,-27.68 22.44,-50.12 50.12,-50.12l248.89 0c27.68,0 50.12,22.44 50.12,50.12l0 2.11c0,27.68 -22.44,50.12 -50.12,50.12zm310.37 -239.01l-557.07 0c-27.68,0 -50.12,-22.44 -50.12,-50.12l0 -80.52c0,-27.68 22.44,-50.12 50.12,-50.12l557.07 0c27.68,0 50.12,22.44 50.12,50.12l0 80.52c0,27.68 -22.44,50.12 -50.12,50.12zm-730.29 570.49l1605.05 0 0 -822.5 -1605.05 0 0 822.5zm1655.85 101.61l-1706.66 0c-28.05,0 -50.8,-22.76 -50.8,-50.8l0 -924.11c0,-28.05 22.76,-50.8 50.8,-50.8l1706.66 0c28.05,0 50.8,22.76 50.8,50.8l0 924.11c0,28.05 -22.76,50.8 -50.8,50.8zm-2822.47 2292.29l-273.47 0c-28.61,0 -51.82,-23.21 -51.82,-51.82l0 -2.04c0,-28.61 23.21,-51.82 51.82,-51.82l273.47 0c28.61,0 51.82,23.21 51.82,51.82l0 2.04c0,28.61 -23.21,51.82 -51.82,51.82zm-481.65 5.44l-233.81 0c-27.65,0 -50.06,-22.41 -50.06,-50.06l0 -2.24c0,-27.65 22.41,-50.06 50.06,-50.06l233.81 0c27.65,0 50.06,22.41 50.06,50.06l0 2.24c0,27.65 -22.41,50.06 -50.06,50.06zm-430.33 0l-347.77 0c-27.84,0 -50.41,-22.57 -50.41,-50.41l0 -1.52c0,-27.84 22.57,-50.41 50.41,-50.41l347.77 0c27.84,0 50.41,22.57 50.41,50.41l0 1.52c0,27.84 -22.57,50.41 -50.41,50.41zm867.01 -228.55l-248.89 0c-27.68,0 -50.12,-22.44 -50.12,-50.12l0 -2.11c0,-27.68 22.44,-50.12 50.12,-50.12l248.89 0c27.68,0 50.12,22.44 50.12,50.12l0 2.11c0,27.68 -22.44,50.12 -50.12,50.12zm-441.7 0l-342.11 0c-27.83,0 -50.4,-22.57 -50.4,-50.4l0 -1.55c0,-27.83 22.57,-50.4 50.4,-50.4l342.11 0c27.83,0 50.4,22.57 50.4,50.4l0 1.55c0,27.83 -22.57,50.4 -50.4,50.4zm-510.27 0l-248.89 0c-27.68,0 -50.12,-22.44 -50.12,-50.12l0 -2.11c0,-27.68 22.44,-50.12 50.12,-50.12l248.89 0c27.68,0 50.12,22.44 50.12,50.12l0 2.11c0,27.68 -22.44,50.12 -50.12,50.12zm310.37 -239.01l-557.07 0c-27.68,0 -50.12,-22.44 -50.12,-50.12l0 -80.52c0,-27.68 22.44,-50.12 50.12,-50.12l557.07 0c27.68,0 50.12,22.44 50.12,50.12l0 80.52c0,27.68 -22.44,50.12 -50.12,50.12zm-730.29 570.49l1605.05 0 0 -822.5 -1605.05 0 0 822.5zm1655.85 101.61l-1706.66 0c-28.05,0 -50.8,-22.76 -50.8,-50.8l0 -924.11c0,-28.05 22.76,-50.8 50.8,-50.8l1706.66 0c28.05,0 50.8,22.76 50.8,50.8l0 924.11c0,28.05 -22.76,50.8 -50.8,50.8zm-245.76 -1663.03l-187.98 0c-27.5,0 -49.8,-22.3 -49.8,-49.8l0 -2.76c0,-27.5 22.3,-49.8 49.8,-49.8l187.98 0c27.5,0 49.8,22.3 49.8,49.8l0 2.76c0,27.5 -22.3,49.8 -49.8,49.8zm-374.74 0l-333.63 0c-27.82,0 -50.38,-22.56 -50.38,-50.38l0 -1.58c0,-27.82 22.56,-50.38 50.38,-50.38l333.63 0c27.82,0 50.38,22.56 50.38,50.38l0 1.58c0,27.82 -22.56,50.38 -50.38,50.38zm-530.49 0l-347.77 0c-27.84,0 -50.41,-22.57 -50.41,-50.41l0 -1.52c0,-27.84 22.57,-50.41 50.41,-50.41l347.77 0c27.84,0 50.41,22.57 50.41,50.41l0 1.52c0,27.84 -22.57,50.41 -50.41,50.41zm867.01 195.8l-248.89 0c-27.68,0 -50.12,-22.44 -50.12,-50.12l0 -2.11c0,-27.68 22.44,-50.12 50.12,-50.12l248.89 0c27.68,0 50.12,22.44 50.12,50.12l0 2.11c0,27.68 -22.44,50.12 -50.12,50.12zm-535.19 0l-248.89 0c-27.68,0 -50.12,-22.44 -50.12,-50.12l0 -2.11c0,-27.68 22.44,-50.12 50.12,-50.12l248.89 0c27.68,0 50.12,22.44 50.12,50.12l0 2.11c0,27.68 -22.44,50.12 -50.12,50.12zm-416.78 0l-248.89 0c-27.68,0 -50.12,-22.44 -50.12,-50.12l0 -2.11c0,-27.68 22.44,-50.12 50.12,-50.12l248.89 0c27.68,0 50.12,22.44 50.12,50.12l0 2.11c0,27.68 -22.44,50.12 -50.12,50.12zm128.62 -445.41l-381.1 0c-27.68,0 -50.12,-22.44 -50.12,-50.12l0 -67c0,-27.68 22.44,-50.12 50.12,-50.12l381.1 0c27.68,0 50.12,22.44 50.12,50.12l0 67c0,27.68 -22.44,50.12 -50.12,50.12zm-548.54 564.71l1605.05 0 0 -822.5 -1605.05 0 0 822.5zm1655.85 101.61l-1706.66 0c-28.05,0 -50.8,-22.76 -50.8,-50.8l0 -924.11c0,-28.05 22.76,-50.8 50.8,-50.8l1706.66 0c28.05,0 50.8,22.76 50.8,50.8l0 924.11c0,28.05 -22.76,50.8 -50.8,50.8zm-245.76 -1450.86l-187.98 0c-27.5,0 -49.8,-22.3 -49.8,-49.8l0 -2.76c0,-27.5 22.3,-49.8 49.8,-49.8l187.98 0c27.5,0 49.8,22.3 49.8,49.8l0 2.76c0,27.5 -22.3,49.8 -49.8,49.8zm-374.74 0l-333.63 0c-27.82,0 -50.38,-22.56 -50.38,-50.38l0 -1.58c0,-27.82 22.56,-50.38 50.38,-50.38l333.63 0c27.82,0 50.38,22.56 50.38,50.38l0 1.58c0,27.82 -22.56,50.38 -50.38,50.38zm-530.49 0l-347.77 0c-27.84,0 -50.41,-22.57 -50.41,-50.41l0 -1.52c0,-27.84 22.57,-50.41 50.41,-50.41l347.77 0c27.84,0 50.41,22.57 50.41,50.41l0 1.52c0,27.84 -22.57,50.41 -50.41,50.41zm867.01 -228.55l-248.89 0c-27.68,0 -50.12,-22.44 -50.12,-50.12l0 -2.11c0,-27.68 22.44,-50.12 50.12,-50.12l248.89 0c27.68,0 50.12,22.44 50.12,50.12l0 2.11c0,27.68 -22.44,50.12 -50.12,50.12zm-535.19 0l-248.89 0c-27.68,0 -50.12,-22.44 -50.12,-50.12l0 -2.11c0,-27.68 22.44,-50.12 50.12,-50.12l248.89 0c27.68,0 50.12,22.44 50.12,50.12l0 2.11c0,27.68 -22.44,50.12 -50.12,50.12zm-416.78 0l-248.89 0c-27.68,0 -50.12,-22.44 -50.12,-50.12l0 -2.11c0,-27.68 22.44,-50.12 50.12,-50.12l248.89 0c27.68,0 50.12,22.44 50.12,50.12l0 2.11c0,27.68 -22.44,50.12 -50.12,50.12zm310.37 -239.01l-557.07 0c-27.68,0 -50.12,-22.44 -50.12,-50.12l0 -80.52c0,-27.68 22.44,-50.12 50.12,-50.12l557.07 0c27.68,0 50.12,22.44 50.12,50.12l0 80.52c0,27.68 -22.44,50.12 -50.12,50.12zm-730.29 570.49l1605.05 0 0 -822.5 -1605.05 0 0 822.5zm1655.85 101.61l-1706.66 0c-28.05,0 -50.8,-22.76 -50.8,-50.8l0 -924.11c0,-28.05 22.76,-50.8 50.8,-50.8l1706.66 0c28.05,0 50.8,22.76 50.8,50.8l0 924.11c0,28.05 -22.76,50.8 -50.8,50.8zm-679.3 -1209.65l-1018.28 0c-27.68,0 -50.12,-22.44 -50.12,-50.12l0 -80.52c0,-27.68 22.44,-50.12 50.12,-50.12l1018.28 0c27.68,0 50.12,22.44 50.12,50.12l0 80.52c0,27.68 -22.44,50.12 -50.12,50.12zm3967.96 4770.18l2057.47 0 0 -5044.76 -2057.47 0 0 5044.76zm2157.71 200.49l-2257.95 0c-55.35,0 -100.24,-44.89 -100.24,-100.24l0 -5245.25c0,-55.35 44.89,-100.24 100.24,-100.24l2257.95 0c55.35,0 100.24,44.89 100.24,100.24l0 5245.25c0,55.35 -44.89,100.24 -100.24,100.24zm-4730.1 -187.09l2057.47 0 0 -5044.76 -2057.47 0 0 5044.76zm2157.71 200.49l-2257.95 0c-55.35,0 -100.24,-44.89 -100.24,-100.24l0 -5245.25c0,-55.35 44.89,-100.24 100.24,-100.24l2257.95 0c55.35,0 100.24,44.89 100.24,100.24l0 5245.25c0,55.35 -44.89,100.24 -100.24,100.24zm-2572.39 -13.39l-2257.95 0c-55.35,0 -100.24,-44.89 -100.24,-100.24l0 -5245.25c0,-55.35 44.89,-100.24 100.24,-100.24l2257.95 0c55.35,0 100.24,44.89 100.24,100.24l0 5245.25c0,55.35 -44.89,100.24 -100.24,100.24z"/>
 </g>
</svg>
