<?xml version="1.0" encoding="UTF-8"?>
<!DOCTYPE svg PUBLIC "-//W3C//DTD SVG 1.1//EN" "http://www.w3.org/Graphics/SVG/1.1/DTD/svg11.dtd">
<!-- Creator: CorelDRAW 2019 (64-Bit) -->
<svg xmlns="http://www.w3.org/2000/svg" xml:space="preserve" width="19.8012mm" height="8.4618mm" version="1.1" style="shape-rendering:geometricPrecision; text-rendering:geometricPrecision; image-rendering:optimizeQuality; fill-rule:evenodd; clip-rule:evenodd"
viewBox="0 0 427.3 182.6"
 xmlns:xlink="http://www.w3.org/1999/xlink"
 xmlns:xodm="http://www.corel.com/coreldraw/odm/2003">
 <defs>
  <style type="text/css">
   <![CDATA[
    .fil0 {fill:black}
   ]]>
  </style>
 </defs>
 <g id="Layer_x0020_1">
  <metadata id="CorelCorpID_0Corel-Layer"/>
  <path class="fil0" d="M422.5 4.18l0 174.24 -12.53 0 0 4.18 17.33 0 0 -182.6 -17.33 0 0 4.18 12.53 0zm-87.34 55.24l21.38 30.86 -23.39 34.26 20 0 13.59 -20.53 13.58 20.53 20.38 0 -24.03 -34.64 21.38 -30.48 -19.75 0 -11.32 17 -11.45 -17 -20.38 0zm-27.17 -10.08l17.86 0 0 -14.74 -17.86 0 0 14.74zm0.01 10.08l0 65.12 17.85 0 0 -65.12 -17.85 0zm-49.43 0l0 65.12 17.86 -0 0 -29.35c0,-15.94 8.28,-23.26 24.02,-20.27l0 -16.63c-9.45,-2.76 -20.72,3.84 -24.65,13.23l-0.25 0 0 -12.09 -16.97 0zm-39.5 11.96l0 38.41c0,3.28 0.55,5.92 1.64,7.94 4.71,8.83 20.93,8.14 29.31,6.8l0 -13.85c-0.84,0.17 -1.72,0.29 -2.64,0.38 -7.89,0.73 -10.44,-0.49 -10.44,-7.43l0 -32.24 13.08 0 0 -11.97 -13.08 0 0 -19.53 -17.86 0 0 19.53 -10.82 0 0 11.97 10.82 -0zm-18.73 -4.72c-9.18,-12.45 -43.38,-12.79 -53.33,2.33 -1.84,2.77 -2.89,6.25 -3.14,10.45l17.86 -0c0.34,-3.52 1.51,-6.04 3.52,-7.55 3.34,-2.51 19.61,-5.79 19.88,6.54 0.32,14.62 -43.28,-1.02 -43.28,28.34 0,23.78 32.25,23.6 44.03,11.46 0.15,2.14 0.57,4.27 1.25,6.31l18.11 0c-0.84,-1.35 -1.43,-3.36 -1.76,-6.05l-0.5 -42.32c0,-3.94 -0.88,-7.11 -2.64,-9.51zm-41.45 40.05c0,-11.1 14.04,-8.98 22.57,-11.77l2.84 -1.58c0,7.63 1.05,15.43 -6.29,19.9 -3.72,2.27 -19.12,4.36 -19.12,-6.55zm-122.69 -47.29l0 65.12 17.87 0 0 -37.79c0,-3.19 0.46,-5.77 1.38,-7.75 4.64,-9.93 20.85,-10.81 21.38,3.28l0.12 42.26 17.86 0 0 -36.28 2.2 -11.27c4.2,-7.51 19.5,-8.1 20.44,4.47l0.25 43.08 17.86 0 0 -43.58c0,-4.21 -0.59,-7.79 -1.76,-10.77 -6.02,-15.29 -30.77,-17.78 -41.63,-1.7 -6.25,-14.35 -28.98,-14.74 -38.87,-0.25l-0.25 0 0 -8.82 -16.85 0zm-31.39 119l0 -174.24 12.52 0 0 -4.18 -17.32 0 0 182.6 17.33 0 0 -4.18 -12.53 0z"/>
 </g>
</svg>
