<?xml version="1.0" encoding="UTF-8"?>
<!DOCTYPE svg PUBLIC "-//W3C//DTD SVG 1.1//EN" "http://www.w3.org/Graphics/SVG/1.1/DTD/svg11.dtd">
<!-- Creator: CorelDRAW 2019 (64-Bit) -->
<svg xmlns="http://www.w3.org/2000/svg" xml:space="preserve" width="94.4786mm" height="94.4308mm" version="1.1" style="shape-rendering:geometricPrecision; text-rendering:geometricPrecision; image-rendering:optimizeQuality; fill-rule:evenodd; clip-rule:evenodd"
viewBox="0 0 9452.94 9448.16"
 xmlns:xlink="http://www.w3.org/1999/xlink"
 xmlns:xodm="http://www.corel.com/coreldraw/odm/2003">
 <defs>
  <style type="text/css">
   <![CDATA[
    .fil0 {fill:black}
   ]]>
  </style>
 </defs>
 <g id="Layer_x0020_1">
  <metadata id="CorelCorpID_0Corel-Layer"/>
  <path class="fil0" d="M7401.23 8614.47c1255.15,-848.72 2026.29,-2241.31 2050.83,-3759.07 6.55,-405.2 -22.64,-885.67 -125.72,-1278.07l-13.18 -50.17c-179.77,-652.15 -684.6,-1590.46 -1164.94,-2073.66l-101.14 -101.74c-123.33,-121.04 -393.81,-376.94 -538.85,-438.63 -0.42,193.16 -25.16,900.71 61.59,1031.22 291.55,426.33 460.09,582.09 654.09,1100.32 607.24,1677.92 -157.75,3450.49 -1771.16,4181.23 -1705.99,729.79 -3742.72,75.91 -4623.76,-1566.01 -733.14,-1402.98 -439.56,-3158.56 813.48,-4164.92 477.34,-383.38 887.97,-496.57 1443.71,-690.27 222.88,-77.69 457.02,-420.72 639.53,-616.93 58.14,-62.5 90.03,-97.52 84.01,-184.64 -973.94,-41.45 -2112.01,332.34 -2896.83,908.61 -2736.95,2009.64 -2501.21,6283.5 478.15,7923.21l56.18 30.92 57.49 31.05c1082.49,573.64 2398.6,716.95 3569.2,347.76 469.24,-147.99 917.34,-357.92 1327.31,-630.2zm-1179.1 -8142.4c-122.4,-99.82 -222.29,33.13 -303.9,133.84 -554.18,683.81 -1115.79,1373.97 -1664.41,2061.34 -425.15,532.67 -761.39,1063.14 -539.49,1770.78 230.69,735.69 1299.03,1108.64 1976.26,681.04 629.51,-397.45 686.17,-1102.05 655.77,-1771.33 -36.48,-803.3 -24.82,-1619.77 -65.5,-2419.74 -4.14,-81.53 -9.94,-161.81 -16.44,-243.16l-3.44 -37.08c-6.89,-70.87 -8.02,-111.84 -38.85,-175.68z"/>
 </g>
</svg>
