<?xml version="1.0" encoding="UTF-8" standalone="no"?>
<!-- Created with Inkscape (http://www.inkscape.org/) -->

<svg
   width="99.641701mm"
   height="100.0001mm"
   viewBox="0 0 99.641701 100.0001"
   version="1.1"
   id="svg1"
   xml:space="preserve"
   xmlns="http://www.w3.org/2000/svg"
   xmlns:svg="http://www.w3.org/2000/svg"><defs
     id="defs1" /><g
     id="layer1"
     transform="translate(-0.17914865,4.7199487e-5)"><path
       style="fill:#000000;stroke-width:0.567005"
       d="m 42.549672,99.899838 c -7.966301,-1.07404 -8.756314,-13.46322 -0.990969,-15.54063 5.004797,-1.33889 9.018915,1.7504 9.329583,7.18011 l 0.09251,1.61687 h -5.269872 -5.269872 l 0.08517,0.48756 c 0.314293,1.79926 1.17768,2.73077 2.804929,3.02624 1.26487,0.22967 3.129015,-0.60658 3.422257,-1.53521 0.08779,-0.278 3.872911,-0.0753 3.98367,0.21336 0.130468,0.33999 -0.652927,1.81872 -1.369186,2.58446 -1.434603,1.5337 -4.173159,2.323852 -6.81822,1.96724 z m 4.184722,-9.82388 c 0,-2.98033 -4.506174,-3.64025 -5.908243,-0.86525 -0.133418,0.26406 -0.242578,0.65224 -0.242578,0.86261 v 0.38251 h 3.07541 3.075411 z m 29.178894,9.83746 c -2.742132,-0.34694 -4.579443,-1.57167 -5.317649,-3.54469 -0.434972,-1.16257 -0.413749,-1.26228 0.268641,-1.26228 0.317205,0 1.279214,-0.0411 2.137784,-0.0912 l 1.561044,-0.0912 0.252635,0.6192 c 0.801347,1.96411 5.525002,1.41024 4.829883,-0.56632 -0.209129,-0.59466 -0.931629,-0.90705 -3.181515,-1.37561 -4.371109,-0.91032 -5.723585,-2.0258 -5.723585,-4.72064 0,-5.78866 11.069885,-6.67673 12.849594,-1.03084 0.315776,1.00174 0.470427,0.91442 -1.826697,1.0314 l -1.949612,0.0993 -0.233765,-0.49031 c -0.824453,-1.72927 -4.316409,-1.66802 -4.464046,0.0783 -0.0862,1.01963 0.366931,1.27388 3.377075,1.89483 4.270748,0.88098 5.599184,1.96978 5.594841,4.58557 -0.0051,3.20017 -3.744194,5.425112 -8.174628,4.86458 z m 14.220623,-0.0271 c -2.573624,-0.30334 -3.958261,-1.75205 -4.067778,-4.25601 -0.143435,-3.27956 1.332836,-4.46704 6.349358,-5.10724 2.70714,-0.34548 2.92539,-0.4498 2.92539,-1.3983 0,-2.12723 -3.51529,-2.54008 -4.58759,-0.53879 -0.2532,0.47258 -0.34252,0.52839 -0.73812,0.46117 -0.24753,-0.0421 -1.14115,-0.12226 -1.985812,-0.17823 l -1.535744,-0.10176 0.09451,-0.39337 c 1.222741,-5.08905 10.536486,-5.87684 12.785326,-1.08144 l 0.39302,0.83809 v 5.77577 5.77577 l -2.06277,0.0417 -2.06278,0.0417 v -1.0901 -1.09009 l -0.39866,0.5603 c -0.97335,1.368 -2.84876,2.007072 -5.10835,1.74075 z m 3.63797,-3.2617 c 1.15613,-0.52516 1.71652,-1.55156 1.71818,-3.14701 5.7e-4,-0.65417 -0.0412,-0.78754 -0.22498,-0.717 -0.12419,0.0476 -0.78241,0.19285 -1.46269,0.32265 -2.84912,0.54363 -3.28969,0.75437 -3.57619,1.71063 -0.47684,1.59158 1.65215,2.69084 3.54568,1.83073 z m -82.442212,-4.58951 v -7.73016 h 2.02527 2.02527 l 0.0014,1.38769 0.0014,1.38768 0.446303,-0.77818 c 1.738449,-3.03117 7.259129,-2.78478 8.048217,0.3592 0.08216,0.32733 0.11327,0.30903 0.494496,-0.29094 2.050475,-3.22702 7.185012,-2.94758 8.769691,0.47727 0.302289,0.65332 0.317778,0.9461 0.359734,6.80018 l 0.04385,6.11748 -2.144125,-0.0417 -2.144125,-0.0417 -0.07501,-5.32571 c -0.09014,-6.40001 -0.161999,-6.60201 -2.347983,-6.60032 -2.076994,0.002 -2.217736,0.42201 -2.27237,6.78785 l -0.04474,5.21319 h -2.085893 -2.085893 l -0.04466,-5.29511 c -0.04053,-4.80568 -0.06968,-5.33327 -0.315343,-5.70793 -0.947753,-1.44536 -3.140194,-1.29581 -4.055299,0.27661 -0.119359,0.2051 -0.198351,1.93785 -0.249625,5.47573 l -0.07501,5.17569 -2.137785,0.0416 -2.137785,0.0416 z m 42.255638,7.62189 c -0.055,-0.055 -0.100014,-3.53172 -0.100014,-7.72603 v -7.62602 h 2.100282 2.100282 l 0.0066,1.38769 0.0066,1.38768 0.29317,-0.55512 c 1.772225,-3.35572 7.468854,-3.12972 9.108757,0.36139 0.575981,1.22617 0.628723,1.84593 0.632488,7.4322 l 0.0034,5.43822 h -2.167895 -2.167966 l -0.04485,-5.13818 c -0.05494,-6.29416 -0.265574,-6.85321 -2.58531,-6.86095 -2.530066,-0.008 -2.935248,1.03984 -2.935248,7.59402 v 4.40511 h -2.075277 c -1.141403,0 -2.120281,-0.045 -2.175291,-0.10001 z M 13.64332,74.490928 c -0.757063,-0.32965 -1.588157,-1.16096 -1.960908,-1.9614 L 11.3326,71.778328 11.3311,53.382748 11.3296,34.98717 10.391974,34.884049 C 4.366267,34.22134 0.14291401,29.532964 0.17938301,23.546895 L 0.19080301,21.67164 2.678741,11.170241 C 4.945991,1.6003443 5.201228,0.63889934 5.556177,0.33129534 c 0.538787,-0.466923 1.196182,-0.438013 1.705715,0.07501 L 7.67164,0.81886034 8.254062,10.982716 8.836483,21.146571 h 1.321601 c 1.157206,0 1.322072,-0.03266 1.325399,-0.262533 0.0021,-0.144395 0.534278,-4.748589 1.182642,-10.231544 l 1.178843,-9.96900666 0.400934,-0.344869 c 0.672807,-0.578724 1.724882,-0.34074 2.024161,0.457876 0.06645,0.177323 0.649437,4.82863196 1.295522,10.33624166 l 1.1747,10.013835 h 1.32036 1.32036 v -0.443956 c 0,-0.584571 1.023517,-18.4870387 1.106489,-19.3537347 0.115411,-1.20555496 1.264272,-1.75329096 2.12485,-1.01305196 0.535299,0.460445 5.266612,20.20923866 5.417022,22.61098266 0.378923,6.050645 -4.092226,11.275521 -10.209555,11.930627 l -0.989146,0.105928 -8.5e-4,18.322472 c -5.67e-4,12.555 -0.05138,18.5045 -0.161408,18.90075 -0.513045,1.84767 -3.211157,3.0742 -5.025106,2.28434 z m 80.968021,0.015 c -0.80182,-0.30227 -1.67633,-1.13491 -2.06209,-1.96335 l -0.35586,-0.76426 -0.002,-12.18067 -0.002,-12.18068 -4.313077,-0.046 c -5.486055,-0.0585 -6.492608,-0.44566 -7.66633,-2.94915 L 79.81274,43.574508 V 31.497953 c 0,-11.971281 0.0028,-12.091302 0.341433,-13.760999 1.549109,-7.642096 6.520624,-13.6649867 14.101538,-17.08372366 2.50225,-1.128433 4.1264,-0.747669 5.18589,1.21576996 l 0.3238,0.60008 0.0394,34.1228047 c 0.0417,36.084433 0.0571,35.260603 -0.68272,36.457653 -0.84022,1.35949 -2.95666,2.04267 -4.51183,1.4564 z M 50.409887,72.213968 C 40.17655,71.440628 31.342099,66.833548 25.062938,58.995748 l -1.281607,-1.59974 v -9.18257 -9.18258 l 1.012635,-0.40097 c 0.556949,-0.22053 1.400812,-0.62988 1.87525,-0.90966 0.495381,-0.29214 0.863274,-0.4316 0.864163,-0.32759 0.224384,26.25665 35.909545,34.26018 47.314615,10.61182 l 0.80158,-1.66208 0.618364,1.04086 c 1.472954,2.47935 4.200678,4.33988 6.958828,4.7465 0.859823,0.12675 0.85832,-0.0338 0.01497,1.59906 -6.049046,11.71207 -19.824672,19.46809 -32.831859,18.48515 z M 49.662942,57.144198 C 31.529514,54.301288 26.203399,31.107944 41.319704,20.812353 c 13.09546,-8.91921 30.986418,0.628584 30.986418,16.536395 0,12.1029 -10.904325,21.63584 -22.64318,19.79545 z M 74.428711,25.834697 C 73.06634,22.94223 69.33373,18.806033 66.23197,16.751684 c -9.537407,-6.316786 -21.888823,-5.431071 -30.424822,2.18175 -0.624277,0.556761 -1.181291,0.961815 -1.237809,0.900121 -0.0995,-0.108615 -2.536907,-10.3450387 -2.536907,-10.6542947 0,-0.786876 7.004428,-4.267703 10.761901,-5.34809 11.505218,-3.30810096 26.196762,0.230425 33.472437,8.0619907 l 0.353488,0.380492 -0.387553,1.173524 c -0.966857,2.9277 -1.288264,5.319249 -1.291796,9.612151 -0.0028,3.436316 -0.05859,3.738433 -0.512198,2.775369 z"
       id="path1" /></g></svg>
