<?xml version="1.0" standalone="no"?>
<!DOCTYPE svg PUBLIC "-//W3C//DTD SVG 20010904//EN"
 "http://www.w3.org/TR/2001/REC-SVG-20010904/DTD/svg10.dtd">
<svg version="1.0" xmlns="http://www.w3.org/2000/svg"
 width="1430.000000pt" height="1530.000000pt" viewBox="0 0 1430.000000 1530.000000"
 preserveAspectRatio="xMidYMid meet">

<g transform="translate(0.000000,1530.000000) scale(0.100000,-0.100000)"
fill="#000000" stroke="none">
<path d="M2325 15209 c-68 -14 -314 -85 -383 -111 -76 -28 -127 -60 -279 -170
-285 -207 -452 -381 -597 -624 -121 -205 -173 -358 -185 -554 -11 -160 8 -331
55 -493 19 -65 34 -124 34 -130 0 -7 15 -46 33 -88 81 -185 259 -392 419 -486
111 -66 265 -124 349 -130 68 -6 151 8 201 34 l28 13 28 -62 c16 -35 52 -99
80 -143 27 -44 64 -102 81 -129 17 -26 31 -52 31 -56 0 -4 -26 -27 -57 -51
-71 -53 -137 -120 -210 -213 -31 -39 -76 -91 -99 -116 -63 -68 -331 -431 -406
-550 -36 -58 -80 -134 -98 -170 -18 -36 -45 -83 -60 -105 -42 -63 -168 -288
-191 -341 -11 -27 -47 -93 -81 -146 -33 -54 -81 -146 -108 -205 -26 -60 -71
-160 -99 -223 -72 -159 -294 -701 -319 -780 -12 -36 -26 -99 -31 -140 -10 -72
-26 -138 -70 -283 -11 -38 -32 -162 -46 -275 -14 -114 -37 -259 -51 -322 -16
-71 -29 -172 -34 -265 -5 -82 -14 -171 -19 -197 -23 -108 -33 -348 -21 -512 6
-89 16 -181 22 -206 5 -25 11 -171 13 -325 4 -312 19 -570 40 -717 8 -54 15
-136 15 -182 0 -106 20 -220 66 -377 34 -116 50 -177 88 -339 8 -36 40 -139
70 -228 31 -90 56 -171 56 -179 0 -25 277 -679 362 -853 121 -248 218 -443
227 -455 5 -5 37 -66 71 -135 118 -234 237 -425 320 -515 26 -27 81 -95 123
-150 162 -211 216 -276 332 -399 170 -181 485 -444 638 -534 34 -20 78 -48 97
-62 47 -36 209 -130 295 -172 39 -19 104 -57 145 -85 41 -27 138 -83 215 -123
91 -48 160 -92 197 -126 135 -123 274 -198 878 -469 199 -89 573 -201 850
-254 236 -44 540 -82 910 -111 195 -16 700 -13 888 4 86 8 220 17 297 21 246
10 451 50 713 139 73 25 287 82 475 126 398 95 518 128 757 208 286 97 485
182 649 276 42 24 128 60 193 80 143 45 199 69 407 180 149 80 380 220 681
412 133 85 420 319 530 432 41 43 141 137 222 210 81 73 195 185 252 250 58
64 126 135 152 156 102 85 230 263 527 733 189 298 296 495 327 603 12 41 27
84 34 95 22 34 145 302 185 403 22 53 50 117 64 142 29 52 53 120 97 275 18
61 45 151 60 200 72 224 111 374 185 710 22 97 45 268 45 331 0 33 13 140 29
239 16 99 35 248 41 330 19 259 29 374 51 575 25 219 30 645 10 780 -6 41 -22
165 -36 275 -33 254 -52 364 -70 408 -7 18 -41 142 -74 274 -33 133 -71 270
-84 304 -14 35 -55 152 -91 259 -70 210 -101 291 -148 384 -16 32 -45 104 -64
160 -42 123 -227 496 -292 588 -26 37 -83 118 -128 180 -44 62 -102 151 -129
198 -109 192 -260 397 -422 570 -43 47 -113 130 -155 185 -114 150 -214 264
-373 425 -78 80 -205 208 -281 285 -150 151 -259 241 -395 326 -48 30 -130 88
-184 129 -93 72 -119 92 -212 156 -24 16 -94 68 -156 116 -63 48 -163 118
-223 156 -60 38 -134 87 -164 110 -48 37 -120 76 -421 232 -37 19 -78 45 -92
58 -15 14 -46 26 -85 33 -41 7 -74 21 -97 39 -52 41 -324 139 -640 230 -60 18
-150 48 -200 67 -49 20 -146 47 -215 60 -69 13 -173 35 -232 49 -59 14 -183
31 -275 39 -92 8 -188 19 -213 24 -25 6 -92 15 -150 22 -58 6 -118 18 -134 26
-23 12 -47 14 -105 8 -42 -3 -182 -8 -311 -10 -332 -5 -789 -47 -965 -89 -360
-87 -600 -151 -690 -184 -44 -16 -118 -40 -165 -52 -117 -31 -493 -171 -588
-219 -42 -21 -122 -55 -177 -76 -190 -70 -232 -91 -645 -318 -149 -82 -217
-124 -259 -161 -14 -12 -25 -16 -28 -10 -2 5 -30 50 -61 100 -66 101 -123 161
-179 189 -21 11 -40 21 -42 22 -2 1 24 58 57 125 109 217 142 392 103 539 -42
162 -131 295 -344 515 -141 146 -233 214 -382 280 -159 70 -220 85 -380 89
-82 2 -172 0 -200 -6z m455 -237 c63 -22 89 -39 161 -104 101 -90 300 -300
360 -378 59 -78 110 -192 116 -260 4 -39 -1 -82 -16 -139 -21 -86 -103 -264
-144 -315 -23 -28 -23 -28 -55 -12 -77 40 -372 49 -510 16 -112 -27 -221 -79
-301 -143 -36 -29 -93 -69 -126 -89 -66 -41 -142 -115 -198 -195 -48 -69 -121
-215 -141 -282 -24 -83 -21 -211 9 -366 9 -47 -28 -68 -124 -69 -67 -1 -89 4
-186 42 -152 59 -259 135 -314 221 -113 180 -180 353 -241 624 -23 100 -23
186 0 262 40 134 58 183 98 270 61 133 94 184 209 323 173 208 377 393 498
451 61 29 144 57 375 126 200 60 389 66 530 17z m5165 -1242 l290 -12 240 -68
c132 -38 364 -103 515 -145 290 -80 363 -111 505 -210 33 -24 89 -57 124 -75
84 -42 211 -124 330 -214 53 -40 186 -133 296 -207 204 -138 587 -419 600
-440 4 -6 69 -56 144 -112 75 -55 165 -128 201 -162 36 -34 85 -77 110 -95 78
-60 309 -282 375 -361 34 -41 115 -122 179 -180 84 -74 134 -129 177 -192 33
-48 98 -124 143 -170 97 -96 181 -202 238 -301 23 -39 67 -109 98 -156 32 -47
94 -152 140 -234 45 -82 107 -190 138 -240 62 -102 220 -409 258 -501 27 -66
68 -207 139 -480 26 -99 69 -261 96 -360 51 -186 68 -291 89 -575 82 -1115 84
-1174 30 -1515 -10 -66 -21 -152 -24 -190 -16 -196 -158 -834 -230 -1034 -15
-41 -36 -115 -47 -165 -24 -109 -81 -330 -115 -444 -27 -89 -196 -438 -337
-692 -47 -85 -104 -189 -126 -230 -60 -110 -654 -824 -759 -913 -82 -70 -480
-383 -661 -520 -84 -65 -233 -167 -330 -229 -175 -111 -589 -386 -771 -512
-98 -67 -255 -141 -810 -377 -208 -89 -248 -103 -350 -120 -140 -24 -148 -26
-330 -101 -130 -54 -159 -62 -280 -79 -74 -10 -162 -27 -196 -38 -150 -50
-405 -107 -689 -156 -44 -8 -102 -19 -130 -25 -27 -6 -165 -15 -305 -21 -140
-5 -304 -12 -365 -16 -173 -9 -639 26 -659 50 -6 8 -45 20 -86 26 -202 34
-443 109 -1020 318 -534 194 -585 217 -1040 473 -417 234 -691 414 -833 550
-49 47 -140 143 -201 214 -61 71 -135 156 -164 190 -96 110 -287 339 -368 441
-144 182 -396 555 -431 639 -19 43 -76 163 -128 265 -92 180 -206 454 -278
672 -20 58 -54 151 -76 208 -28 68 -51 155 -72 259 -67 351 -135 648 -194 852
-13 47 -59 258 -101 470 -87 436 -88 455 -60 740 10 96 21 274 26 395 5 121
14 238 19 260 6 22 15 103 21 180 12 161 23 230 50 300 30 79 39 119 66 300
34 229 45 274 97 385 25 52 66 156 92 230 46 132 144 363 250 585 69 147 149
293 317 577 136 230 145 244 311 431 95 107 237 266 317 353 188 205 416 463
562 636 64 75 149 168 190 206 76 72 102 94 326 264 73 55 140 111 149 125 9
13 50 48 92 77 42 30 85 64 96 76 11 13 52 48 90 78 39 31 90 74 115 97 25 22
81 61 125 85 44 24 105 60 135 80 60 40 256 150 268 150 4 0 43 25 86 55 43
30 95 59 115 66 20 6 64 26 98 45 35 18 118 54 185 80 68 25 150 57 184 69 33
13 89 29 123 35 34 6 111 28 169 49 59 21 127 42 152 45 25 4 106 20 180 36
74 15 160 31 190 35 91 11 340 54 350 60 5 3 182 17 392 31 211 13 424 29 473
34 104 10 293 7 700 -10z m-5661 -521 c39 -31 46 -55 56 -220 15 -228 52 -383
141 -580 36 -79 41 -99 36 -142 -5 -61 -26 -80 -77 -71 -79 15 -112 47 -174
172 -144 288 -195 717 -98 825 36 40 78 46 116 16z m-1708 -5116 c-38 -125
-42 -731 -7 -1253 46 -697 100 -1141 205 -1675 19 -93 37 -199 41 -235 10 -95
44 -296 56 -326 19 -51 0 -36 -46 37 -86 134 -152 298 -190 474 -133 613 -226
1531 -211 2073 15 533 54 831 118 899 26 27 41 30 34 6z"/>
<path d="M3926 12535 c-120 -31 -256 -126 -327 -230 -48 -71 -109 -211 -130
-301 -38 -166 -14 -345 48 -360 37 -10 50 11 92 142 l37 119 17 -32 c9 -17 63
-83 120 -145 56 -62 170 -189 252 -283 371 -423 502 -558 617 -634 33 -23 72
-41 85 -41 97 0 -203 -136 -371 -169 l-89 -17 59 -21 c167 -61 273 -69 389
-33 247 77 432 273 518 545 27 87 47 206 47 284 0 77 -28 216 -60 299 -127
328 -491 700 -800 817 -167 63 -387 89 -504 60z m264 -211 c46 -8 119 -28 163
-44 292 -107 652 -511 713 -800 18 -86 14 -210 -11 -305 -27 -106 -97 -234
-167 -305 l-63 -65 -6 37 c-8 53 -41 96 -222 290 -88 95 -255 281 -371 413
-245 279 -376 417 -423 446 -26 16 -45 20 -78 17 l-44 -5 20 51 c72 183 197
284 350 286 31 0 94 -7 139 -16z"/>
<path d="M8030 11910 c-11 -11 -37 -57 -58 -103 -21 -45 -57 -109 -79 -142
-22 -33 -55 -94 -74 -135 -18 -41 -42 -88 -52 -103 -11 -16 -42 -81 -69 -145
-27 -64 -67 -150 -89 -191 -23 -40 -51 -101 -64 -135 -45 -119 -93 -222 -143
-310 -28 -49 -59 -112 -68 -140 -9 -28 -76 -170 -148 -316 -73 -146 -160 -332
-195 -415 -35 -82 -105 -240 -156 -350 -50 -110 -100 -222 -110 -250 -9 -27
-31 -73 -47 -102 -27 -48 -47 -95 -145 -333 -19 -47 -39 -90 -44 -96 -26 -31
-199 -380 -214 -429 -11 -38 -40 -89 -87 -153 -122 -168 -258 -502 -258 -638
0 -30 -2 -32 -47 -39 -87 -13 -123 -43 -123 -104 0 -42 48 -93 114 -122 l54
-24 21 -80 c12 -44 21 -102 21 -130 0 -27 14 -142 30 -255 17 -113 30 -233 30
-267 0 -68 13 -207 35 -378 8 -60 19 -164 25 -230 5 -66 17 -167 24 -225 39
-281 46 -354 46 -460 0 -63 5 -131 10 -150 6 -20 15 -253 20 -550 8 -442 12
-533 30 -640 11 -69 24 -200 29 -290 13 -211 18 -246 48 -298 24 -43 83 -82
123 -82 58 0 147 88 180 179 23 62 184 386 222 447 57 92 547 1078 607 1220
27 66 90 204 140 307 51 104 105 222 122 263 16 41 40 96 53 122 13 26 44 94
69 152 25 58 67 152 92 210 47 105 117 284 137 350 6 19 26 85 44 146 21 69
47 131 68 161 52 76 89 156 140 304 70 205 79 325 46 567 -12 82 -11 102 3
165 21 93 24 247 9 467 -6 96 -12 370 -12 608 0 508 -28 1191 -64 1572 -14
140 -29 314 -35 385 -18 208 -31 354 -41 446 -6 47 -10 123 -10 169 0 46 -7
144 -15 219 -8 75 -18 180 -23 234 -10 109 -26 137 -74 137 -15 0 -37 -9 -48
-20z m-469 -1543 c-45 -182 -126 -437 -240 -757 -86 -240 -119 -318 -212 -500
-61 -118 -118 -222 -126 -230 -12 -13 -13 -13 -9 0 3 8 35 126 70 261 52 199
84 298 171 520 133 341 204 509 336 794 44 96 47 64 10 -88z m-396 -2083 c14
-6 14 -8 -2 -26 -26 -29 -22 -97 10 -203 50 -161 70 -311 63 -465 -4 -74 -9
-156 -12 -183 -8 -61 1 -93 33 -123 56 -51 144 -22 178 59 66 158 33 592 -65
848 -11 30 -20 55 -20 55 0 1 19 -2 43 -7 92 -17 165 -52 347 -165 149 -93
251 -207 326 -364 20 -41 49 -102 65 -135 16 -33 33 -83 38 -110 14 -72 -9
-225 -53 -366 -32 -105 -43 -126 -111 -217 -41 -55 -94 -117 -117 -136 -24
-20 -68 -57 -98 -82 -61 -52 -214 -129 -275 -139 -22 -4 -76 -18 -120 -32 -75
-24 -89 -25 -226 -19 -216 9 -286 34 -504 179 -221 147 -344 263 -410 387 -56
105 -63 128 -80 259 -18 133 -15 160 31 293 70 202 153 338 293 481 75 77 109
102 162 117 26 8 26 7 22 -34 -4 -33 4 -68 36 -155 72 -194 82 -252 87 -466 4
-232 7 -247 45 -279 59 -50 142 -20 171 62 18 50 17 341 -1 452 -24 144 -102
378 -147 437 -13 17 -24 34 -24 36 0 2 26 10 58 16 137 28 226 36 257 25z
m-1245 -1019 c0 -52 -4 -95 -9 -95 -21 0 -107 67 -119 93 -24 49 21 95 96 96
l32 1 0 -95z m1824 -1062 c-9 -21 -29 -67 -44 -103 -16 -36 -58 -132 -95 -215
-37 -82 -94 -211 -127 -285 -32 -74 -96 -211 -142 -305 -46 -93 -98 -208 -117
-255 -18 -47 -90 -197 -159 -335 -69 -137 -155 -310 -191 -385 -36 -74 -134
-272 -219 -440 l-154 -305 -11 85 c-7 53 -11 239 -9 500 1 270 -4 488 -13 625
-8 116 -16 287 -17 380 -2 94 -7 371 -11 617 l-8 446 84 -33 c151 -61 280 -89
583 -126 221 -27 391 13 593 141 65 42 77 40 57 -7z"/>
<path d="M3107 11549 c-37 -10 -57 -27 -69 -59 -14 -35 -10 -187 6 -268 8 -37
17 -114 21 -172 3 -58 11 -136 16 -175 5 -38 14 -128 20 -198 13 -171 42 -395
85 -657 19 -118 38 -264 40 -325 3 -60 10 -123 16 -138 10 -26 53 -57 78 -57
28 0 77 33 95 63 31 50 24 204 -20 466 -35 214 -36 230 -2 231 38 1 314 237
344 293 l14 29 137 -134 c75 -73 166 -158 202 -187 73 -61 170 -111 215 -111
48 0 93 33 100 74 12 61 -23 111 -174 249 -207 190 -566 558 -761 781 -96 110
-188 215 -205 233 -37 42 -118 74 -158 62z m228 -524 c28 -32 106 -117 173
-188 l124 -129 -29 -15 c-15 -8 -66 -51 -113 -97 -76 -74 -140 -126 -153 -126
-7 0 -15 64 -32 250 -8 91 -19 206 -25 255 -12 110 -12 132 -2 120 4 -6 30
-37 57 -70z"/>
<path d="M11374 11484 c-19 -9 -50 -45 -82 -93 -74 -114 -180 -237 -267 -310
-75 -63 -105 -102 -105 -139 0 -11 30 -80 66 -153 60 -121 304 -652 325 -706
7 -18 -1 -15 -44 18 -56 42 -129 69 -186 69 -70 -1 -128 -22 -331 -120 -289
-140 -441 -180 -489 -129 -48 52 -36 182 34 354 77 189 157 294 213 280 53
-13 87 -42 141 -122 63 -92 83 -105 115 -74 32 33 29 147 -8 219 -59 116 -158
185 -265 185 -177 0 -292 -156 -391 -528 -27 -104 -36 -233 -21 -308 25 -115
117 -191 251 -206 149 -16 242 10 511 140 103 50 204 93 226 96 34 4 45 1 76
-27 87 -76 113 -207 67 -344 -39 -119 -106 -189 -250 -265 -113 -59 -189 -81
-283 -81 -74 0 -197 -26 -197 -42 0 -23 78 -87 120 -98 61 -17 305 -7 385 15
193 53 349 199 419 393 26 73 47 201 38 234 -8 33 6 19 34 -31 30 -56 79 -87
120 -77 29 8 230 145 324 221 131 107 286 280 332 369 41 79 19 164 -47 186
-53 17 -98 -7 -129 -68 -33 -64 -130 -186 -204 -253 -67 -61 -235 -189 -248
-189 -7 0 -141 300 -178 400 -4 11 11 24 51 45 99 51 318 287 353 380 34 90
-56 174 -137 128 -18 -10 -56 -51 -86 -91 -30 -40 -78 -98 -108 -129 -52 -54
-157 -138 -164 -131 -2 1 -46 95 -99 207 l-96 205 88 90 c127 131 243 289 263
359 12 41 -5 90 -38 117 -30 24 -57 25 -99 4z"/>
<path d="M4000 7480 c-96 -12 -152 -57 -128 -102 12 -24 31 -23 23 1 -8 26 28
59 74 68 20 4 71 7 113 7 65 -1 87 -5 134 -30 57 -29 98 -81 88 -109 -9 -23
-82 -45 -149 -45 -109 0 -220 55 -207 102 6 24 -16 21 -32 -4 -28 -45 88 -117
203 -126 179 -12 262 62 175 158 -58 64 -171 95 -294 80z"/>
<path d="M3301 7466 c-19 -7 -44 -24 -54 -39 -17 -22 -18 -30 -8 -55 14 -34
29 -42 131 -72 93 -27 242 -37 294 -20 108 35 40 144 -117 186 -64 17 -200 17
-246 0z m244 -31 c68 -18 114 -44 134 -76 46 -75 -167 -80 -354 -9 -26 10 -28
13 -12 21 28 16 19 25 -20 21 l-38 -5 19 22 c11 12 33 25 50 30 49 15 157 12
221 -4z"/>
<path d="M4545 7443 c-98 -23 -145 -58 -145 -109 0 -25 8 -42 26 -59 27 -25
44 -32 44 -17 0 4 -12 18 -25 31 -33 31 -32 54 5 84 48 40 128 53 223 34 93
-18 201 -67 217 -97 39 -72 -150 -94 -307 -35 -76 28 -83 39 -33 50 27 6 47
21 38 30 -5 6 -111 -24 -121 -34 -16 -16 0 -28 76 -60 88 -36 193 -55 263 -46
188 23 134 155 -86 210 -66 16 -148 25 -175 18z"/>
<path d="M5158 7414 c-43 -13 -98 -61 -98 -85 0 -23 32 -68 76 -109 63 -58 71
-35 10 30 -60 65 -61 92 -3 122 51 27 203 36 290 18 127 -26 224 -100 197
-149 -38 -71 -293 -52 -384 30 l-31 28 43 -6 c59 -8 53 10 -9 26 -57 15 -75 7
-64 -29 9 -29 86 -76 165 -101 117 -37 272 -20 300 32 57 106 -118 210 -350
208 -52 0 -116 -7 -142 -15z"/>
<path d="M8618 7289 c-79 -9 -117 -26 -125 -57 -9 -35 13 -69 70 -108 78 -53
151 -76 231 -72 62 3 71 7 97 36 16 18 29 43 29 56 0 15 7 26 20 29 11 3 23
13 27 23 22 57 -183 112 -349 93z m202 -44 c38 -19 63 -52 56 -71 -4 -10 -1
-21 5 -25 9 -5 8 -14 -4 -33 -31 -46 -141 -48 -237 -4 -68 31 -133 89 -124
112 6 16 52 32 109 40 49 6 168 -6 195 -19z m101 -26 c11 -5 17 -14 14 -20 -9
-14 -19 -11 -33 11 -14 23 -10 25 19 9z"/>
<path d="M9275 7291 c-154 -40 -150 -145 7 -216 114 -52 269 -35 345 37 53 49
11 118 -97 159 -60 23 -203 34 -255 20z m252 -56 c55 -25 57 -27 39 -41 -11
-8 -26 -14 -33 -14 -7 0 -13 -5 -13 -11 0 -12 46 -8 83 6 25 10 22 -17 -6 -43
-84 -79 -282 -73 -372 13 -41 38 -43 56 -13 84 51 48 217 51 315 6z"/>
<path d="M9971 7289 c-66 -11 -138 -51 -153 -85 -36 -79 122 -151 312 -142
136 6 229 63 202 124 -14 30 -137 88 -219 104 -63 11 -66 11 -142 -1z m199
-45 c19 -8 46 -22 59 -31 23 -15 24 -16 6 -29 -29 -21 -7 -31 26 -12 26 15 31
16 36 2 24 -62 -183 -108 -322 -70 -147 39 -174 81 -83 128 75 39 200 44 278
12z"/>
<path d="M10551 7281 c-74 -26 -105 -52 -109 -89 -2 -23 3 -38 21 -55 55 -56
233 -93 326 -67 96 26 133 111 71 164 -66 55 -221 79 -309 47z m218 -35 c24
-9 55 -27 69 -41 l24 -24 -27 -13 c-24 -11 -25 -13 -10 -24 15 -11 14 -14 -11
-31 -44 -28 -190 -24 -268 8 -32 13 -65 34 -73 46 -14 20 -13 24 12 47 60 55
180 69 284 32z"/>
<path d="M11167 7279 c-38 -5 -94 -19 -125 -32 -48 -19 -57 -26 -60 -50 -3
-21 5 -37 35 -66 31 -31 51 -41 110 -55 159 -36 341 -4 388 68 23 34 8 85 -31
108 -58 34 -182 44 -317 27z m226 -28 c21 -5 45 -18 52 -28 12 -16 11 -20 -11
-31 -36 -19 -29 -24 21 -16 39 5 44 4 39 -10 -3 -8 -31 -28 -62 -43 -114 -56
-340 -39 -397 29 -14 16 -25 36 -25 43 0 41 275 81 383 56z"/>
<path d="M3599 6191 c-36 -36 -38 -83 -8 -142 31 -62 54 -166 89 -400 17 -118
38 -239 46 -270 19 -77 18 -86 -6 -64 -12 11 -96 116 -188 234 -92 119 -188
237 -213 263 -41 44 -50 48 -91 48 -53 0 -92 -31 -103 -82 -8 -35 -5 -41 308
-628 110 -206 271 -520 358 -697 136 -279 237 -466 282 -524 18 -23 53 -40 71
-33 56 21 1 271 -122 554 -25 58 -92 197 -149 309 -56 113 -101 206 -100 208
2 1 19 -2 38 -7 70 -20 133 24 155 110 16 61 6 161 -30 326 -32 143 -41 202
-29 189 6 -5 50 -66 98 -135 118 -166 312 -424 404 -535 169 -204 297 -347
322 -361 92 -47 178 36 134 130 -9 19 -89 120 -177 223 -233 273 -510 646
-730 983 -115 177 -201 294 -230 314 -38 27 -95 20 -129 -13z"/>
<path d="M2550 5090 c-158 -20 -276 -67 -387 -154 -111 -88 -197 -205 -240
-327 -35 -98 -44 -276 -19 -343 19 -49 58 -91 79 -83 13 5 52 113 77 215 12
48 19 51 39 20 8 -13 167 -224 353 -471 187 -246 382 -507 434 -579 105 -146
105 -146 12 -147 -61 -1 -78 -9 -78 -35 0 -33 55 -63 142 -77 66 -11 91 -10
179 4 117 19 179 45 265 110 140 106 246 297 290 523 22 112 25 403 5 514 -69
387 -291 647 -659 771 -155 52 -356 76 -492 59z m251 -215 c109 -16 266 -69
347 -117 74 -44 182 -146 228 -216 45 -66 88 -173 111 -274 12 -54 17 -120 17
-253 0 -153 -3 -194 -22 -270 -45 -178 -137 -323 -246 -386 -28 -16 -54 -29
-58 -29 -3 0 -59 72 -122 160 -64 89 -232 313 -373 498 -141 185 -299 394
-351 464 -84 114 -99 129 -136 140 -22 6 -43 13 -45 14 -2 2 13 25 33 52 138
189 339 259 617 217z"/>
<path d="M9763 4388 c-42 -11 -73 -52 -73 -96 0 -31 10 -44 85 -115 46 -43
109 -111 139 -151 109 -143 284 -463 334 -612 12 -34 31 -108 42 -164 19 -95
20 -106 5 -142 -45 -114 15 -252 110 -252 69 0 109 52 120 157 6 51 10 59 36
73 17 8 83 22 147 30 64 8 151 24 192 35 237 63 415 234 428 410 4 56 3 60
-32 95 -32 32 -41 36 -73 31 -49 -8 -80 -40 -97 -102 -22 -73 -53 -114 -121
-160 -79 -53 -168 -81 -312 -100 -65 -8 -134 -19 -153 -25 -19 -5 -37 -6 -40
-2 -3 4 -14 41 -24 82 -35 144 -127 342 -262 570 -83 140 -136 213 -222 310
-95 106 -165 145 -229 128z"/>
<path d="M9118 4145 c-52 -29 -69 -91 -49 -180 24 -105 69 -619 56 -633 -2 -2
-52 40 -111 94 -187 166 -303 231 -399 221 -42 -4 -54 -10 -82 -42 -41 -47
-50 -103 -34 -213 11 -77 36 -177 199 -813 69 -267 102 -435 102 -521 0 -129
70 -191 156 -139 20 12 37 34 44 57 28 85 -11 328 -120 739 -94 353 -170 660
-168 674 3 15 65 -33 268 -210 126 -111 166 -134 218 -125 49 7 104 55 120
102 14 42 18 311 6 439 -4 44 -3 66 3 60 5 -5 76 -113 158 -240 82 -126 192
-293 245 -370 53 -77 123 -184 156 -239 77 -129 123 -158 193 -121 34 17 56
65 47 105 -8 43 -63 132 -330 535 -128 193 -286 435 -352 539 -65 104 -139
211 -164 238 -39 43 -51 50 -90 54 -29 3 -55 -1 -72 -11z"/>
</g>
</svg>
