<?xml version="1.0" encoding="UTF-8" standalone="no"?>
<svg
   id="Layer_1"
   width="80"
   height="80"
   x="0"
   y="0"
   enable-background="new 0 0 196.6 72"
   version="1.1"
   viewBox="0 0 74.999894 74.99935"
   xml:space="preserve"
   sodipodi:docname="nextcloud.svg"
   inkscape:version="1.1.1 (3bf5ae0d25, 2021-09-20, custom)"
   xmlns:inkscape="http://www.inkscape.org/namespaces/inkscape"
   xmlns:sodipodi="http://sodipodi.sourceforge.net/DTD/sodipodi-0.dtd"
   xmlns="http://www.w3.org/2000/svg"
   xmlns:svg="http://www.w3.org/2000/svg"><sodipodi:namedview
     id="namedview9"
     pagecolor="#000000"
     bordercolor="#cccccc"
     borderopacity="1"
     inkscape:pageshadow="0"
     inkscape:pageopacity="0"
     inkscape:pagecheckerboard="0"
     showgrid="false"
     inkscape:zoom="2.9698563"
     inkscape:cx="25.758822"
     inkscape:cy="56.736752"
     inkscape:window-width="1920"
     inkscape:window-height="1020"
     inkscape:window-x="0"
     inkscape:window-y="32"
     inkscape:window-maximized="1"
     inkscape:current-layer="Layer_1" /><metadata
     id="metadata20" /><defs
     id="defs18"><clipPath
       id="clipPath8812"
       clipPathUnits="userSpaceOnUse"><circle
         id="circle8814"
         cx="95.668999"
         cy="95.668999"
         r="79.723999"
         style="fill:#00080d;fill-opacity:1;stroke-width:1" /></clipPath></defs><path
     id="path1052"
     d="m 37.557107,12.927835 c -7.773967,0 -14.363048,5.270237 -16.405223,12.410812 C 19.37702,21.551178 15.53083,18.897737 11.100686,18.897737 5.0081892,18.897737 0,23.905929 0,29.998422 c 0,6.092486 5.0081892,11.102963 11.100686,11.102963 4.430144,0 8.276334,-2.655063 10.051198,-6.443197 2.042176,7.141118 8.631256,12.413107 16.405223,12.413107 7.716473,0 14.271957,-5.192476 16.366363,-12.25305 1.807652,3.702137 5.606239,6.28314 9.973459,6.28314 6.092497,0 11.102965,-5.010477 11.102965,-11.102963 0,-6.092493 -5.010468,-11.100685 -11.102965,-11.100685 -4.36722,0 -8.165807,2.579387 -9.973459,6.28086 C 51.829064,18.118575 45.27358,12.927835 37.557107,12.927835 Z m 0,6.516363 c 5.868467,0 10.556513,4.685775 10.556513,10.554224 0,5.86844 -4.688046,10.556506 -10.556513,10.556506 -5.868432,0 -10.554208,-4.688066 -10.554208,-10.556506 0,-5.868449 4.685775,-10.554223 10.554208,-10.554224 z m -26.456421,5.969903 c 2.571099,0 4.586601,2.013209 4.586601,4.584321 0,2.571103 -2.015502,4.586601 -4.586601,4.586601 -2.5711058,0 -4.5843358,-2.015498 -4.5843358,-4.586601 0,-2.571112 2.01323,-4.584321 4.5843358,-4.584321 z m 52.796243,0 c 2.571125,0 4.586607,2.013209 4.586607,4.584321 0,2.571103 -2.015495,4.586601 -4.586607,4.586601 -2.571086,0 -4.584313,-2.015498 -4.584313,-4.586601 0,-2.571112 2.013234,-4.584321 4.584313,-4.584321 z"
     style="color:#000000;font-style:normal;font-variant:normal;font-weight:400;font-stretch:normal;font-size:medium;line-height:normal;font-family:sans-serif;text-indent:0;text-align:start;text-decoration:none;text-decoration-line:none;text-decoration-style:solid;text-decoration-color:#000000;letter-spacing:normal;word-spacing:normal;text-transform:none;writing-mode:lr-tb;direction:ltr;baseline-shift:baseline;text-anchor:start;white-space:normal;clip-rule:nonzero;display:inline;overflow:visible;visibility:visible;opacity:1;isolation:auto;mix-blend-mode:normal;color-interpolation:sRGB;color-interpolation-filters:linearRGB;solid-color:#000000;solid-opacity:1;fill:#333333;fill-opacity:1;fill-rule:nonzero;stroke:none;stroke-width:3.66524;stroke-linecap:butt;stroke-linejoin:miter;stroke-miterlimit:10;stroke-dasharray:none;stroke-dashoffset:0;stroke-opacity:1;color-rendering:auto;image-rendering:auto;shape-rendering:auto;text-rendering:auto;enable-background:accumulate" /><path
     style="fill:#333333;fill-opacity:1;stroke-width:0.309756"
     id="path1174"
     d="m 7.8104632,52.220699 c -0.216824,0 -0.310471,0.123759 -0.310471,0.340613 v 8.983932 c 0,0.21683 0.09365,0.339103 0.310471,0.339103 h 0.248675 c 0.21683,0 0.339097,-0.122273 0.339097,-0.339103 V 54.08501 l 4.9041698,7.610955 c 0.02134,0.03326 0.04458,0.05545 0.06782,0.07983 0.007,0.0082 0.01179,0.01686 0.01962,0.0241 0.02088,0.01903 0.04379,0.02897 0.06628,0.0407 0.01251,0.0066 0.02226,0.01627 0.03622,0.02107 0.0097,0.0033 0.02002,0.0013 0.03016,0.004 0.03457,0.0089 0.06992,0.01811 0.111526,0.01811 h 0.247168 c 0.216823,0 0.310464,-0.122267 0.310464,-0.339103 v -8.983465 c 0,-0.216852 -0.09364,-0.340611 -0.310464,-0.340611 h -0.247168 c -0.216843,0 -0.340611,0.123759 -0.340611,0.340611 v 7.46056 L 8.3892502,52.410819 c -0.01673,-0.02594 -0.03694,-0.04174 -0.05578,-0.06183 -0.05663,-0.08008 -0.146322,-0.128112 -0.274298,-0.128112 z m 58.8846538,0.123588 c -0.216823,0 -0.123583,0.123772 -0.123583,0.340612 v 3.066986 c 0,0.309747 0.03003,0.525971 0.03003,0.525971 h -0.03003 c 0,0 -0.588839,-1.362425 -2.230541,-1.362425 -1.796571,0 -3.067179,1.424845 -3.005186,3.53117 0,2.106344 1.145977,3.562844 2.973538,3.562844 1.765601,0 2.354131,-1.425741 2.354131,-1.425741 h 0.03161 c 0,0 -0.06183,0.186249 -0.06183,0.434048 v 0.525984 c 0,0.216823 0.123775,0.310477 0.340624,0.310477 h 0.217014 c 0.21683,0 0.308956,-0.123788 0.308956,-0.340611 v -8.828703 c 0,-0.21684 -0.340808,-0.340612 -0.557638,-0.340612 z m -24.068687,0.03167 c -0.216834,0 -0.09194,0.123785 -0.09194,0.340612 v 7.588347 c 0,1.486819 0.990255,1.672889 1.547819,1.672889 0.247801,0 0.340596,-0.123774 0.340596,-0.340591 v -0.217029 c 0,-0.216823 -0.123941,-0.308963 -0.278812,-0.308963 -0.309769,-0.03095 -0.711362,-0.124374 -0.711362,-0.991686 v -7.402964 c 0,-0.216828 -0.340803,-0.340612 -0.557636,-0.340612 z M 31.5069,53.180768 c -0.21683,0 -0.34061,0.123785 -0.34061,0.340611 v 1.61112 0.774666 3.499508 c 0,1.610725 0.898945,2.50937 2.38577,2.50937 0.278777,0 0.370752,-0.09215 0.370752,-0.308963 v -0.186887 c 0,-0.247793 -0.09197,-0.309661 -0.370752,-0.340611 -0.526584,-0.03095 -1.487526,-0.216731 -1.487526,-1.796492 v -3.407587 h 1.394085 c 0.216829,0 0.34061,-0.09213 0.34061,-0.308962 v -0.09344 c 0,-0.216823 -0.123781,-0.340598 -0.34061,-0.340598 h -1.394085 v -1.61112 c 0,-0.216826 -0.09213,-0.340611 -0.308961,-0.340611 z m -12.337283,1.734711 c -1.858525,0 -3.346529,1.332567 -3.377453,3.562818 0,2.106324 1.549417,3.561317 3.562832,3.561317 1.084134,0 1.888967,-0.464222 2.260678,-0.743011 0.154922,-0.123893 0.186369,-0.279159 0.09344,-0.434042 l -0.09344,-0.153737 c -0.09293,-0.185853 -0.246688,-0.217343 -0.432544,-0.09343 -0.309755,0.247793 -0.930678,0.619427 -1.797995,0.619427 -1.393888,0 -2.602009,-0.991752 -2.632933,-2.726384 h 4.925264 c 0.185864,0 0.340609,-0.154758 0.340609,-0.340618 0,-1.951448 -1.020892,-3.25234 -2.848458,-3.25234 z m 19.244411,0 c -2.013403,0 -3.56205,1.486634 -3.592973,3.592958 0,2.106331 1.549421,3.562832 3.56283,3.562832 1.239026,0 2.075188,-0.589327 2.415911,-0.86811 0.154924,-0.154883 0.184865,-0.278322 0.09194,-0.464188 l -0.09194,-0.123577 c -0.12389,-0.185867 -0.248196,-0.217344 -0.434048,-0.09345 -0.309755,0.278776 -0.959823,0.712877 -1.920071,0.712877 -1.486816,0 -2.664587,-1.115652 -2.664587,-2.726384 0,-1.641695 1.177771,-2.756524 2.664587,-2.756524 0.805371,0 1.3933,0.402597 1.703043,0.619434 0.18586,0.123847 0.340287,0.124051 0.464197,-0.06177 l 0.09344,-0.155226 c 0.15493,-0.185859 0.123225,-0.340301 -0.03167,-0.464188 -0.340731,-0.278796 -1.083598,-0.774666 -2.260678,-0.774666 z m 10.469953,0 c -1.982432,0 -3.592969,1.517762 -3.592969,3.531169 0,2.044372 1.610537,3.592966 3.592969,3.592966 1.982449,0 3.592977,-1.548594 3.592977,-3.592966 0,-2.013407 -1.610528,-3.531169 -3.592977,-3.531169 z m -20.038653,0.103999 c -0.07585,0.01212 -0.14885,0.06315 -0.218534,0.146171 l -1.253923,1.493548 -0.937429,1.11828 -1.421214,-1.692486 -0.770138,-0.919342 c -0.06972,-0.08305 -0.14869,-0.128575 -0.230588,-0.135635 -0.08189,-0.0066 -0.167129,0.02377 -0.250183,0.09344 l -0.189897,0.159743 c -0.166093,0.139388 -0.157392,0.293587 -0.01808,0.459691 l 1.253925,1.493535 1.039911,1.240362 -1.522189,1.813068 c -0.0016,0.0013 -0.0023,0.0033 -0.003,0.004 l -0.768631,0.914831 c -0.139377,0.166097 -0.123888,0.341388 0.0422,0.480776 l 0.189895,0.158241 c 0.166104,0.139369 0.317282,0.104316 0.456658,-0.06183 l 1.252417,-1.493555 0.938935,-1.11828 1.421214,1.693994 c 6.58e-4,0.0013 0.0023,0.0026 0.003,0.0033 l 0.767124,0.916326 c 0.139376,0.166097 0.314662,0.180018 0.480771,0.04063 l 0.189897,-0.158241 c 0.166102,-0.139375 0.157473,-0.293574 0.01808,-0.459678 l -1.253922,-1.495056 -1.039914,-1.238861 1.522191,-1.814569 c 0.0016,-0.0013 0.0023,-0.0026 0.003,-0.004 l 0.76863,-0.914818 c 0.139376,-0.166104 0.123888,-0.341401 -0.0422,-0.480776 l -0.189897,-0.158241 c -0.08305,-0.06972 -0.162264,-0.09651 -0.238124,-0.08439 z m 25.45977,0.0513 c -0.216836,0 -0.310477,0.123775 -0.310477,0.340605 v 3.995365 c 0,1.765615 1.301031,2.63294 2.911756,2.63294 1.610731,0 2.91176,-0.867325 2.91176,-2.63294 v -3.995372 c 0.03095,-0.216823 -0.09213,-0.340604 -0.30896,-0.340604 h -0.248676 c -0.21683,0 -0.340611,0.123781 -0.340611,0.340604 v 3.748204 c 0,1.053172 -0.681565,2.01352 -2.013513,2.01352 -1.300966,0 -2.0135,-0.960348 -2.0135,-2.01352 v -3.748204 c 0,-0.216823 -0.123782,-0.340604 -0.340625,-0.340604 z m -35.16713,0.619421 c 0.991217,0 1.858077,0.712219 1.920072,2.13709 h -4.274189 c 0.216829,-1.393908 1.208028,-2.13709 2.354117,-2.13709 z m 29.746013,0.06184 c 1.455854,0 2.632949,1.14597 2.632949,2.694742 0,1.610718 -1.177095,2.788165 -2.632949,2.788165 -1.455836,0 -2.633661,-1.20841 -2.664577,-2.788165 0,-1.517802 1.208741,-2.694742 2.664577,-2.694742 z m 15.518801,0 c 1.455861,0 2.168752,1.332482 2.168752,2.72639 0,1.951448 -1.054299,2.756517 -2.200394,2.756517 -1.269989,0 -2.136313,-1.083852 -2.167231,-2.756517 0,-1.734632 0.990837,-2.72639 2.198873,-2.72639 z" /></svg>
