<?xml version="1.0" encoding="UTF-8"?>
<!DOCTYPE svg PUBLIC "-//W3C//DTD SVG 1.1//EN" "http://www.w3.org/Graphics/SVG/1.1/DTD/svg11.dtd">
<!-- Creator: CorelDRAW 2019 (64-Bit) -->
<svg xmlns="http://www.w3.org/2000/svg" xml:space="preserve" width="70.021mm" height="45.9609mm" version="1.1" style="shape-rendering:geometricPrecision; text-rendering:geometricPrecision; image-rendering:optimizeQuality; fill-rule:evenodd; clip-rule:evenodd"
viewBox="0 0 5804.95 3810.29"
 xmlns:xlink="http://www.w3.org/1999/xlink"
 xmlns:xodm="http://www.corel.com/coreldraw/odm/2003">
 <defs>
  <style type="text/css">
   <![CDATA[
    .fil0 {fill:black}
   ]]>
  </style>
 </defs>
 <g id="Layer_x0020_1">
  <metadata id="CorelCorpID_0Corel-Layer"/>
  <path class="fil0" d="M4819 2542.68c135.05,19.13 373.66,-287.49 411.6,-385.27 224.33,89.29 426.44,470.27 352.72,814.31 -62.18,290.16 -290.87,527.92 -568.09,604.06 -209.19,57.46 -1975.58,28.83 -2332.7,28.83 -244.46,0 -1584.78,12.95 -1762.92,-5.21 -83.23,-8.48 -160.48,-28.03 -228.63,-59.56 -32.19,-14.91 -67.35,-36.25 -98.61,-53.95 -101.21,-57.29 -161.94,-128.6 -229.87,-212.94 -41.92,-52.05 -77.22,-115.7 -104.39,-184.55 -135.5,-343.48 -9.35,-645.94 231.26,-876.01 184.61,-176.53 217.69,-27.17 136.55,-358.86 -159.67,-652.71 582.24,-1268.45 1209.2,-971.05 347.52,164.85 115.26,-188.87 559.93,-506.12 413.43,-294.99 957.99,-153.77 1167.64,139.07 223.13,311.67 172.86,443.32 315.56,409.19 54.68,-13.07 131.7,-60.82 205.83,-83.51 90.46,-27.67 184.53,-38.43 282.19,-31.75 459.51,31.4 880.06,441.5 832.29,943.08 -45.95,482.47 -437.99,601.44 -379.55,790.24zm-3338.29 -89.56l-34.69 45.38c6.7,25.12 12.58,54.53 16.93,84.83 6.03,41.97 8.46,65.59 8.65,79.13l40.56 30.8 -26.4 34.79 -44.16 -33.53c-41.29,18.2 -108.47,25.84 -165.82,26.67l-27.51 35.98 -34.79 -26.56 19.9 -26.03 -19.9 -183.27 -33.9 -25.74 26.4 -34.79 37.87 28.75 166.9 -16.95 35.18 -46.02 34.79 26.56zm-74.76 97.78l-29.85 39.05 39.63 30.09 -9.77 -69.13zm-56.37 73.74l-31.52 41.22c29.73,-0.22 50.55,-2.22 78.14,-5.82l-46.62 -35.4zm-72.87 23.25l38.01 -49.72 -47.51 -36.08 9.5 85.8zm64.54 -84.41l28.1 -36.77 -65.5 8.37 37.4 28.39zm9.09 -413.43l18.96 134.15c-54.08,7.43 -77.47,10.57 -142.27,8.61l-13.87 -125.23 137.18 -17.53zm-191.56 -29.63l24.72 227.65c70.12,3.29 176.91,-4.91 222.89,-34.77 10.35,-11.71 21.98,16.18 4.94,-102.48 -6.14,-42.78 -15.34,-83.77 -25.57,-113.45l-226.99 23.05zm292.28 779.09l16.07 126.81 -140.11 16.49 -14.86 -129.17 138.9 -14.13zm-164.4 196.91c57.63,0.77 187.85,-5.53 218.08,-39.17 13.78,-15.31 23.01,26.31 6.9,-97.29 -7.01,-53.76 -5.53,-62.94 -24.44,-114 -280.15,-20.92 -233.67,48.69 -200.53,250.47zm-101.13 -1266.17l5.31 84.02 617.08 -78.01 -6.89 -84.41 -615.5 78.4zm-34.81 -271.45l3.54 85.59c97,-2.3 215.95,-24.39 312.78,-37.74l228.61 -29.23c12.09,-1.77 31.19,-3.85 42.22,-7.87 57.33,-20.82 5.85,-1.58 33.31,-21.07l-7.04 -66.85 -613.42 77.17zm438.78 976.03l6.13 65.31 824.23 -102.87 1.19 -73.3c-85.86,-23.54 -488.8,48.03 -633,67.57 -90.38,12.25 -145.19,7.83 -198.55,43.29zm-49.78 -374.14l5.5 65c92.46,5.09 776.59,-83.91 827.61,-116.01l-2.98 -60.68c-47.37,-11.18 -659.84,56.76 -780.58,88.42 -55.44,14.52 -31.86,11.74 -49.55,23.27zm91.22 748.27l4.1 54.82 106.89 5.36c153.32,-21.34 650.61,-69.2 722.17,-111.21l-3.35 -67.5c-106.54,-4.81 -773.19,79.49 -829.8,118.52zm2297.17 51.02c31.87,-51.26 77.47,-73.76 163.02,-61.55 82.38,11.76 117.76,33.99 118.55,112.57 -86.42,84.77 -260.57,84.34 -281.57,-51.02zm-504.49 -51.02c69.41,-109.51 249.12,-85.85 286.38,34.02 -36.85,66.52 -83.39,84.54 -176.84,68.23 -78.29,-13.65 -100.84,-37.21 -109.54,-102.24zm286.14 -374.13c39.77,-133.23 224.03,-70.88 284.89,-22.43l-3.94 77.75c-80.61,46.69 -243.57,66.46 -280.95,-55.32zm377.84 -408.15c59.1,-149.92 273.76,-73.78 286.1,4.79 14.94,95.2 -220.66,139.1 -286.1,-4.79zm-550.04 -153.06c50.23,-125.34 213.49,-85.17 285.67,-21.67l-5.56 72.47c-102.09,59.71 -220.35,67.72 -280.1,-50.79zm-225.78 -472.09c-10.69,-180.86 259.01,-145.39 281.18,-5.68 -87.56,98.97 -207,61.08 -281.18,5.68zm-42.7 -118.1c-34.24,166.59 43.09,224.67 219.15,226.68l80.75 243.26c-79.23,73.3 -159.3,162.06 36.56,252.16 75.64,34.8 150.22,219.05 178.57,293.25 -69.1,54.71 -91.49,9.22 -129.66,136.05l57.29 104.12c-23.71,51.91 -71.42,106.33 -110.87,152.01 -324.87,-14.62 -276.85,258.71 -52.05,275.15 124.64,9.13 196.59,-32.61 212.85,-140.14 -29.26,-81.53 -39.15,-69.45 -95.45,-119.04 37.78,-57.75 64.03,-90.66 104.73,-136.35l140.25 15.06 91.64 153.69c-3.03,1.87 -256.05,107.84 -62.48,241.36 224.54,154.88 506.16,-139.05 176.26,-230.83 -74.58,-20.74 -43.1,5.97 -84.28,-65.15 -26.55,-45.83 -35.02,-70.88 -59.42,-113.82 23.14,-24.02 101.61,-56.43 67.53,-165.74 -19.91,-63.86 -73.78,-72.7 -148.01,-95.88 -68.44,-21.39 -26.31,23.54 -104.7,-129.03 -25.12,-48.9 -64.66,-114.61 -76.73,-160.39 75.57,-10.82 120.26,-35.12 154.07,-66.34 224.07,70.88 112.47,56.59 212,158.51 59.14,60.57 209.37,77.07 296.5,24.61 124.3,-74.84 28.31,-268.76 -192.43,-243.64 -88,10.01 -93.61,38.1 -138.09,69.26l-162.37 -61.26c-31.53,-142.03 -102.55,-162.01 -266.7,-157.09l-66.54 -242.97c55.91,-30.62 89.91,-32.24 96.96,-102.56 12.12,-121.01 -151,-235.14 -375.31,-114.93zm-2293.67 19.92c86.03,-27.65 835.27,-134.75 938.02,-126.51 12.87,129.07 21.39,364.15 97.63,433.24 99.46,90.14 304.88,-9.73 446.03,8.46 22.99,234.85 184.61,1163.15 157.37,1309.47 -33.77,57.44 -1328.23,207.92 -1403.58,194.45 -37.99,-126.15 -249.53,-1728.13 -235.47,-1819.11zm1374.26 171.19c32.96,29.31 14.46,7.73 38.47,53.03 -104.08,10.27 -212.01,39.99 -319.96,23.17 -33.81,-72.84 -46.58,-210.23 -54.56,-309.58l336.05 233.37zm-398.37 -400.27c-276.53,20.57 -595.3,76.87 -871.38,114.19 -196.51,26.56 -216.68,76.54 -187.62,282.21l176.53 1321.1c76.45,588.13 -58.82,454.52 1409.67,269.91 320.44,-40.29 242.42,-113.76 167.56,-694.76 -14.01,-108.69 -99.01,-820.98 -119.59,-863.42 -13.94,-28.77 -514.87,-392.9 -575.18,-429.23zm2250.04 539.2c-16.67,-87.63 5.49,-222.8 16.08,-315.12 60.82,54.12 283.17,304.81 317.73,369.05 -104.4,-2.88 -265.64,-9.89 -333.82,-53.93zm-1187.19 1357.01c-36.69,-97 93.51,-1198.08 112.28,-1403.34 47.4,-518.82 -0.22,-451.31 304.25,-425.12 232.25,19.97 470.65,50.62 702.02,65.15 -33.59,519.37 -131.7,518.13 433.46,555.36 -13.77,230.84 -42.31,460.26 -62.44,688.71 -6.05,68.73 -28.79,606.42 -85.61,650.07 -47.02,36.13 -1340.75,-85.02 -1403.96,-130.82zm1654.59 -1303.08l-446.39 -517.01c-74.14,-63.02 -721.05,-93.45 -876.01,-107.5 -315.98,-28.63 -273.26,80.68 -323.27,660.88 -25.96,301.13 -57.63,600.15 -84.92,901.23 -51.91,572.78 -200.94,452.82 1291.53,592.23 200.93,18.76 289.69,30.09 311.78,-178.61 15.98,-150.87 28.05,-302.5 42.26,-449 29.14,-300.4 59.64,-602.2 85.02,-902.22zm-2768.46 -1086.24c-247.19,-57.59 -196.1,-94.09 -544.22,-68.04 -315.46,23.61 -644.46,260.27 -799.08,527.4 -126.73,218.96 -218.69,607.4 -102.23,850.11 -64.17,17.14 -39.8,21.78 -91.84,61.22 -343.3,260.15 -459.78,773.19 -276.91,1157.85l93.42 161.66c38.36,53.52 71.41,90.64 118.03,137.06 183.84,183.07 412.92,301.87 701.5,301.87l3809.37 0c150.41,0 296.63,-39.53 402.73,-90.46 452.28,-217.06 685.96,-673.66 560.07,-1178.45 -47.85,-191.89 -231.51,-451.76 -418.59,-550.75 115.94,-241.65 25.51,-617.1 -96.17,-839.18 -143.31,-261.6 -487.12,-512.82 -788.53,-537.94 -335.56,-27.95 -320.49,11.66 -560.83,67.65 -25.45,-48.12 -41.2,-84.18 -71.44,-132.64 -137.11,-219.72 -326.12,-390.8 -569.1,-485.26 -412.6,-160.42 -937.89,-6 -1206.41,352.52 -71.4,95.32 -104.96,161.8 -159.76,265.38z"/>
 </g>
</svg>
