<?xml version="1.0" encoding="UTF-8" standalone="no"?>
<svg
   xmlns:dc="http://purl.org/dc/elements/1.1/"
   xmlns:cc="http://creativecommons.org/ns#"
   xmlns:rdf="http://www.w3.org/1999/02/22-rdf-syntax-ns#"
   xmlns:svg="http://www.w3.org/2000/svg"
   xmlns="http://www.w3.org/2000/svg"
   xmlns:sodipodi="http://sodipodi.sourceforge.net/DTD/sodipodi-0.dtd"
   xmlns:inkscape="http://www.inkscape.org/namespaces/inkscape"
   xml:space="preserve"
   height="33"
   viewBox="0 0 33.000586 33"
   width="33"
   version="1.1"
   y="0px"
   x="0px"
   enable-background="new 0 0 595.275 311.111"
   id="svg2"
   inkscape:version="0.91 r13725"
   sodipodi:docname="owncloud.svg"
   inkscape:export-filename="/home/nils/git/vm/mafiasi-code/mafiasi/dashboard/static/img/services/owncloud.png"
   inkscape:export-xdpi="218.18182"
   inkscape:export-ydpi="218.18182"><metadata
     id="metadata10"><rdf:RDF><cc:Work
         rdf:about=""><dc:format>image/svg+xml</dc:format><dc:type
           rdf:resource="http://purl.org/dc/dcmitype/StillImage" /><dc:title></dc:title></cc:Work></rdf:RDF></metadata><defs
     id="defs8" /><sodipodi:namedview
     pagecolor="#ffffff"
     bordercolor="#666666"
     borderopacity="1"
     objecttolerance="10"
     gridtolerance="10"
     guidetolerance="10"
     inkscape:pageopacity="0"
     inkscape:pageshadow="2"
     inkscape:window-width="1048"
     inkscape:window-height="1678"
     id="namedview6"
     showgrid="false"
     inkscape:zoom="9.0967742"
     inkscape:cx="30.780142"
     inkscape:cy="17"
     inkscape:window-x="1680"
     inkscape:window-y="0"
     inkscape:window-maximized="0"
     inkscape:current-layer="svg2" /><path
     style="color:#000000;text-indent:0;text-transform:none;block-progression:tb;fill:#b3b3b3;fill-opacity:1;enable-background:accumulate"
     d="m 15.06132,7.1198048 c -2.420621,0 -4.376384,1.9556334 -4.376384,4.3763852 0,0.997817 0.332263,1.916152 0.892383,2.651523 1.215189,-1.406544 3.008801,-2.299708 5.01133,-2.299708 0.979735,0 1.908737,0.218166 2.745899,0.600648 0.06778,-0.306519 0.102975,-0.625267 0.102975,-0.952482 0,-2.4206228 -1.955632,-4.3763853 -4.376384,-4.3763853 z M 9.3460361,9.1448382 c -1.2605894,0 -2.2739513,1.0219478 -2.2739513,2.2825368 0,0.408149 0.1052973,0.793779 0.2917483,1.12413 0.760672,-0.429124 1.6401121,-0.677873 2.5743176,-0.677873 0.090149,0 0.1769803,0.0032 0.2660103,0.0087 -0.01008,-0.127789 -0.01715,-0.25578 -0.01715,-0.386145 0,-0.702134 0.152499,-1.37012 0.420474,-1.9735848 C 10.246677,9.2806352 9.8144185,9.1450282 9.3460469,9.1450282 Z M 20.141141,10.71516 c -0.09314,0 -0.182901,0.01138 -0.274597,0.01713 0.03967,0.250075 0.06864,0.502569 0.06864,0.763728 0,0.40636 -0.05165,0.798527 -0.145877,1.175579 1.104356,0.611145 2.021521,1.525637 2.625766,2.634351 0.626751,-0.326305 1.325893,-0.533759 2.067963,-0.583509 -0.191254,-2.24286 -2.049362,-4.007268 -4.341915,-4.007268 z m -3.552492,1.630355 c -3.387154,0 -6.126809,2.739395 -6.126809,6.126809 0,3.387154 2.739396,6.126808 6.126809,6.126808 3.387414,0 6.126808,-2.739654 6.126808,-6.126808 0,-3.387414 -2.739655,-6.126809 -6.126808,-6.126809 z m -6.6499462,0.02569 c -2.6277816,0 -4.7538917,2.125979 -4.7538917,4.753891 0,1.546971 0.7370623,2.916376 1.8792086,3.784173 0.4815097,-0.928742 1.4486264,-1.561736 2.5656665,-1.561736 0.135009,0 0.2645992,0.01637 0.3947298,0.03437 -0.040848,-0.297192 -0.060065,-0.601201 -0.060065,-0.909619 0,-1.474254 0.479883,-2.837545 1.295712,-3.938649 -0.488366,-0.611088 -0.837813,-1.345339 -0.986825,-2.145232 -0.110403,-0.0076 -0.222296,-0.01713 -0.3346507,-0.01713 z m 14.8966842,2.831821 c -0.797875,0 -1.545344,0.203712 -2.205265,0.549179 0.374729,0.830072 0.583509,1.75101 0.583509,2.720142 0,1.814622 -0.729582,3.462474 -1.913551,4.659516 0.869748,0.965621 2.131703,1.57032 3.535385,1.57032 2.627783,0 4.753892,-2.125979 4.753892,-4.75389 0,-2.627783 -2.125979,-4.745177 -4.753892,-4.745177 z M 4.7222942,15.829394 c -2.420947,-2.71e-4 -4.38503546,1.946657 -4.38503546,4.367409 0,2.420687 1.96415346,4.384775 4.38477516,4.384775 0.921327,0 1.7748797,-0.287058 2.4798758,-0.772314 C 6.910571,23.356561 6.7385273,22.81535 6.7385273,22.238942 c 0,-0.299149 0.044147,-0.586585 0.1287123,-0.85804 -1.3199072,-0.953914 -2.1795741,-2.506153 -2.1795741,-4.256056 0,-0.444624 0.058589,-0.874562 0.1630418,-1.287191 -0.043351,-0.0011 -0.085043,-0.0087 -0.128719,-0.0087 z m 25.7340668,3.758481 c -0.129129,0 -0.254088,0.01474 -0.377546,0.03437 0.0068,0.109154 0.0086,0.215206 0.0086,0.326084 0,1.395747 -0.550702,2.662579 -1.441602,3.60394 0.438283,0.509667 1.082047,0.832349 1.810588,0.832349 1.326997,0 2.40267,-1.067088 2.40267,-2.394085 0,-1.326996 -1.075673,-2.40267 -2.40267,-2.40267 z M 9.6304017,19.845294 c -1.326932,0 -2.3940846,1.067153 -2.3940846,2.394084 0,1.326932 1.0671526,2.40267 2.3940846,2.40267 1.0171353,0 1.8804443,-0.634658 2.2310883,-1.527392 -0.855504,-0.87131 -1.470286,-1.982756 -1.741903,-3.217719 -0.1589714,-0.03285 -0.3203153,-0.05149 -0.4891265,-0.05149 z"
     id="path4"
     inkscape:connector-curvature="0" /><text
     xml:space="preserve"
     style="font-style:normal;font-weight:normal;font-size:10.76041889px;line-height:125%;font-family:Sans;text-align:center;letter-spacing:0px;word-spacing:0px;text-anchor:middle;fill:#000000;fill-opacity:1;stroke:none;stroke-width:1px;stroke-linecap:butt;stroke-linejoin:miter;stroke-opacity:1"
     x="24.247139"
     y="-4.9728513"
     id="text4138"
     sodipodi:linespacing="125%"
     transform="matrix(0.70710678,0.70710674,-0.70710682,0.70710678,0,0)"><tspan
       sodipodi:role="line"
       id="tspan4140"
       x="24.247139"
       y="-4.9728513">Beta</tspan></text>
</svg>