<?xml version="1.0" encoding="UTF-8"?>
<!DOCTYPE svg PUBLIC "-//W3C//DTD SVG 1.1//EN" "http://www.w3.org/Graphics/SVG/1.1/DTD/svg11.dtd">
<!-- Creator: CorelDRAW 2019 (64-Bit) -->
<svg xmlns="http://www.w3.org/2000/svg" xml:space="preserve" width="20.8671mm" height="20.8929mm" version="1.1" style="shape-rendering:geometricPrecision; text-rendering:geometricPrecision; image-rendering:optimizeQuality; fill-rule:evenodd; clip-rule:evenodd"
viewBox="0 0 1664.45 1666.5"
 xmlns:xlink="http://www.w3.org/1999/xlink"
 xmlns:xodm="http://www.corel.com/coreldraw/odm/2003">
 <defs>
  <style type="text/css">
   <![CDATA[
    .fil0 {fill:black}
   ]]>
  </style>
 </defs>
 <g id="Layer_x0020_1">
  <metadata id="CorelCorpID_0Corel-Layer"/>
  <path class="fil0" d="M525.43 771.73l291.51 -467.33 123.81 77.24 38.62 -61.91 -42.86 -26.74 29.7 -47.62 66.67 41.59 53.47 -85.72c-48.9,-30.5 -99.03,-60.9 -147.34,-92.13 21.42,-35.49 23.08,-35.76 -13.03,-58.26 -12.91,-8.04 -76.14,-49.91 -85.63,-50.77 -16.33,-1.47 -25.16,20.56 -32.98,33.17 -39.59,63.78 -79.39,127.42 -119.12,191.11 -61.08,97.91 -122.15,195.81 -183.23,293.72 -36.64,58.75 -73.3,117.49 -109.94,176.24 -126.75,-35.09 -269.48,18.84 -345.62,140.91 -91.88,147.28 -52.05,337.98 88.66,425.76 140.71,87.77 329.07,39.42 420.96,-107.87 78.58,-125.98 61.11,-283.53 -33.65,-381.4zm-119.47 54.36c86.79,54.13 111.28,171.43 54.68,262.16 -56.6,90.74 -172.71,120.32 -259.5,66.18 -86.79,-54.14 -111.28,-171.43 -54.68,-262.17 56.6,-90.73 172.71,-120.32 259.5,-66.17zm1082.77 137.47l-441.45 0c-0.1,-36.69 -2.25,-71.55 -2.91,-107.64 -2.24,-122.21 69.59,-232.45 197.34,-247.32 108.19,-12.61 222.88,61.89 239.77,172.55 6.6,43.2 5.65,107.65 6.66,153.14 0.22,9.76 0.41,19.52 0.59,29.27zm-535.45 0l-82.42 0 0 454.72 0.12 0c-0.12,3.28 -0.12,6.58 -0.12,9.89 0,132.06 96.74,238.34 216.98,238.34l359.51 0c120.24,0 217.1,-106.29 217.1,-238.34 0,-3.32 -0.13,-6.61 -0.24,-9.89l0.24 0 0 -454.72c-27.38,0 -54.84,0.14 -82.22,-0.08 0.29,-127.73 13.79,-232.66 -75.67,-338.27 -157.24,-185.6 -463.72,-128.81 -537.51,110.1 -22.46,72.75 -16.11,152.98 -15.77,228.25zm314 166.29c4.7,0 9.45,0.36 14.24,1.08 51.09,7.67 86.34,55.23 78.68,106.32 -3.53,23.52 -15.67,43.77 -32.58,57.92l32.7 205.03 -92.08 0 -1.32 0 -91.96 0 32.58 -205.03c-24.1,-20.24 -37.47,-52.28 -32.46,-85.68 6.95,-46.3 46.77,-79.52 92.21,-79.64z"/>
 </g>
</svg>
