<?xml version="1.0" encoding="UTF-8" standalone="no"?>
<!-- Created with Sodipodi ("http://www.sodipodi.com/") -->

<svg
   xmlns:dc="http://purl.org/dc/elements/1.1/"
   xmlns:cc="http://creativecommons.org/ns#"
   xmlns:rdf="http://www.w3.org/1999/02/22-rdf-syntax-ns#"
   xmlns:svg="http://www.w3.org/2000/svg"
   xmlns="http://www.w3.org/2000/svg"
   xmlns:sodipodi="http://sodipodi.sourceforge.net/DTD/sodipodi-0.dtd"
   xmlns:inkscape="http://www.inkscape.org/namespaces/inkscape"
   height="332.80408"
   id="svg707"
   sodipodi:docname="planet.svg"
   sodipodi:version="0.32"
   space="preserve"
   width="346.49338"
   inkscape:version="0.48.3.1 r9886"
   inkscape:output_extension="org.inkscape.output.svg.inkscape"
   version="1.0"
   inkscape:export-filename="/home/henning/workspace/mafiasi/mafiasi/dashboard/static/img/services/planet.png"
   inkscape:export-xdpi="20.793556"
   inkscape:export-ydpi="20.793556">
  <defs
     id="defs10" />
  <sodipodi:namedview
     id="base"
     showgrid="false"
     inkscape:zoom="1.8706617"
     inkscape:cx="334.30772"
     inkscape:cy="190.47399"
     inkscape:window-width="1916"
     inkscape:window-height="1058"
     inkscape:window-x="0"
     inkscape:window-y="18"
     inkscape:window-maximized="0"
     inkscape:current-layer="svg707" />
  <path
     d="M 488.83923,431.12903 A 173.13055,166.34114 0 1 1 142.57812,431.12903 A 173.13055,166.34114 0 1 1 488.83923,431.12903 z"
     id="path710"
     sodipodi:cx="315.70868"
     sodipodi:cy="431.12903"
     sodipodi:rx="173.13055"
     sodipodi:ry="166.34114"
     sodipodi:type="arc"
     style="fill:#333333;fill-opacity:1;fill-rule:evenodd;stroke:none;stroke-width:1pt;stroke-linecap:butt;stroke-linejoin:miter;stroke-opacity:1"
     transform="translate(-142.57812,-264.66608)" />
  <path
     d="m 160.53375,4.4320329 c 0,4.903 -1.43201,7.9778001 -3.79051,13.3846001 -5.56829,12.7658 10.1087,11.5588 10.87731,21.4273 0.57759,7.4165 -5.91071,11.7735 -9.63481,17.3908 -3.02199,4.5583 -9.06159,12.8365 -14.10849,14.7912 -1.5381,0.5957 -3.2584,-5.5514 -3.3433,-5.8124 -0.96221,-2.9595 -2.3895,-13.9818 -3.78991,-15.3181 -1.5177,-1.4483 -12.8923,3.9293 -14.4177,5.3495 -11.0326,10.2728 -5.80529,24.2856 1.5479,34.7304 10.9796,15.595897 11.6048,20.787597 11.22011,39.176997 -0.3722,17.7906 19.97679,28.3796 34.41899,32.8842 18.9253,5.9029 41.1602,11.6752 60.91721,7.0537 18.4974,-4.3268 8.4052,-20.1822 -0.17231,-28.2863 -9.1665,-8.6605 -22.22589,-11.4498 -31.46569,-19.2137 -4.43021,-3.7225 9.9826,-10.5361 11.80329,-11.7234 9.5564,-6.2322 20.24371,-15.934197 29.0832,-23.538597 10.47101,-9.008 6.56031,-8.6419 1.1867,-19.2157 -6.8875,-13.5529 -6.21679,-9.8491 -5.13319,-23.7314 0.63119,-8.0874 -0.9166,-7.4901 8.7866,-5.8972 13.7985,2.2653 22.95529,11.9173 27.8714,24.4297 5.9138,15.0516 7.27079,24.0899 9.10539,40.263097 1.0635,9.3749 6.32501,7.9662 14.5874,9.1837 9.1995,1.3557 21.36251,-0.2989 28.84621,-6.0804 1.80239,-1.3925 14.77609,17.6611 1.47359,-11.065197 -25.28799,-43.9408 -47.9241,-57.3879 -62.82639,-65.9733 C 207.79485,-0.49426705 170.35364,4.8414329 160.53375,4.4320329 z"
     id="path711"
     sodipodi:nodetypes="cccccccccccccccccccccccccc"
     style="fill:#ffffff;fill-opacity:1;fill-rule:evenodd;stroke:#333333;stroke-width:6;stroke-linecap:butt;stroke-linejoin:miter;stroke-miterlimit:4;stroke-opacity:1;stroke-dasharray:none"
     inkscape:connector-curvature="0" />
  <path
     d="m 43.746014,62.589267 c 7.776317,7.740126 19.573728,9.72108 18.93978,23.758258 -0.624121,13.822215 1.445148,20.323445 14.42143,20.804675 9.770352,0.36237 4.276343,23.33769 -1.616068,23.15533 C 57.542791,129.80097 46.433064,127.11358 42.403936,96.008175 42.01502,91.138617 35.712157,84.143972 32.25742,76.553441 36.738423,69.831937 41.154377,64.488304 43.746014,62.589267 z"
     id="path713"
     sodipodi:nodetypes="ccccccc"
     style="fill:#ffffff;fill-opacity:1;fill-rule:evenodd;stroke:#333333;stroke-width:6;stroke-linecap:butt;stroke-linejoin:miter;stroke-miterlimit:4;stroke-opacity:1;stroke-dasharray:none"
     inkscape:connector-curvature="0" />
  <path
     d="m 239.08504,316.37469 c -12.68284,6.2514 -3.4194,-14.74612 1.70731,-17.32384 6.92198,-3.4803 10.61432,-4.40047 12.35895,-12.61595 1.52026,-7.15901 -0.71839,-13.17927 -0.18977,-20.73256 0.75605,-10.80159 9.24009,-12.56062 18.03371,-12.88146 6.83448,-0.24935 6.4067,-20.57148 6.12656,-25.19916 -0.88797,-14.67182 -0.70246,-29.22468 12.97749,-37.77922 6.50544,-4.06807 1.01206,-20.19794 -0.0877,-25.62575 -0.65445,-3.22985 -4.17491,-11.65082 -0.81432,-13.83512 10.57635,-6.87474 16.92203,-11.46073 21.8998,3.52963 4.91108,14.78967 -2.83657,23.52842 -8.17914,37.15511 -2.7377,6.98266 -12.75345,28.7551 -1.08867,32.76697 6.35157,2.18463 21.12619,-11.85948 23.30712,-17.20631 2.91338,-7.14231 0.93401,-9.37845 2.75165,-16.39658 1.04424,-4.03184 2.6612,-3.07315 2.07234,-8.46691 -1.06563,-9.76007 -7.46839,-25.58177 7.5917,-27.84486 2.7629,-0.41523 7.89116,-1.03322 7.6407,1.76973 -3.37673,37.79318 -7.47723,63.77043 -31.35113,98.4288 -31.51005,36.50711 -42.7643,46.48861 -74.75657,62.25748 z"
     id="path716"
     sodipodi:nodetypes="ccccccccccccccccscs"
     style="fill:#ffffff;fill-opacity:1;fill-rule:evenodd;stroke:#333333;stroke-width:1.09127922pt;stroke-linecap:butt;stroke-linejoin:miter;stroke-opacity:1"
     inkscape:connector-curvature="0" />
  <path
     d="m 98.335669,144.88213 c -8.2688,0.2563 -14.967,-2.0984 -21.4469,-2.821 -9.9417,-1.1086 -21.2988,-1.2221 -23.733,10.4975 -2.6552,12.7841 -1.5389,32.8616 13.0161,38.0112 17.6218,6.2347 22.2747,5.2653 29.0065,22.8416 4.3602,11.3841 -16.1477,21.2047 -23.6287,25.0019 -3.925,1.9922 -7.9468,3.075 -11.8225,4.9265 -5.4909,2.623 -21.4601,15.5272 -21.2958,21.6384 3.4348,8.2286 55.6467,62.4574 124.368691,63.5858 0,-4.1042 -0.4597,-9.6856 -1.9115,-13.5897 -4.69929,-12.6368 -11.1544,-15.4187 -23.90209,-17.0471 -17.72121,-2.2638 -13.9615,-15.7938 -6.05641,-26.847 3.7306,-5.2162 7.6452,-9.6976 11.0605,-15.316 6.1985,-10.1968 16.17931,-17.9208 20.74331,-29.0929 0.808,-1.9779 5.3007,-15.1224 1.57049,-15.6701 -9.88689,-1.4517 -17.08249,-3.432 -20.5808,-13.5409 -4.58689,-13.2547 -11.84949,-22.917 -19.396,-34.5928 -8.64099,-13.3694 -9.05449,-17.9854 -25.991891,-17.9854 z"
     id="path745"
     sodipodi:nodetypes="cccccccccccccccccc"
     style="font-size:12px;fill:#ffffff;fill-opacity:1;fill-rule:evenodd;stroke:#333333;stroke-width:6;stroke-miterlimit:4;stroke-opacity:1;stroke-dasharray:none"
     inkscape:connector-curvature="0" />
  <metadata
     id="metadata18">
    <rdf:RDF>
      <cc:Work>
        <dc:format>image/svg+xml</dc:format>
        <dc:type
           rdf:resource="http://purl.org/dc/dcmitype/StillImage" />
        <cc:license
           rdf:resource="http://creativecommons.org/licenses/publicdomain/" />
        <dc:publisher>
          <cc:Agent
             rdf:about="http://openclipart.org/">
            <dc:title>Open Clip Art Library</dc:title>
          </cc:Agent>
        </dc:publisher>
        <dc:title></dc:title>
        <dc:date>2008-02-08T01:46:03</dc:date>
        <dc:description />
        <dc:source>http://openclipart.org/detail/13127/pseudo-globe-by-anonymous-13127</dc:source>
        <dc:creator>
          <cc:Agent>
            <dc:title>Anonymous</dc:title>
          </cc:Agent>
        </dc:creator>
        <dc:subject>
          <rdf:Bag>
            <rdf:li>cartoon</rdf:li>
            <rdf:li>cartoon</rdf:li>
            <rdf:li>clip art</rdf:li>
            <rdf:li>clipart</rdf:li>
            <rdf:li>colour</rdf:li>
            <rdf:li>colour</rdf:li>
            <rdf:li>earth</rdf:li>
            <rdf:li>earth</rdf:li>
            <rdf:li>geography</rdf:li>
            <rdf:li>geography</rdf:li>
            <rdf:li>globe</rdf:li>
            <rdf:li>globe</rdf:li>
            <rdf:li>image</rdf:li>
            <rdf:li>media</rdf:li>
            <rdf:li>planet</rdf:li>
            <rdf:li>planet</rdf:li>
            <rdf:li>png</rdf:li>
            <rdf:li>public domain</rdf:li>
            <rdf:li>svg</rdf:li>
            <rdf:li>world</rdf:li>
            <rdf:li>world</rdf:li>
          </rdf:Bag>
        </dc:subject>
      </cc:Work>
      <cc:License
         rdf:about="http://creativecommons.org/licenses/publicdomain/">
        <cc:permits
           rdf:resource="http://creativecommons.org/ns#Reproduction" />
        <cc:permits
           rdf:resource="http://creativecommons.org/ns#Distribution" />
        <cc:permits
           rdf:resource="http://creativecommons.org/ns#DerivativeWorks" />
      </cc:License>
    </rdf:RDF>
  </metadata>
</svg>
