<?xml version="1.0" encoding="UTF-8" standalone="no"?>
<!-- Created with Inkscape (http://www.inkscape.org/) -->

<svg
   xmlns:dc="http://purl.org/dc/elements/1.1/"
   xmlns:cc="http://creativecommons.org/ns#"
   xmlns:rdf="http://www.w3.org/1999/02/22-rdf-syntax-ns#"
   xmlns:svg="http://www.w3.org/2000/svg"
   xmlns="http://www.w3.org/2000/svg"
   xmlns:sodipodi="http://sodipodi.sourceforge.net/DTD/sodipodi-0.dtd"
   xmlns:inkscape="http://www.inkscape.org/namespaces/inkscape"
   id="svg3132"
   version="1.1"
   inkscape:version="0.48.3.1 r9886"
   width="116.80344"
   height="79.115639"
   xml:space="preserve"
   sodipodi:docname="redmine.svg"
   inkscape:export-filename="/home/henning/workspace/mafiasi/mafiasi/dashboard/static/img/services/redmine.png"
   inkscape:export-xdpi="61.642017"
   inkscape:export-ydpi="61.642017"><metadata
     id="metadata3138"><rdf:RDF><cc:Work
         rdf:about=""><dc:format>image/svg+xml</dc:format><dc:type
           rdf:resource="http://purl.org/dc/dcmitype/StillImage" /><dc:title></dc:title></cc:Work></rdf:RDF></metadata><defs
     id="defs3136"><clipPath
       clipPathUnits="userSpaceOnUse"
       id="clipPath3148"><path
         d="m 0,0 4145.66,0 0,955 L 0,955 0,0 z"
         id="path3150"
         inkscape:connector-curvature="0" /></clipPath></defs><sodipodi:namedview
     pagecolor="#ffffff"
     bordercolor="#666666"
     borderopacity="1"
     objecttolerance="10"
     gridtolerance="10"
     guidetolerance="10"
     inkscape:pageopacity="0"
     inkscape:pageshadow="2"
     inkscape:window-width="1916"
     inkscape:window-height="1058"
     id="namedview3134"
     showgrid="false"
     fit-margin-top="0"
     fit-margin-left="0"
     fit-margin-right="0"
     fit-margin-bottom="0"
     inkscape:zoom="3.3866414"
     inkscape:cx="79.305893"
     inkscape:cy="19.422763"
     inkscape:window-x="0"
     inkscape:window-y="18"
     inkscape:window-maximized="0"
     inkscape:current-layer="g3140" /><g
     id="g3140"
     inkscape:groupmode="layer"
     inkscape:label="ink_ext_XXXXXX"
     transform="matrix(1.25,0,0,-1.25,-1.4954197e-4,119.38037)"><path
       inkscape:connector-curvature="0"
       id="path3152"
       style="fill:#333333;fill-opacity:1;fill-rule:nonzero;stroke:none"
       d="M 27.6648,89.6871 36.6293,79.248 c 0.3844,-0.4964 -0.125,-0.8636 -0.125,-0.8636 -3.5922,-1.9375 -6.1914,-4.8653 -8.4148,-8.218 -0.4415,-0.6652 -0.9176,-0.182 -0.9176,-0.182 l -11.359,8.5062 c 0,0 -0.4883,0.2871 -0.0609,0.8547 3.3261,4.4168 6.3476,7.5317 11.1789,10.4723 0,0 0.366,0.3449 0.7339,-0.1305" /><path
       inkscape:connector-curvature="0"
       id="path3154"
       style="fill:#333333;fill-opacity:1;fill-rule:nonzero;stroke:none"
       d="m 11.7633,72.6809 13.4246,-6.4895 c 0.6379,-0.2473 0.3187,-0.8281 0.3187,-0.8281 C 23.652,60.9496 22.5219,57.2234 21.65,52.7086 21.5039,51.9527 20.991,52.1949 20.991,52.1949 L 5.89062,58.7516 c 0,0 -0.45273,0.1695 -0.26367,0.7511 0.67032,2.0657 4.08594,10.3118 5.45705,13.0067 0,0 0.2402,0.4086 0.6793,0.1715" /><path
       inkscape:connector-curvature="0"
       id="path3156"
       style="fill:#333333;fill-opacity:1;fill-rule:nonzero;stroke:none"
       d="m 4.25195,51.8344 c 3.07071,-0.9457 15.95545,-3.9133 15.95545,-3.9133 0.7723,-0.2379 0.5422,-0.8172 0.5422,-0.8172 -0.8891,-7 -0.6961,-12.3422 -0.6961,-14.1879 0,-0.8183 -0.5957,-0.698 -0.5957,-0.698 -3.3449,0 -18.803112,0 -18.803112,0 -0.817188,0 -0.6378911,0.7363 -0.6378911,0.7363 0.1535151,2.3316 0.8257811,8.9668 3.4183631,18.4793 0,0 0.1289,0.6129 0.81679,0.4008" /><path
       inkscape:connector-curvature="0"
       id="path3158"
       style="fill:#333333;fill-opacity:1;fill-rule:nonzero;stroke:none"
       d="M 65.7777,89.6871 56.8137,79.248 c -0.3844,-0.4964 0.125,-0.8636 0.125,-0.8636 3.5922,-1.9375 6.1914,-4.8653 8.4148,-8.218 0.4414,-0.6652 0.9176,-0.182 0.9176,-0.182 l 11.359,8.5062 c 0,0 0.4883,0.2871 0.0609,0.8547 -3.3262,4.4168 -6.3476,7.5317 -11.1789,10.4723 0,0 -0.366,0.3449 -0.7344,-0.1305" /><path
       inkscape:connector-curvature="0"
       id="path3160"
       style="fill:#333333;fill-opacity:1;fill-rule:nonzero;stroke:none"
       d="m 46.7219,80.752 c 1.5086,0 4.3023,-0.1442 5.6211,-0.3629 0.6886,-0.1141 0.859,0.341 0.859,0.341 l 5.6425,11.7914 c 0,0 0.3778,0.4437 -0.4125,0.7328 -4.2117,1.541 -6.4519,2.25 -11.7101,2.25 -5.1961,0 -7.4992,-0.709 -11.7114,-2.25 -0.7898,-0.2891 -0.4125,-0.7328 -0.4125,-0.7328 l 5.6426,-11.7914 c 0,0 0.1703,-0.4551 0.8594,-0.341 1.3184,0.2187 4.1125,0.3629 5.6219,0.3629" /><path
       inkscape:connector-curvature="0"
       id="path3162"
       style="fill:#333333;fill-opacity:1;fill-rule:nonzero;stroke:none"
       d="M 81.6797,72.6809 68.2551,66.1914 c -0.6379,-0.2473 -0.3192,-0.8281 -0.3192,-0.8281 1.8551,-4.4137 2.9852,-8.1399 3.8571,-12.6547 0.1461,-0.7559 0.6586,-0.5137 0.6586,-0.5137 l 15.1007,6.5567 c 0,0 0.4528,0.1695 0.2637,0.7511 -0.6707,2.0657 -4.0859,10.3118 -5.457,13.0067 0,0 -0.2402,0.4086 -0.6793,0.1715" /><path
       inkscape:connector-curvature="0"
       id="path3164"
       style="fill:#333333;fill-opacity:1;fill-rule:nonzero;stroke:none"
       d="m 89.191,51.8344 c -3.0711,-0.9457 -15.9555,-3.9133 -15.9555,-3.9133 -0.7722,-0.2379 -0.5421,-0.8172 -0.5421,-0.8172 0.889,-7 0.6957,-12.3422 0.6957,-14.1879 0,-0.8183 0.5957,-0.698 0.5957,-0.698 3.3453,0 18.8035,0 18.8035,0 0.8172,0 0.6379,0.7363 0.6379,0.7363 -0.1535,2.3316 -0.8262,8.9668 -3.4184,18.4793 0,0 -0.1289,0.6129 -0.8168,0.4008" /></g></svg>