<?xml version="1.0" encoding="UTF-8"?>
<!DOCTYPE svg PUBLIC "-//W3C//DTD SVG 1.1//EN" "http://www.w3.org/Graphics/SVG/1.1/DTD/svg11.dtd">
<!-- Creator: CorelDRAW 2019 (64-Bit) -->
<svg xmlns="http://www.w3.org/2000/svg" xml:space="preserve" width="15.4426mm" height="16.846mm" version="1.1" style="shape-rendering:geometricPrecision; text-rendering:geometricPrecision; image-rendering:optimizeQuality; fill-rule:evenodd; clip-rule:evenodd"
viewBox="0 0 1696.19 1850.34"
 xmlns:xlink="http://www.w3.org/1999/xlink"
 xmlns:xodm="http://www.corel.com/coreldraw/odm/2003">
 <defs>
  <style type="text/css">
   <![CDATA[
    .fil0 {fill:black}
   ]]>
  </style>
 </defs>
 <g id="Layer_x0020_1">
  <metadata id="CorelCorpID_0Corel-Layer"/>
  <path class="fil0" d="M1696 462.78l0 -231.29c0,-21.62 -7.77,-39.55 -23.16,-54 -14.36,-15.42 -32.38,-23.16 -54,-23.16l-231.29 0 0 -154.22 -154.14 0 0 154.13 -770.84 0 0 -154.23 -154.13 0 0 154.13 -231.29 0c-21.63,0 -40.04,7.77 -55.53,23.16 -14.36,14.44 -21.63,32.37 -21.63,54l0 231.29 1695.8 0 0.2 0.21zm0.19 154.14l-1695.8 0 -0.19 0 0 1156.26c0,20.56 7.16,38.59 21.62,54 15.42,15.42 33.93,23.16 55.53,23.16l1541.68 0c21.63,0 39.56,-7.77 54,-23.16 15.42,-15.41 23.16,-33.43 23.16,-54l0 -1156.26zm-1541.87 308.36l154.13 0 0 154.13 -154.13 0 0 -154.13zm308.36 0l154.13 0 0 154.13 -154.13 0 0 -154.13zm308.34 0l154.13 0 0 154.13 -154.13 0 0 -154.13zm308.36 0l154.13 0 0 154.13 -154.13 0 0 -154.13zm308.36 0l154.13 0 0 154.13 -154.13 0 0 -154.13zm-1233.33 308.36l154.13 0 0 154.13 -154.13 0 0 -154.13zm308.36 0l154.13 0 0 154.13 -154.13 0 0 -154.13zm308.36 0l154.13 0 0 154.13 -154.13 0 0 -154.13zm308.36 0l154.13 0 0 154.13 -154.13 0 0 -154.13zm308.36 0l154.13 0 0 154.13 -154.13 0 0 -154.13zm-1233.34 308.36l154.13 0 0 154.13 -154.13 0 0 -154.13zm308.36 0l154.13 0 0 154.13 -154.13 0 0 -154.13zm308.36 0l154.14 0 0 154.13 -154.14 0 0 -154.13zm308.35 0l154.13 0 0 154.13 -154.13 0 0 -154.13zm308.36 0l154.13 0 0 154.13 -154.13 0 0 -154.13z"/>
 </g>
</svg>
