<?xml version="1.0" encoding="UTF-8"?>
<!DOCTYPE svg PUBLIC "-//W3C//DTD SVG 1.1//EN" "http://www.w3.org/Graphics/SVG/1.1/DTD/svg11.dtd">
<!-- Creator: CorelDRAW 2019 (64-Bit) -->
<svg xmlns="http://www.w3.org/2000/svg" xml:space="preserve" width="9.7013mm" height="10.5833mm" version="1.1" style="shape-rendering:geometricPrecision; text-rendering:geometricPrecision; image-rendering:optimizeQuality; fill-rule:evenodd; clip-rule:evenodd"
viewBox="0 0 174.94 190.85"
 xmlns:xlink="http://www.w3.org/1999/xlink"
 xmlns:xodm="http://www.corel.com/coreldraw/odm/2003">
 <defs>
  <style type="text/css">
   <![CDATA[
    .fil0 {fill:#333333}
   ]]>
  </style>
 </defs>
 <g id="Layer_x0020_1">
  <metadata id="CorelCorpID_0Corel-Layer"/>
  <g>
   <path id="path3441" class="fil0" d="M174.94 47.71l0 -23.86c0,-2.23 -0.8,-4.08 -2.39,-5.57 -1.48,-1.59 -3.34,-2.39 -5.57,-2.39l-23.86 0 0 -15.91 -15.9 0 0 15.9 -79.52 0 0 -15.91 -15.9 0 0 15.9 -23.86 0c-2.23,0 -4.13,0.8 -5.73,2.39 -1.48,1.49 -2.23,3.34 -2.23,5.57l0 23.86 174.94 0 0 0zm-174.94 15.9l0 119.28c0,2.12 0.74,3.98 2.23,5.57 1.59,1.59 3.5,2.39 5.73,2.39l159.04 0c2.23,0 4.08,-0.8 5.57,-2.39 1.59,-1.59 2.39,-3.45 2.39,-5.57l0 -119.28 -174.94 0 0 0zm15.9 31.81l15.9 0 0 15.9 -15.9 0 0 -15.9 0 0zm31.81 0l15.9 0 0 15.9 -15.9 0 0 -15.9 0 0zm31.81 0l15.9 0 0 15.9 -15.9 0 0 -15.9 -0 0zm31.81 0l15.9 0 0 15.9 -15.9 0 0 -15.9 0 0zm31.81 0l15.9 0 0 15.9 -15.9 0 0 -15.9 0 0zm-127.23 31.81l15.9 0 0 15.9 -15.9 0 0 -15.9 0 0zm31.81 0l15.9 0 0 15.9 -15.9 0 0 -15.9 0 0zm31.81 0l15.9 0 0 15.9 -15.9 0 0 -15.9 -0 0zm31.81 0l15.9 0 0 15.9 -15.9 0 0 -15.9 0 0zm31.81 0l15.9 0 0 15.9 -15.9 0 0 -15.9 0 0zm-127.23 31.81l15.9 0 0 15.9 -15.9 0 0 -15.9 0 0zm31.81 0l15.9 0 0 15.9 -15.9 0 0 -15.9 0 0zm31.81 0l15.9 0 0 15.9 -15.9 0 0 -15.9 0 0zm31.81 0l15.9 0 0 15.9 -15.9 0 0 -15.9 0 0zm31.81 0l15.9 0 0 15.9 -15.9 0 0 -15.9z" inkscape:connector-curvature="0"/>
  </g>
 </g>
</svg>
