<?xml version="1.0" encoding="UTF-8"?>
<!DOCTYPE svg PUBLIC "-//W3C//DTD SVG 1.1//EN" "http://www.w3.org/Graphics/SVG/1.1/DTD/svg11.dtd">
<!-- Creator: CorelDRAW 2019 (64-Bit) -->
<svg xmlns="http://www.w3.org/2000/svg" xml:space="preserve" width="39.9598mm" height="23.9429mm" version="1.1" style="shape-rendering:geometricPrecision; text-rendering:geometricPrecision; image-rendering:optimizeQuality; fill-rule:evenodd; clip-rule:evenodd"
viewBox="0 0 4091.05 2451.25"
 xmlns:xlink="http://www.w3.org/1999/xlink"
 xmlns:xodm="http://www.corel.com/coreldraw/odm/2003">
 <defs>
  <style type="text/css">
   <![CDATA[
    .fil0 {fill:black}
   ]]>
  </style>
 </defs>
 <g id="Layer_x0020_1">
  <metadata id="CorelCorpID_0Corel-Layer"/>
  <path class="fil0" d="M1350.18 1386.36l1777.38 -139.88 -23.25 -295.39c-5.5,-69.88 36.04,-93.11 92.7,-51.87l423.72 308.45 423.72 308.45c56.67,41.25 62.46,115.02 12.95,164.63l-370.24 370.93 -370.24 370.94c-49.51,49.6 -94.18,33.15 -99.68,-36.72l-23.25 -295.4 -1777.38 139.89c-67.13,5.28 -125.93,-44.93 -131.21,-112.06l-47.28 -600.74c-5.28,-67.13 44.93,-125.93 112.06,-131.21zm-410.17 -283.12l1634.47 -128.64c13.5,-1.06 25.26,-7.45 33.34,-16.92 8.04,-9.42 12.48,-22.01 11.42,-35.53l-43.47 -552.46c-1.06,-13.48 -7.46,-25.24 -16.93,-33.31 -9.41,-8.05 -22,-12.49 -35.51,-11.43 -562.27,33.07 -1134.88,89.31 -1697.72,133.6l-24.72 -314.12 -658.9 660.13c-2.73,2.73 -4.86,5.16 -6.39,7.26 -6.52,8.96 -9.35,18.99 -8.59,28.57 0.74,9.46 5.1,18.85 12.95,26.69 2.54,2.54 4.99,4.67 7.3,6.35l754.22 549.05 -24.73 -314.27 63.27 -4.98zm1644.39 -2.14l-1571.21 123.65 15.6 198.25c2.2,27.94 -1.04,52.36 -8.74,72.48 -9.45,24.7 -25.37,43.35 -46.6,55.28l0.06 0.1c-21.1,11.8 -45.32,15.57 -71.52,10.66 -21.03,-3.94 -43.52,-14 -66.35,-30.61l-762.79 -555.28c-8.43,-6.13 -15.82,-12.41 -22.18,-18.76 -30.22,-30.17 -47.1,-67.71 -50.17,-106.56 -3.04,-38.72 7.76,-78.37 32.9,-112.9 5.88,-8.08 12.15,-15.49 18.79,-22.14l666.53 -667.78c19.94,-19.97 40.71,-33.47 61.07,-40.73 24.95,-8.89 49.36,-8.94 72,-0.59 22.6,8.32 41.2,24.33 54.57,47.53 10.91,18.94 18.01,42.56 20.18,70.19l15.6 198.22 1571.28 -123.66c48.2,-3.79 93.5,12.43 127.76,41.68 34.2,29.22 57.27,71.42 61.07,119.65l43.48 552.45c3.79,48.22 -12.42,93.52 -41.68,127.79 -29.22,34.2 -71.42,57.28 -119.66,61.08z"/>
 </g>
</svg>
