<?xml version="1.0" standalone="no"?><!-- Generator: Gravit.io --><svg xmlns="http://www.w3.org/2000/svg" xmlns:xlink="http://www.w3.org/1999/xlink" style="isolation:isolate" viewBox="0 0 1000 1000" width="1000" height="1000"><defs><clipPath id="_clipPath_hXYR5NT89VQqTYR07TA0DzBUd2GrhxvL"><rect width="1000" height="1000"/></clipPath></defs><g clip-path="url(#_clipPath_hXYR5NT89VQqTYR07TA0DzBUd2GrhxvL)"><g id="Group"><path d="M 328.222 530.471 L 749.274 497.334 C 765.132 496.086 779.021 507.948 780.269 523.806 L 791.438 665.721 C 792.686 681.58 780.824 695.469 764.965 696.717 L 343.914 729.855 C 328.055 731.103 314.166 719.241 312.918 703.382 L 301.749 561.467 C 300.501 545.608 312.363 531.719 328.222 530.471 Z" style="stroke:none;fill:#000000;stroke-miterlimit:10;"/><path d=" M 967.761 600.013 L 880.296 687.64 L 792.832 775.268 C 781.135 786.987 770.583 783.1 769.284 766.594 L 755.946 597.118 L 742.608 427.642 C 741.309 411.135 751.122 405.646 764.508 415.39 L 864.605 488.257 L 964.701 561.123 C 978.087 570.868 979.458 588.294 967.761 600.013 Z " fill="rgb(0,0,0)"/></g><path d=" M 232.496 478.528 L 618.616 448.14 C 633.2 446.992 644.108 434.22 642.96 419.636 L 632.689 289.131 C 631.542 274.548 618.769 263.639 604.186 264.787 L 218.065 295.175 L 213.204 233.406 C 211.905 216.9 201.354 213.013 189.657 224.732 L 110.928 303.607 L 32.199 382.483 C 20.502 394.201 21.874 411.627 35.26 421.372 L 125.358 486.96 L 215.457 552.549 C 228.843 562.293 238.656 556.804 237.357 540.297 L 232.496 478.528 Z " fill="none" vector-effect="non-scaling-stroke" stroke-width="30" stroke="rgb(0,0,0)" stroke-linejoin="miter" stroke-linecap="square" stroke-miterlimit="3"/></g></svg>