<?xml version="1.0" encoding="UTF-8"?>
<!DOCTYPE svg PUBLIC "-//W3C//DTD SVG 1.1//EN" "http://www.w3.org/Graphics/SVG/1.1/DTD/svg11.dtd">
<!-- Creator: CorelDRAW 2019 (64-Bit) -->
<svg xmlns="http://www.w3.org/2000/svg" xml:space="preserve" width="73.6028mm" height="109.908mm" version="1.1" style="shape-rendering:geometricPrecision; text-rendering:geometricPrecision; image-rendering:optimizeQuality; fill-rule:evenodd; clip-rule:evenodd"
viewBox="0 0 3552.25 5304.44"
 xmlns:xlink="http://www.w3.org/1999/xlink"
 xmlns:xodm="http://www.corel.com/coreldraw/odm/2003">
 <defs>
  <style type="text/css">
   <![CDATA[
    .fil0 {fill:black;fill-rule:nonzero}
   ]]>
  </style>
 </defs>
 <g id="Layer_x0020_1">
  <metadata id="CorelCorpID_0Corel-Layer"/>
  <path class="fil0" d="M2932.26 3909.38l149.3 1101.06c4.67,34.77 -19.72,66.74 -54.49,71.41 -3.94,0.53 -7.85,0.68 -11.68,0.49l-339.4 -0.58c-32.86,0 -59.88,-24.99 -63.13,-56.99l-0.08 0.01 -114.4 -1116.74 127.77 0.35 107.22 1046.57 212.52 0.37 -141.89 -1046.38 128.26 0.44zm-2487.05 -3778.87c3.83,-2.65 7.41,-4.95 10.73,-6.91 173.93,-102.75 910.58,-133.73 1614.72,-120.85 711.54,13.01 1400.26,77.03 1460.81,161.24l0.08 0.12 0.16 -0.12c0.59,0.83 1.86,2.89 3.92,6.41 3.22,5.5 5.52,11.28 6.95,17.17 34.96,143.78 -29.21,812.52 -125.13,1555.38 -111,859.66 -263.89,1823.07 -353.56,2182.11 -7.64,30.55 -36.18,50.36 -66.56,48 -560.55,-2.14 -1327.95,-3.59 -1939.3,-3.41 -503.43,0.14 -900.88,1.4 -988.78,4.3 -34.37,1.08 -63.22,-25.39 -65.34,-59.47l-0.1 0c-20.58,-326.99 44.4,-1139.42 131.05,-1924.79 96.76,-877.05 222.64,-1725.82 288.72,-1837.26 5.49,-9.3 12.99,-16.68 21.62,-21.94zm1623.46 -0.86c-676.5,-12.37 -1376.82,12.75 -1541.64,99.9 -59.39,140.57 -173.8,940.73 -265.74,1774.09 -81,734.12 -143.04,1489.95 -133.21,1842.18 151.77,-2.03 502.83,-2.95 929.97,-3.07 595.03,-0.17 1337.92,1.2 1894,3.24 90.12,-388.51 233.87,-1300.86 339.51,-2118.97 91.02,-704.9 154.2,-1336.63 130.5,-1494.45 -77.29,-49.86 -699.41,-90.97 -1353.38,-102.93zm1359.55 108.24l-0.45 -0.5 0.43 0.75 0.13 -0.09 -0.11 -0.16zm-2950.63 3620.15l374.74 6.81c31.2,0.49 56.09,26.18 55.6,57.38l-0.18 3.75 0.18 0.01 -112.07 1326.07c-2.56,31.17 -29.89,54.36 -61.05,51.84l-370.02 0.53c-31.2,0 -56.49,-25.29 -56.49,-56.49 0,-1.49 0.06,-2.96 0.17,-4.42l-0.17 -0.01 107.49 -1333.49c2.44,-31.2 29.72,-54.5 60.92,-52.06l0.88 0.08zm312.29 118.69l-265.39 -4.82 -98.3 1219.46 261.06 -0.38 102.63 -1214.26zm1447.15 -116.99l377.78 7.87c31.2,0.61 56,26.41 55.39,57.61l-0.13 2.87 0.13 0.01 -96.95 1316.8c-2.19,31.01 -28.96,54.43 -59.92,52.55l-396.76 3.35c-31.2,0.24 -56.7,-24.86 -56.94,-56.06 -0.02,-2.3 0.11,-4.57 0.36,-6.8l119.66 -1326.59c2.58,-29.82 27.89,-52.21 57.39,-51.62zm315.81 119.62l-265.4 -5.54 -109.45 1213.44 286.1 -2.42 88.75 -1205.49zm-1893.97 -3291.32l5.91 -7.91c85.39,-114.22 98.65,-131.94 148.1,-141.48 22.93,-5.69 51.44,0.8 80.33,16.28 25.65,13.75 52.91,34.98 76.79,60.66 32.9,35.38 60.21,49.78 87.09,50.69 28.99,0.98 61.77,-12.5 101.59,-32.41 16.06,-8.03 33.3,-19.5 50.43,-30.89 80.41,-53.5 159.09,-105.84 269.1,26.73 27.48,33.12 56.48,56.07 85.77,67.97 26.84,10.9 54.25,12.47 81.11,3.92 34.33,-10.92 73.58,-33.55 112.46,-55.97 100.65,-58.03 199.34,-114.92 267.02,-20.3 24.47,34.21 59.2,63.85 94.29,85.91 39.42,24.77 77.55,39.34 100.24,39.34 44.84,0 77.99,-37.83 108.69,-72.89 36.89,-42.11 71.2,-81.28 127.06,-79.05 61.46,2.45 101.63,44.86 140.06,85.42 38.57,40.71 74.55,78.7 130.09,25.26 162.72,-156.58 223.05,-111.93 328.98,-33.54 22.91,16.95 48.39,35.81 79,54.3l-34.58 57.36c-32.17,-19.43 -59.58,-39.72 -84.24,-57.97 -76.94,-56.94 -120.78,-89.38 -242.8,28.04 -104.1,100.17 -162.41,38.62 -224.9,-27.36 -29.35,-30.97 -60.03,-63.36 -94.22,-64.72 -24.02,-0.96 -48.18,26.62 -74.15,56.26 -40.42,46.14 -84.05,95.94 -158.98,95.94 -34.13,0 -85.96,-18.45 -135.87,-49.82 -41.61,-26.16 -83.18,-61.84 -113.14,-103.73 -32.38,-45.27 -105.11,-3.34 -179.28,39.42 -41.95,24.19 -84.31,48.61 -125.55,61.73 -42.44,13.5 -85.14,11.27 -126.42,-5.5 -39.63,-16.1 -77.59,-45.6 -112.22,-87.35 -71.51,-86.18 -125.45,-50.3 -180.56,-13.63 -18.33,12.19 -36.77,24.46 -57.5,34.82 -48.88,24.44 -90.52,40.94 -133.55,39.48 -45.15,-1.52 -87.56,-21.98 -133.98,-71.9 -19.04,-20.48 -40.04,-37.01 -59.23,-47.3 -14.79,-7.93 -26.73,-11.9 -32.92,-10.25l-2.36 0.52c-24.72,4.63 -35.44,18.98 -108.03,116.06l-5.91 7.91 -53.7 -40.08zm2123.2 996.32c2.94,13.44 4.84,26.63 5.74,39.52 6.24,89.46 -31.62,177.52 -96.87,248.57 -63.61,69.27 -153.87,122.66 -254.44,144.9 -23.22,5.14 -46.72,8.62 -70.26,10.26 -15.86,1.11 -31.58,0.98 -47.08,-0.27 -97.67,-7.91 -191.52,-60.23 -262.22,-133.05 -70.66,-72.78 -118.86,-166.83 -125.23,-258.18 -1.02,-14.62 -0.99,-29.09 0.15,-43.27 3.96,-48.89 17.38,-105.95 41.03,-162.02 29.86,-70.77 76.24,-140.22 140.81,-190.21 65.79,-50.94 149.71,-81.58 253.18,-73.2 50.8,4.11 106.39,17.78 166.92,43.32 16.99,7.16 24.97,26.75 17.81,43.75l0 0.13 -127.92 300.03 325.9 2.94c16.09,0.12 29.43,11.61 32.48,26.79zm-61.06 43.97l-0.33 -4.21 -345.8 -3.12c-4.88,0.24 -9.89,-0.59 -14.7,-2.64 -16.99,-7.23 -24.91,-26.88 -17.68,-43.88l134.05 -314.41c-41.2,-14.72 -79.48,-23 -114.91,-25.87 -85.1,-6.89 -153.65,17.95 -207.08,59.32 -54.65,42.31 -94.29,102.01 -120.12,163.23 -20.63,48.91 -32.34,98.67 -35.79,141.32 -0.9,11.16 -0.94,22.39 -0.15,33.58 5.25,75.26 46.2,154.03 106.37,216 60.14,61.94 138.82,106.34 219.53,112.88 12.55,1.01 25.05,1.13 37.38,0.27 20.73,-1.44 40.89,-4.4 60.3,-8.69 86.85,-19.2 164.74,-65.27 219.6,-125 53.24,-57.96 84.22,-128.51 79.32,-198.8zm-2012.04 -489.72c2.38,-18.3 19.17,-31.2 37.46,-28.81 18.3,2.38 31.2,19.17 28.81,37.46l-98.29 747.83 571.65 23.12 321.32 -11.16c18.44,-0.57 33.87,13.91 34.44,32.35 0.57,18.44 -13.91,33.87 -32.35,34.44l-321.68 11.17c-1.08,0.06 -2.17,0.08 -3.27,0.03l-609.33 -24.64 -3.02 -0.26c-18.3,-2.38 -31.2,-19.17 -28.81,-37.46l103.05 -784.07zm-33.65 651.4c-18.37,-2.24 -31.45,-18.96 -29.21,-37.33 2.24,-18.37 18.96,-31.45 37.33,-29.21 0.29,0.03 103.02,12.87 214.99,-4.35l1.1 -0.14c28.8,-4.3 59.15,-8.35 85.29,-11.84 130.15,-17.37 142.19,-19.01 302.12,-135.37 50.49,-71.26 91.58,-143.51 124.54,-214.94 37.16,-80.5 63.93,-159.73 82.22,-235.2 4.34,-17.93 22.4,-28.96 40.34,-24.62 17.93,4.34 28.96,22.4 24.62,40.34 -19.33,79.75 -47.48,163.17 -86.41,247.51 -35.22,76.32 -79.36,153.63 -133.89,229.97 -2.08,2.83 -4.6,5.42 -7.59,7.6 -178.11,129.72 -190.4,131.38 -337.3,150.98 -21.74,2.9 -46.88,6.25 -84.03,11.81l-1.05 0.18c-121,18.61 -232.73,4.65 -233.05,4.61zm1414.59 1170.65l50.94 209.65 61.19 -70.08c1.45,-1.89 3.13,-3.64 5.03,-5.23 2.94,-2.46 6.19,-4.33 9.58,-5.62l79.06 -35.52 -205.81 -93.2zm1.22 288.06l-81.92 -337.15c-2.27,-7.48 -1.94,-15.77 1.52,-23.45 7.59,-16.85 27.41,-24.36 44.27,-16.77l335.82 152.07 -0.02 0.05c7.22,3.24 13.32,9.05 16.79,16.84 7.52,16.85 -0.04,36.62 -16.9,44.14l-108.07 48.56 69.09 82.34 -51.34 42.95 -72.35 -86.22 -78.94 90.41c-4.42,5.21 -10.46,9.11 -17.6,10.84 -17.93,4.34 -36,-6.69 -40.34,-24.62zm-1145.66 -729.01l50.94 209.65 61.19 -70.08c1.45,-1.89 3.13,-3.64 5.03,-5.23 2.94,-2.46 6.19,-4.33 9.58,-5.62l79.06 -35.52 -205.81 -93.2zm1.22 288.06l-81.92 -337.15c-2.27,-7.48 -1.94,-15.77 1.52,-23.45 7.59,-16.85 27.41,-24.36 44.27,-16.77l335.82 152.07 -0.02 0.05c7.22,3.24 13.32,9.05 16.79,16.84 7.52,16.85 -0.04,36.62 -16.9,44.14l-108.07 48.56 69.09 82.34 -51.34 42.95 -72.35 -86.22 -78.94 90.41c-4.42,5.21 -10.46,9.11 -17.6,10.84 -17.93,4.34 -36,-6.69 -40.34,-24.62z"/>
 </g>
</svg>
