<?xml version="1.0" encoding="UTF-8"?>
<!DOCTYPE svg PUBLIC "-//W3C//DTD SVG 1.1//EN" "http://www.w3.org/Graphics/SVG/1.1/DTD/svg11.dtd">
<!-- Creator: CorelDRAW 2019 (64-Bit) -->
<svg xmlns="http://www.w3.org/2000/svg" xml:space="preserve" width="23.2431mm" height="29.2959mm" version="1.1" style="shape-rendering:geometricPrecision; text-rendering:geometricPrecision; image-rendering:optimizeQuality; fill-rule:evenodd; clip-rule:evenodd"
viewBox="0 0 1521.99 1918.33"
 xmlns:xlink="http://www.w3.org/1999/xlink"
 xmlns:xodm="http://www.corel.com/coreldraw/odm/2003">
 <defs>
  <style type="text/css">
   <![CDATA[
    .fil0 {fill:black;fill-rule:nonzero}
   ]]>
  </style>
 </defs>
 <g id="Layer_x0020_1">
  <metadata id="CorelCorpID_0Corel-Layer"/>
  <path class="fil0" d="M1521.99 466.27l0 1314.69c0,38.74 -16.95,73.54 -44.41,98.55 -26.36,24.01 -62.5,38.83 -102.21,38.83l-1228.75 0c-39.71,0 -75.85,-14.82 -102.21,-38.83 -27.46,-25 -44.41,-59.8 -44.41,-98.54l0 -1643.58c0,-38.74 16.95,-73.54 44.41,-98.55 26.36,-24.01 62.5,-38.83 102.21,-38.83l892.42 0 0 0.69 0.03 -0.03 482.3 465.45 -0.14 0.15 0.76 0zm-722.78 38.01l-557.7 0c-9.95,0 -18.01,-8.07 -18.01,-18.01l0 -50.6c0,-9.95 8.07,-18.01 18.01,-18.01l557.7 0c9.95,0 18.01,8.07 18.01,18.01l0 50.6c0,9.95 -8.07,18.01 -18.01,18.01zm485.64 1120l-1050.53 0c-11.98,0 -21.69,-9.72 -21.69,-21.69l0 -43.24c0,-11.98 9.72,-21.69 21.69,-21.69l1050.53 0c11.98,0 21.69,9.72 21.69,21.69l0 43.24c0,11.98 -9.72,21.69 -21.69,21.69zm10.88 -373.33l-1050.53 0c-11.98,0 -21.69,-9.72 -21.69,-21.69l0 -43.24c0,-11.98 9.72,-21.69 21.69,-21.69l1050.53 0c11.98,0 21.69,9.72 21.69,21.69l0 43.24c0,11.98 -9.72,21.69 -21.69,21.69zm-224.23 -1095.65l0 261.07c0,16.76 6.61,31.77 17.33,42.48l0.17 0.17c10.71,10.72 25.72,17.33 42.48,17.33l272.7 0 -332.68 -321.06zm224.23 722.31l-1050.53 0c-11.98,0 -21.69,-9.72 -21.69,-21.69l0 -43.24c0,-11.98 9.72,-21.69 21.69,-21.69l1050.53 0c11.98,0 21.69,9.72 21.69,21.69l0 43.24c0,11.98 -9.72,21.69 -21.69,21.69zm-310.87 -790.97l-838.24 0c-17.52,0 -33.05,6.17 -44.01,16.15 -9.88,9 -15.98,21.24 -15.98,34.6l0 1643.58c0,13.36 6.1,25.6 15.98,34.59 10.96,9.98 26.49,16.15 44.01,16.15l1228.75 0c17.52,0 33.05,-6.17 44.01,-16.15 9.87,-8.99 15.98,-21.24 15.98,-34.6l0 -1217.97 -303.88 0c-40.38,0 -76.96,-16.36 -103.57,-42.88l-0.17 -0.17c-26.53,-26.61 -42.88,-63.19 -42.88,-103.57l0 -329.73z"/>
 </g>
</svg>
